<svg width="28" height="29" viewBox="0 0 28 29" fill="none" xmlns="http://www.w3.org/2000/svg">
<path d="M20.764 24.8248L18.949 24.2132C17.6696 23.7807 16.2414 24.2431 15.4529 25.3468L14.3223 26.8979C12.7304 29.0904 9.30874 28.3447 8.75829 25.6898L8.37149 23.8105C8.1037 22.4831 7.00281 21.4838 5.64901 21.3347L3.74476 21.1408C1.05204 20.8574 -0.0191011 17.5015 2.00416 15.7117L3.43235 14.429C4.44398 13.5192 4.75639 12.0725 4.20594 10.8345L3.41747 9.07455C2.31657 6.59867 4.66713 3.98855 7.24084 4.8387L9.05583 5.45022C10.3352 5.88275 11.7634 5.42038 12.5519 4.31668L13.6826 2.76552C15.2744 0.573019 18.6961 1.31878 19.2465 3.97364L19.6333 5.85292C19.9011 7.18035 21.002 8.17966 22.3558 8.32881L24.2601 8.5227C26.9528 8.80608 28.0239 12.1619 26.0007 13.9517L24.5725 15.2344C23.5608 16.1442 23.2484 17.591 23.7989 18.8289L24.5874 20.5889C25.6882 23.0648 23.3377 25.6749 20.764 24.8248Z" fill="#EEE8E0" stroke="#14140B" stroke-width="1.13"/>
</svg>
