<svg width="463" height="466" viewBox="0 0 463 466" fill="none" xmlns="http://www.w3.org/2000/svg">
<path d="M164.36 41.2218L162.575 40.9235C161.311 40.7147 160.061 41.3411 159.481 42.4746L158.648 44.0855C157.487 46.3525 154.185 46.1586 153.292 43.7722L152.667 42.0719C152.221 40.8787 151.046 40.1032 149.781 40.1628L147.981 40.2523C145.437 40.3716 143.949 37.4185 145.571 35.4497L146.716 34.0477C147.535 33.0633 147.609 31.6613 146.925 30.5874L145.943 29.0661C144.559 26.9183 146.374 24.1441 148.888 24.5767L150.674 24.875C151.938 25.0838 153.188 24.4574 153.768 23.3238L154.601 21.713C155.762 19.4459 159.064 19.6398 159.957 22.0262L160.582 23.7265C161.028 24.9197 162.203 25.6953 163.468 25.6356L165.268 25.5461C167.812 25.4268 169.3 28.38 167.678 30.3488L166.532 31.7508C165.714 32.7352 165.64 34.1372 166.324 35.211L167.306 36.7324C168.69 38.8801 166.875 41.6543 164.36 41.2218Z" fill="#8E4694" stroke="#14140B" stroke-width="1.13"/>
<path d="M97.0572 66.0103L95.2719 65.7121C94.0074 65.5032 92.7577 66.1297 92.1775 67.2632L91.3444 68.874C90.184 71.1411 86.8813 70.9472 85.9887 68.5608L85.3639 66.8605C84.9176 65.6673 83.7423 64.8917 82.4778 64.9514L80.6777 65.0409C78.1337 65.1602 76.646 62.207 78.2676 60.2383L79.4131 58.8363C80.2313 57.8519 80.3057 56.4498 79.6214 55.376L78.6395 53.8546C77.256 51.7069 79.0709 48.9327 81.5851 49.3652L83.3704 49.6635C84.6349 49.8723 85.8846 49.2459 86.4648 48.1124L87.2979 46.5016C88.4583 44.2345 91.761 44.4284 92.6536 46.8148L93.2784 48.5151C93.7247 49.7083 94.9 50.4839 96.1645 50.4242L97.9647 50.3347C100.509 50.2154 101.996 53.1686 100.375 55.1373L99.2292 56.5393C98.411 57.5237 98.3366 58.9257 99.0209 59.9996L100.003 61.521C101.386 63.6687 99.5714 66.4429 97.0572 66.0103Z" fill="#EEE8E0" stroke="#14140B" stroke-width="1.13"/>
<path d="M107.144 50.1112L105.358 49.8129C104.094 49.6041 102.844 50.2305 102.264 51.364L101.431 52.9749C100.271 55.2419 96.9679 55.048 96.0753 52.6617L95.4504 50.9613C95.0041 49.7681 93.8289 48.9926 92.5643 49.0522L90.7642 49.1417C88.2202 49.261 86.7326 46.3079 88.3541 44.3391L89.4997 42.9371C90.3179 41.9527 90.3923 40.5507 89.7079 39.4768L88.7261 37.9555C87.3425 35.8077 89.1575 33.0335 91.6717 33.4661L93.4569 33.7644C94.7215 33.9732 95.9711 33.3468 96.5513 32.2132L97.3844 30.6024C98.5448 28.3353 101.848 28.5292 102.74 30.9156L103.365 32.6159C103.811 33.8091 104.987 34.5847 106.251 34.525L108.051 34.4356C110.595 34.3162 112.083 37.2694 110.461 39.2382L109.316 40.6402C108.498 41.6246 108.423 43.0266 109.107 44.1005L110.089 45.6218C111.473 47.7695 109.658 50.5437 107.144 50.1112Z" fill="#E392BE" stroke="#14140B" stroke-width="1.13"/>
<path d="M116.129 63.0423L114.344 62.744C113.08 62.5352 111.83 63.1616 111.25 64.2952L110.417 65.906C109.256 68.1731 105.954 67.9792 105.061 65.5928L104.436 63.8925C103.99 62.6993 102.815 61.9237 101.55 61.9834L99.7499 62.0729C97.2059 62.1922 95.7182 59.239 97.3398 57.2702L98.4853 55.8682C99.3035 54.8839 99.3779 53.4819 98.6936 52.408L97.7117 50.8866C96.3282 48.7389 98.1432 45.9647 100.657 46.3972L102.443 46.6955C103.707 46.9044 104.957 46.2779 105.537 45.1444L106.37 43.5336C107.53 41.2665 110.833 41.4604 111.726 43.8468L112.351 45.5471C112.797 46.7403 113.972 47.5159 115.237 47.4562L117.037 47.3667C119.581 47.2474 121.069 50.2006 119.447 52.1693L118.301 53.5713C117.483 54.5557 117.409 55.9577 118.093 57.0316L119.075 58.5529C120.459 60.7007 118.644 63.4749 116.129 63.0423Z" fill="#EEE8E0" stroke="#14140B" stroke-width="1.13"/>
<path d="M126.216 47.1429L124.431 46.8446C123.166 46.6358 121.916 47.2622 121.336 48.3958L120.503 50.0066C119.343 52.2737 116.04 52.0798 115.147 49.6934L114.523 47.9931C114.076 46.7999 112.901 46.0243 111.637 46.084L109.836 46.1734C107.292 46.2928 105.805 43.3396 107.426 41.3708L108.572 39.9688C109.39 38.9844 109.464 37.5824 108.78 36.5086L107.798 34.9872C106.415 32.8395 108.23 30.0653 110.744 30.4978L112.529 30.7961C113.794 31.0049 115.043 30.3785 115.624 29.2449L116.457 27.6342C117.617 25.3671 120.92 25.561 121.812 27.9474L122.437 29.6477C122.883 30.8409 124.059 31.6164 125.323 31.5568L127.123 31.4673C129.667 31.348 131.155 34.3011 129.533 36.2699L128.388 37.6719C127.57 38.6563 127.495 40.0583 128.18 41.1322L129.162 42.6535C130.545 44.8013 128.73 47.5754 126.216 47.1429Z" fill="#EEE8E0" stroke="#14140B" stroke-width="1.13"/>
<path d="M135.187 60.0892L133.402 59.7909C132.137 59.5821 130.887 60.2085 130.307 61.3421L129.474 62.9529C128.314 65.22 125.011 65.0261 124.118 62.6397L123.493 60.9394C123.047 59.7462 121.872 58.9706 120.607 59.0302L118.807 59.1197C116.263 59.2391 114.776 56.2859 116.397 54.3171L117.543 52.9151C118.361 51.9307 118.435 50.5287 117.751 49.4548L116.769 47.9335C115.386 45.7858 117.201 43.0116 119.715 43.4441L121.5 43.7424C122.764 43.9512 124.014 43.3248 124.594 42.1913L125.427 40.5804C126.588 38.3134 129.891 38.5073 130.783 40.8937L131.408 42.594C131.854 43.7872 133.03 44.5627 134.294 44.5031L136.094 44.4136C138.638 44.2943 140.126 47.2474 138.504 49.2162L137.359 50.6182C136.541 51.6026 136.466 53.0046 137.15 54.0785L138.132 55.5998C139.516 57.7476 137.701 60.5217 135.187 60.0892Z" fill="#EEE8E0" stroke="#14140B" stroke-width="1.13"/>
<path d="M145.288 44.1898L143.503 43.8915C142.238 43.6827 140.989 44.3091 140.409 45.4426L139.575 47.0535C138.415 49.3205 135.112 49.1267 134.22 46.7403L133.595 45.04C133.149 43.8468 131.973 43.0712 130.709 43.1308L128.909 43.2203C126.365 43.3397 124.877 40.3865 126.499 38.4177L127.644 37.0157C128.462 36.0313 128.537 34.6293 127.852 33.5554L126.871 32.0341C125.487 29.8864 127.302 27.1122 129.816 27.5447L131.601 27.843C132.866 28.0518 134.116 27.4254 134.696 26.2918L135.529 24.681C136.689 22.4139 139.992 22.6078 140.885 24.9942L141.509 26.6945C141.956 27.8877 143.131 28.6633 144.396 28.6037L146.196 28.5142C148.74 28.3949 150.227 31.348 148.606 33.3168L147.46 34.7188C146.642 35.7032 146.568 37.1052 147.252 38.1791L148.234 39.7004C149.617 41.8482 147.802 44.6223 145.288 44.1898Z" fill="#EEE8E0" stroke="#14140B" stroke-width="1.13"/>
<path d="M154.259 57.1212L152.474 56.8229C151.209 56.6141 149.96 57.2405 149.379 58.3741L148.546 59.9849C147.386 62.2519 144.083 62.0581 143.191 59.6717L142.566 57.9714C142.119 56.7782 140.944 56.0026 139.68 56.0622L137.879 56.1517C135.335 56.271 133.848 53.3179 135.469 51.3491L136.615 49.9471C137.433 48.9627 137.508 47.5607 136.823 46.4868L135.841 44.9655C134.458 42.8177 136.273 40.0436 138.787 40.4761L140.572 40.7744C141.837 40.9832 143.086 40.3568 143.667 39.2232L144.5 37.6124C145.66 35.3453 148.963 35.5392 149.855 37.9256L150.48 39.6259C150.927 40.8191 152.102 41.5947 153.366 41.5351L155.166 41.4456C157.71 41.3263 159.198 44.2794 157.576 46.2482L156.431 47.6502C155.613 48.6346 155.538 50.0366 156.223 51.1105L157.205 52.6318C158.588 54.7796 156.773 57.5537 154.259 57.1212Z" fill="#E392BE" stroke="#14140B" stroke-width="1.13"/>
<path d="M173.673 54.1083L171.888 53.8099C170.624 53.6011 169.374 54.2276 168.794 55.3611L167.961 56.9719C166.8 59.239 163.498 59.0451 162.605 56.6587L161.98 54.9584C161.534 53.7652 160.359 52.9896 159.094 53.0493L157.294 53.1388C154.75 53.2581 153.262 50.3049 154.884 48.3362L156.029 46.9341C156.848 45.9498 156.922 44.5478 156.238 43.4739L155.256 41.9526C153.872 39.8048 155.687 37.0306 158.201 37.4632L159.987 37.7614C161.251 37.9703 162.501 37.3438 163.081 36.2103L163.914 34.5995C165.075 32.3324 168.377 32.5263 169.27 34.9127L169.895 36.613C170.341 37.8062 171.516 38.5818 172.781 38.5221L174.581 38.4326C177.125 38.3133 178.613 41.2665 176.991 43.2352L175.845 44.6372C175.027 45.6216 174.953 47.0237 175.637 48.0975L176.619 49.6188C178.003 51.7666 176.188 54.5408 173.673 54.1083Z" fill="#EEE8E0" stroke="#14140B" stroke-width="1.13"/>
<path d="M184.504 176.769L111.309 188.134L79.4429 65.1751L178.27 49.8276L184.504 176.769Z" fill="#B85DA0" stroke="#14140B" stroke-width="1.13"/>
<path d="M157.651 54.1382L167.529 179.827" stroke="#14140B" stroke-width="1.13"/>
<path d="M259.221 72.1289L194.487 53.4458L192.227 61.3146L256.961 79.9977L259.221 72.1289Z" fill="#EEE8E0" stroke="#14140B" stroke-width="1.06"/>
<path d="M217.501 172.429L175.831 160.407L196.227 62.4607L252.476 78.7031L217.501 172.429Z" fill="#E392BE" stroke="#14140B" stroke-width="1.06"/>
<path d="M239.319 29.04L233.371 27.3235L223.42 61.9804L229.367 63.6968L239.319 29.04Z" fill="#EEE8E0" stroke="#14140B" stroke-width="1.06"/>
<path d="M228.733 72.051C228.733 72.051 234.148 100.225 225.415 122.24C216.683 144.254 191.585 165.001 191.585 165.001L201.85 167.969C201.85 167.969 249.784 103.909 235.77 74.1093L228.733 72.051Z" fill="#EEE8E0" stroke="#14140B" stroke-width="1.06"/>
<path d="M121.996 102.167C135.23 100.111 145.07 92.6963 143.974 85.6063C142.878 78.5162 131.261 74.4357 118.027 76.4921C104.792 78.5485 94.9518 85.9632 96.0478 93.0532C97.1439 100.143 108.761 104.224 121.996 102.167Z" fill="#EEE8E0" stroke="#14140B" stroke-width="1.13"/>
<path d="M105.924 87.1002L109.732 86.4291C110.461 86.2948 111.116 86.3246 111.681 86.5185C112.261 86.6975 112.723 87.0257 113.094 87.4731C113.451 87.9206 113.69 88.4724 113.809 89.1287C113.928 89.7849 113.883 90.3815 113.69 90.9185C113.496 91.4554 113.154 91.9178 112.678 92.2907C112.187 92.6635 111.577 92.9171 110.848 93.0364L108.393 93.4689L108.111 91.8283L110.253 91.4554C110.64 91.3809 110.967 91.2615 111.205 91.0826C111.458 90.9036 111.622 90.6649 111.696 90.3964C111.785 90.128 111.8 89.8297 111.741 89.4866C111.681 89.1585 111.562 88.8751 111.398 88.6514C111.22 88.4277 110.997 88.2785 110.699 88.1891C110.402 88.0996 110.06 88.0995 109.673 88.1592L108.245 88.4128L109.658 96.5265L107.635 96.8845L105.924 87.1002Z" fill="#B85DA0"/>
<path d="M123.36 91.858C123.092 92.6783 122.66 93.3495 122.036 93.8716C121.411 94.3936 120.667 94.7217 119.804 94.8858C118.926 95.0349 118.123 94.9753 117.364 94.7068C116.605 94.4234 115.966 93.9461 115.43 93.26C114.909 92.5739 114.552 91.7088 114.374 90.6648C114.195 89.6208 114.225 88.6961 114.493 87.8608C114.746 87.0256 115.192 86.3544 115.817 85.8473C116.442 85.3253 117.186 84.9971 118.048 84.848C118.911 84.6988 119.73 84.7585 120.488 85.0269C121.247 85.2954 121.887 85.7876 122.422 86.4737C122.943 87.1598 123.3 88.0249 123.479 89.0689C123.657 90.113 123.612 91.0377 123.36 91.873V91.858ZM120.816 87.7117C120.533 87.2642 120.176 86.951 119.759 86.772C119.343 86.593 118.867 86.5483 118.361 86.6378C117.855 86.7273 117.439 86.9361 117.111 87.2493C116.784 87.5625 116.546 87.9801 116.427 88.5022C116.308 89.0242 116.308 89.6208 116.427 90.3069C116.546 90.9929 116.754 91.5597 117.052 91.9923C117.349 92.4397 117.706 92.7529 118.123 92.9319C118.539 93.1258 119.001 93.1706 119.506 93.0811C120.012 92.9916 120.429 92.7827 120.771 92.4546C121.113 92.1265 121.336 91.7238 121.455 91.2018C121.574 90.6797 121.574 90.0832 121.455 89.3971C121.336 88.711 121.128 88.1442 120.845 87.6967L120.816 87.7117Z" fill="#B85DA0"/>
<path d="M123.255 84.0575L127.064 83.3863C127.793 83.2521 128.447 83.2819 129.013 83.4758C129.593 83.6548 130.054 83.9829 130.426 84.4303C130.783 84.8778 131.021 85.4297 131.14 86.0859C131.259 86.7422 131.215 87.3388 131.021 87.8757C130.828 88.4126 130.486 88.875 130.01 89.2479C129.519 89.6208 128.909 89.8743 128.18 89.9936L125.725 90.4262L125.442 88.7855L127.585 88.4127C127.971 88.3381 128.299 88.2188 128.537 88.0398C128.775 87.8608 128.938 87.6222 129.028 87.3537C129.117 87.0852 129.132 86.7869 129.072 86.4439C129.013 86.1157 128.894 85.8324 128.73 85.6086C128.552 85.3849 128.328 85.2358 128.031 85.1463C127.733 85.0568 127.391 85.0568 127.004 85.1165L125.576 85.37L126.99 93.4837L124.966 93.8417L123.255 84.0575Z" fill="#B85DA0"/>
<path d="M134.368 89.1586L132.643 89.4568L131.259 82.6258L133.342 82.2529L134.354 89.1436L134.368 89.1586ZM133.446 92.3056C133.253 92.231 133.089 92.1267 132.955 91.9626C132.821 91.8134 132.732 91.6195 132.702 91.4107C132.658 91.2168 132.673 91.008 132.747 90.829C132.821 90.6351 132.94 90.486 133.089 90.3517C133.238 90.2175 133.431 90.143 133.64 90.0982C133.833 90.0684 134.026 90.0833 134.22 90.1578C134.413 90.2324 134.577 90.3368 134.711 90.486C134.845 90.6351 134.934 90.8141 134.964 91.008C134.993 91.2168 134.964 91.4107 134.904 91.6046C134.83 91.7985 134.711 91.9626 134.562 92.0968C134.413 92.2311 134.235 92.3056 134.026 92.3503C133.818 92.3802 133.625 92.3653 133.431 92.3056H133.446Z" fill="#B85DA0"/>
<path d="M318.515 33.6749C318.515 33.6749 310.526 24.6215 305.989 24.6961L306.123 27.3211C306.123 27.3211 302.612 23.831 292.689 24.5171C292.689 24.5171 296.914 31.8254 302.314 34.883L299.755 36.0762C299.755 36.0762 305.885 42.9371 309.931 43.4293C313.978 43.9215 328.453 46.4868 328.453 46.4868L318.515 33.6898V33.6749Z" fill="#B85DA0" stroke="#14140B" stroke-width="1.01"/>
<path d="M332.723 87.145C332.723 87.145 329.197 96.2879 322.651 95.6018C316.105 94.9157 310.943 91.7388 310.943 91.7388C310.943 91.7388 305.736 84.7735 305.602 82.1932C305.468 79.6129 300.217 71.7975 300.767 69.3515C301.303 66.9054 304.055 62.1177 303.445 59.9103C302.835 57.7029 302.27 53.2582 303.951 50.4094C303.951 50.4094 303.861 45.5919 307.149 44.5628C307.149 44.5628 310.422 36.807 315.525 38.7907C320.628 40.7595 328.914 49.2908 328.914 49.2908C328.914 49.2908 342.155 60.134 344.223 64.5041L340.786 78.4645L332.738 87.1599L332.723 87.145Z" fill="#EEE8E0" stroke="#14140B" stroke-width="1.01"/>
<path d="M382.263 90.9335C382.263 90.9335 388.184 98.3611 380.641 104.103C380.641 104.103 380.939 106.669 376.044 108.817C376.044 108.817 372.652 117.258 363.86 115.14C363.86 115.14 362.09 113.172 358.311 114.395C354.532 115.633 345.829 114.872 344.758 110.457C344.758 110.457 333.184 109.339 332.529 99.8973C331.875 90.4562 332.693 87.1451 332.693 87.1451C332.693 87.1451 338.971 79.5832 338.435 72.3793C337.9 65.1753 344.193 64.5042 344.193 64.5042L368.606 75.2877C368.606 75.2877 381.638 86.5186 382.233 90.9484L382.263 90.9335Z" fill="#EEE8E0" stroke="#14140B" stroke-width="1.01"/>
<path d="M391.085 45.3235C391.085 45.3235 404.534 44.3391 407.345 49.1716C410.157 54.004 413.445 68.0539 407.569 72.4687C401.692 76.8836 399.133 74.0796 397.333 77.5548C395.533 81.015 396.322 88.1593 390.103 88.6366C383.884 89.1138 383.126 88.2637 382.278 90.9484C382.278 90.9484 369.439 81.5072 362.268 80.1201C355.098 78.733 344.475 70.7983 343.776 65.6973L365.928 52.2291C365.928 52.2291 383.825 42.4897 391.1 45.3384L391.085 45.3235Z" fill="#EEE8E0" stroke="#14140B" stroke-width="1.01"/>
<path d="M355.008 16.3287C355.008 16.3287 358.103 4.56078 366.716 4.6801C375.33 4.81434 378.335 12.3762 378.335 12.3762C378.335 12.3762 380.433 13.2264 383.527 18.6703C383.527 18.6703 387.931 20.5645 388.124 24.4126C388.124 24.4126 393.525 27.6044 395.087 32.5412C395.087 32.5412 396.961 39.775 391.07 45.3085C391.07 45.3085 373.218 50.6928 357.299 60.9841C341.381 71.2754 343.062 64.0267 343.062 64.0267L345.502 28.5739L354.993 16.3138L355.008 16.3287Z" fill="#EEE8E0" stroke="#14140B" stroke-width="1.01"/>
<path d="M335.787 58.1801C335.787 58.1801 321.163 40.9235 315.361 32.3474C309.559 23.7564 307.7 10.4075 314.022 6.70858C320.345 3.00967 324.154 0.17581 330.298 2.01035L335.683 2.68152C335.683 2.68152 342.437 -1.50958 347.793 3.00965C353.149 7.52889 356.437 8.31939 354.993 16.3287C353.55 24.3381 345.457 29.7969 347.213 40.9981C348.953 52.1992 347.406 58.0459 347.406 58.0459L343.062 64.0417L335.772 58.1801H335.787Z" fill="#EEE8E0" stroke="#14140B" stroke-width="1.01"/>
<path d="M359.814 60.1339L372.414 67.487C373.262 68.0985 373.099 69.4259 372.147 69.8137C366.092 72.3045 352.479 75.7946 352.479 75.7946C351.72 78.9566 349.578 85.8025 349.578 85.8025C345.398 84.9524 338.272 69.5005 338.272 69.5005C335.698 70.9472 328.884 68.3222 328.884 68.3222C327.278 66.2639 327.441 62.5799 327.441 62.5799C328.736 58.8214 333.6 55.0031 333.6 55.0031C330.982 48.8433 338.54 38.9248 338.54 38.9248C340.845 38.9248 347.689 51.8412 347.689 51.8412L350.634 48.0975C358.609 39.954 365.407 40.4014 365.407 40.4014C366.791 45.9796 365.749 55.7638 365.749 55.7638L359.814 60.119V60.1339Z" fill="#E392BE" stroke="#14140B" stroke-width="1.01"/>
<path d="M340.072 60.2084C340.072 60.2084 340.146 57.7624 341.857 57.3C341.857 57.3 343.256 55.1373 345.413 56.4051C345.413 56.4051 348.894 55.0628 349.772 56.8973C349.772 56.8973 352.45 56.1814 353.506 58.2247C353.506 58.2247 356.169 57.837 356.213 59.4925C356.213 59.4925 358.385 58.8363 358.817 60.4023C358.817 60.4023 360.022 58.6722 361.614 59.6417C361.614 59.6417 364.44 60.3576 363.265 62.565C363.265 62.565 364.634 64.0118 362.209 65.5927L361.435 65.7717C361.435 65.7717 362.834 67.8002 359.828 68.3222C359.828 68.3222 358.653 70.6937 355.901 69.3961C355.901 69.3961 353.491 70.7235 352.152 68.4713C352.152 68.4713 349.816 69.0232 348.715 67.6361C348.715 67.6361 346.871 68.3818 345.71 66.7412C345.71 66.7412 343.657 67.3229 343.27 65.9358C343.27 65.9358 341.203 65.6822 340.979 64.325C340.979 64.325 339.507 62.6843 340.072 60.2233V60.2084Z" fill="#B85DA0" stroke="#14140B" stroke-width="1.01"/>
<path d="M362.447 86.772L372.176 95.4972" stroke="#14140B" stroke-width="1.01"/>
<path d="M347.733 49.8276L347.466 54.4214" stroke="#14140B" stroke-width="1.01"/>
<path d="M333.6 55.0181L338.153 58.7617" stroke="#14140B" stroke-width="1.01"/>
<path d="M350.858 74.4672L348.046 69.7988" stroke="#14140B" stroke-width="1.01"/>
<path d="M338.272 69.5005L341.292 65.5779" stroke="#14140B" stroke-width="1.01"/>
<path d="M324.436 86.7871C324.436 86.7871 319.72 89.3674 316.328 89.3823Z" fill="#7D777A"/>
<path d="M324.436 86.7871C324.436 86.7871 319.72 89.3674 316.328 89.3823" stroke="#14140B" stroke-width="1.01"/>
<path d="M355.422 257.445L343.689 254.896L298.818 462.435L310.552 464.985L355.422 257.445Z" fill="#B85DA0" stroke="#14140B" stroke-width="1.13"/>
<path d="M451.29 445.105L461.863 439.402L361.508 252.389L350.935 258.092L451.29 445.105Z" fill="#B85DA0" stroke="#14140B" stroke-width="1.13"/>
<path d="M288.196 193.414L268.765 196.158L273.477 229.684L292.908 226.94L288.196 193.414Z" fill="#E392BE" stroke="#14140B" stroke-width="1.13"/>
<path d="M236.413 180.689L221.785 182.755L232.003 255.463L246.631 253.397L236.413 180.689Z" fill="#8E4694" stroke="#14140B" stroke-width="1.13"/>
<path d="M268.723 185.871L237.581 190.27L245.132 244L276.274 239.601L268.723 185.871Z" fill="#B85DA0" stroke="#14140B" stroke-width="1.13"/>
<path d="M396.87 162.76L284.97 178.567L295.381 252.649L407.281 236.842L396.87 162.76Z" fill="#B85DA0" stroke="#14140B" stroke-width="1.13"/>
<path d="M393.551 238.993L309.169 250.913L310.703 261.827L395.085 249.908L393.551 238.993Z" fill="#B85DA0" stroke="#14140B" stroke-width="1.13"/>
<path d="M382.141 252.28L323.775 260.525L324.835 268.072L383.201 259.827L382.141 252.28Z" fill="#E392BE" stroke="#14140B" stroke-width="1.13"/>
<path d="M390.509 194.74L338.802 202.044L343.459 235.186L395.167 227.882L390.509 194.74Z" fill="#E392BE" stroke="#14140B" stroke-width="1.13"/>
<path d="M297.286 180.96C318.845 180.96 336.323 163.438 336.323 141.823C336.323 120.208 318.845 102.686 297.286 102.686C275.726 102.686 258.249 120.208 258.249 141.823C258.249 163.438 275.726 180.96 297.286 180.96Z" fill="#EEE8E0" stroke="#14140B" stroke-width="1.13"/>
<path d="M298.506 189.656C320.065 189.656 337.543 172.133 337.543 150.519C337.543 128.904 320.065 111.382 298.506 111.382C276.946 111.382 259.469 128.904 259.469 150.519C259.469 172.133 276.946 189.656 298.506 189.656Z" fill="#8E4694" stroke="#14140B" stroke-width="1.13"/>
<path d="M298.535 163.584C305.618 163.584 311.359 157.828 311.359 150.727C311.359 143.627 305.618 137.871 298.535 137.871C291.453 137.871 285.712 143.627 285.712 150.727C285.712 157.828 291.453 163.584 298.535 163.584Z" fill="#E392BE" stroke="#14140B" stroke-width="1.13"/>
<path d="M374.586 170.042C396.146 170.042 413.623 152.52 413.623 130.905C413.623 109.291 396.146 91.7686 374.586 91.7686C353.027 91.7686 335.549 109.291 335.549 130.905C335.549 152.52 353.027 170.042 374.586 170.042Z" fill="#EEE8E0" stroke="#14140B" stroke-width="1.13"/>
<path d="M223.303 193.101L53.4528 147.864L79.5172 333.242L229.864 239.561L223.303 193.101Z" fill="#EEE8E0" stroke="#14140B" stroke-width="1.13"/>
<path d="M376.074 178.693C397.634 178.693 415.111 161.171 415.111 139.556C415.111 117.941 397.634 100.419 376.074 100.419C354.514 100.419 337.037 117.941 337.037 139.556C337.037 161.171 354.514 178.693 376.074 178.693Z" fill="#8E4694" stroke="#14140B" stroke-width="1.13"/>
<path d="M287.735 198.008L399.728 182.183" stroke="#14140B" stroke-width="1.13"/>
<path d="M241.096 212.595L267.874 208.806" stroke="#14140B" stroke-width="1.13"/>
<path d="M376.982 152.487C384.064 152.487 389.805 146.731 389.805 139.631C389.805 132.53 384.064 126.774 376.982 126.774C369.899 126.774 364.158 132.53 364.158 139.631C364.158 146.731 369.899 152.487 376.982 152.487Z" fill="#E392BE" stroke="#14140B" stroke-width="1.13"/>
<path d="M251.558 409.277C261.172 388.586 235.5 356.182 194.218 336.9C152.935 317.618 111.675 318.76 102.06 339.45C92.4451 360.141 118.117 392.545 159.4 411.827C200.682 431.109 241.943 429.967 251.558 409.277Z" fill="#EEE8E0" stroke="#14140B" stroke-width="0.96"/>
<path d="M119.417 313.987C119.417 313.987 81.3768 321.847 60.8913 330.87C40.3909 339.894 16.4539 305.977 16.4539 305.977L0.907471 327.231C0.907471 327.231 31.4052 363.803 50.5369 356.196C69.6687 348.604 93.68 324.8 113.273 336.583C132.866 348.366 119.417 313.987 119.417 313.987Z" fill="#8E4694" stroke="#14140B" stroke-width="0.96"/>
<path d="M16.5431 305.798C16.5431 305.798 35.1244 333.421 52.6495 332.332C70.1745 331.258 96.6108 310.511 123.374 314.016L122.199 318.491C122.199 318.491 101.178 316.671 64.2981 335.39C39.3049 348.067 13.2256 310.75 13.2256 310.75L16.558 305.798H16.5431Z" fill="#E392BE" stroke="#14140B" stroke-width="0.96"/>
<path d="M0.907501 327.231C0.907501 327.231 18.6111 353.989 41.9083 358.09C65.2205 362.192 81.8678 323.338 113.258 336.583L115.49 332.257C115.49 332.257 96.9084 320.713 60.2218 347.963C37.6982 364.698 4.22506 323.204 4.22506 323.204L0.877747 327.231H0.907501Z" fill="#E392BE" stroke="#14140B" stroke-width="0.96"/>
<path d="M261.67 367.934L127.793 305.381L117.037 328.529C116.843 328.633 116.977 328.902 116.784 329.006L107.798 348.351C111.071 365.354 133.223 386.891 164.822 401.657C195.468 415.975 225.594 419.525 241.155 412.053L241.631 411.038L261.67 367.934Z" fill="#E392BE" stroke="#14140B" stroke-width="0.96"/>
<path d="M264.795 361.207L130.917 298.654L120.161 321.802C119.968 321.906 120.101 322.175 119.908 322.279L110.922 341.624C114.195 358.627 136.347 380.164 167.946 394.93C198.592 409.249 228.718 412.798 244.279 405.326L244.755 404.312L264.795 361.207Z" fill="#8E4694" stroke="#14140B" stroke-width="0.96"/>
<path d="M265.958 378.296C275.573 357.606 249.901 325.202 208.618 305.92C167.336 286.638 126.075 287.78 116.46 308.47C106.846 329.16 132.518 361.564 173.8 380.846C215.083 400.128 256.344 398.987 265.958 378.296Z" fill="#EEE8E0" stroke="#14140B" stroke-width="0.96"/>
<path d="M220.086 327.939C222.348 323.07 216.309 315.446 206.597 310.91C196.885 306.374 187.178 306.643 184.916 311.512C182.654 316.38 188.693 324.004 198.405 328.54C208.116 333.076 217.823 332.807 220.086 327.939Z" fill="#B85DA0" stroke="#14140B" stroke-width="0.96"/>
<path d="M164.045 324.619C166.307 319.751 160.268 312.127 150.556 307.591C140.844 303.055 131.138 303.324 128.875 308.192C126.613 313.061 132.652 320.684 142.364 325.22C152.076 329.757 161.783 329.487 164.045 324.619Z" fill="#B85DA0" stroke="#14140B" stroke-width="0.96"/>
<path d="M172.073 358.796C174.335 353.927 168.296 346.304 158.584 341.767C148.873 337.231 139.166 337.501 136.903 342.369C134.641 347.237 140.68 354.861 150.392 359.397C160.104 363.933 169.811 363.664 172.073 358.796Z" fill="#B85DA0" stroke="#14140B" stroke-width="0.96"/>
<path d="M231.563 385.498C233.826 380.63 227.787 373.006 218.075 368.47C208.363 363.934 198.656 364.203 196.394 369.072C194.131 373.94 200.17 381.564 209.882 386.1C219.594 390.636 229.301 390.367 231.563 385.498Z" fill="#B85DA0" stroke="#14140B" stroke-width="0.96"/>
<path d="M257.769 367.748C260.031 362.879 253.992 355.256 244.281 350.719C234.569 346.183 224.862 346.453 222.599 351.321C220.337 356.189 226.376 363.813 236.088 368.349C245.8 372.885 255.507 372.616 257.769 367.748Z" fill="#B85DA0" stroke="#14140B" stroke-width="0.96"/>
<path d="M203.08 337.907C204.038 335.847 201.488 332.622 197.384 330.705C193.28 328.789 189.177 328.905 188.22 330.966C187.262 333.027 189.812 336.252 193.916 338.168C198.02 340.085 202.123 339.968 203.08 337.907Z" fill="#E392BE" stroke="#14140B" stroke-width="0.96"/>
<path d="M198.735 347.257C199.693 345.196 197.143 341.972 193.039 340.055C188.935 338.139 184.832 338.255 183.875 340.316C182.917 342.377 185.467 345.601 189.571 347.518C193.675 349.435 197.778 349.318 198.735 347.257Z" fill="#E392BE" stroke="#14140B" stroke-width="0.96"/>
<path d="M182.202 336.538C183.16 334.478 180.609 331.253 176.506 329.336C172.402 327.42 168.299 327.537 167.341 329.597C166.384 331.658 168.934 334.883 173.038 336.799C177.141 338.716 181.244 338.599 182.202 336.538Z" fill="#E392BE" stroke="#14140B" stroke-width="0.96"/>
<path d="M184.529 349.924C185.486 347.864 182.936 344.639 178.832 342.722C174.729 340.806 170.626 340.923 169.668 342.983C168.71 345.044 171.261 348.269 175.364 350.185C179.468 352.102 183.571 351.985 184.529 349.924Z" fill="#E392BE" stroke="#14140B" stroke-width="0.96"/>
<path d="M208.465 360.699C209.423 358.639 206.872 355.414 202.768 353.497C198.665 351.581 194.562 351.697 193.604 353.758C192.646 355.819 195.197 359.044 199.3 360.96C203.404 362.877 207.507 362.76 208.465 360.699Z" fill="#E392BE" stroke="#14140B" stroke-width="0.96"/>
<path d="M217.718 352.834C218.676 350.773 216.125 347.548 212.021 345.632C207.918 343.715 203.815 343.832 202.857 345.893C201.899 347.953 204.45 351.178 208.554 353.095C212.657 355.011 216.76 354.894 217.718 352.834Z" fill="#E392BE" stroke="#14140B" stroke-width="0.96"/>
<path d="M26.0049 326.381L18.6408 336.717" stroke="#14140B" stroke-width="0.96"/>
<path d="M40.7033 335.658L35.0649 348.485" stroke="#14140B" stroke-width="0.96"/>
<path d="M56.7258 338.313L50.6262 351.095" stroke="#14140B" stroke-width="0.96"/>
<path d="M70.7994 332.585L65.2651 344.159" stroke="#14140B" stroke-width="0.96"/>
<path d="M82.8645 327.44L78.0593 337.09" stroke="#14140B" stroke-width="0.96"/>
<path d="M93.2933 323.741L89.1873 331.795" stroke="#14140B" stroke-width="0.96"/>
<path d="M100.91 330.348L105.76 320.698" stroke="#14140B" stroke-width="0.96"/>
<path d="M115.043 353.049L121.991 339.118" stroke="#14140B" stroke-width="0.96"/>
<path d="M123.746 364.369L130.709 350.439" stroke="#14140B" stroke-width="0.96"/>
<path d="M149.112 385.504L156.059 371.573" stroke="#14140B" stroke-width="0.96"/>
<path d="M184.742 402.402L191.704 388.472" stroke="#14140B" stroke-width="0.96"/>
<path d="M217.947 409.174L224.895 395.243" stroke="#14140B" stroke-width="0.96"/>
<path d="M135.023 374.87L141.971 360.939" stroke="#14140B" stroke-width="0.96"/>
<path d="M166.741 394.647L173.688 380.716" stroke="#14140B" stroke-width="0.96"/>
<path d="M202.817 406.415L209.765 392.484" stroke="#14140B" stroke-width="0.96"/>
<path d="M232.928 408.339L239.876 394.408" stroke="#14140B" stroke-width="0.96"/>
<path d="M417.901 321.212L305.77 343.961L319.169 410.344L431.3 387.595L417.901 321.212Z" fill="#EEE8E0" stroke="#14140B" stroke-width="1.13"/>
<path d="M414.06 341.031L309.861 362.171L318.288 403.922L422.487 382.782L414.06 341.031Z" fill="#EEE8E0" stroke="#14140B" stroke-width="1.13"/>
<path d="M419.423 328.791L307.292 351.54L308.339 356.73L420.47 333.981L419.423 328.791Z" fill="#E392BE" stroke="#14140B" stroke-width="1.13"/>
<path d="M364.039 359.269L372.994 357.449L373.366 359.328L370.019 360.014L371.849 369.098L369.603 369.545L367.773 360.462L364.41 361.148L364.039 359.269Z" fill="#635F61"/>
<path d="M374.378 368.59L375.94 356.867L378.856 356.271L384.851 366.472L382.412 366.965L377.949 359.03H377.859L376.803 368.098L374.378 368.59ZM381.653 362.624L382.01 364.399L376.178 365.577L375.821 363.803L381.653 362.624Z" fill="#635F61"/>
<path d="M383.572 355.301L385.833 354.839L386.815 359.701L386.964 359.671L389.954 354.004L392.692 353.452L389.597 359.194L394.953 364.414L392.23 364.966L388.288 361.043L387.425 362.669L388.05 365.801L385.789 366.264L383.572 355.301Z" fill="#635F61"/>
<path d="M393.51 353.288L400.844 351.796L401.216 353.675L396.143 354.705L396.679 357.374L401.365 356.42L401.737 358.284L397.051 359.239L397.586 361.908L402.674 360.879L403.046 362.759L395.697 364.25L393.48 353.288H393.51Z" fill="#635F61"/>
<path d="M359.62 375.824L368.576 374.004L368.948 375.884L365.601 376.57L367.431 385.653L365.184 386.115L363.354 377.032L359.992 377.718L359.62 375.839V375.824Z" fill="#635F61"/>
<path d="M374.17 384.296L371.909 384.758L369.692 373.796L371.953 373.333L374.17 384.296Z" fill="#635F61"/>
<path d="M380.954 374.392C380.686 374.139 380.359 373.975 379.987 373.885C379.615 373.796 379.228 373.796 378.796 373.885C378.216 374.004 377.755 374.243 377.383 374.616C377.011 374.989 376.773 375.466 376.639 376.063C376.505 376.659 376.52 377.33 376.684 378.091C376.848 378.867 377.086 379.493 377.443 379.985C377.785 380.477 378.201 380.82 378.677 381.014C379.154 381.208 379.674 381.253 380.24 381.134C380.656 381.044 381.013 380.895 381.326 380.671C381.638 380.448 381.861 380.179 382.025 379.866C382.188 379.553 382.263 379.18 382.263 378.777L384.569 378.33C384.613 379.031 384.494 379.732 384.212 380.403C383.929 381.074 383.483 381.656 382.873 382.148C382.263 382.64 381.504 382.983 380.611 383.162C379.63 383.356 378.707 383.311 377.844 383.028C376.982 382.73 376.253 382.208 375.643 381.447C375.033 380.686 374.616 379.717 374.378 378.568C374.14 377.405 374.155 376.346 374.423 375.406C374.69 374.467 375.167 373.691 375.851 373.095C376.535 372.498 377.353 372.095 378.32 371.901C379.168 371.737 379.957 371.737 380.701 371.901C381.445 372.08 382.084 372.423 382.635 372.93C383.185 373.438 383.587 374.109 383.87 374.914L381.564 375.377C381.415 374.989 381.207 374.661 380.939 374.407L380.954 374.392Z" fill="#635F61"/>
<path d="M384.375 370.798L386.637 370.335L387.619 375.198L387.767 375.168L390.758 369.5L393.495 368.948L390.401 374.691L395.756 379.911L393.034 380.463L389.091 376.54L388.228 378.166L388.853 381.298L386.592 381.76L384.375 370.798Z" fill="#635F61"/>
<path d="M394.313 368.784L401.648 367.293L402.019 369.172L396.946 370.201L397.482 372.871L402.168 371.916L402.54 373.781L397.854 374.735L398.389 377.405L403.477 376.376L403.849 378.255L396.5 379.747L394.283 368.784H394.313Z" fill="#635F61"/>
<path d="M402.674 367.084L411.63 365.264L412.002 367.143L408.655 367.83L410.484 376.913L408.238 377.375L406.408 368.292L403.046 368.978L402.674 367.099V367.084Z" fill="#635F61"/>
<path d="M287.312 327.995L256.658 347.094L292.317 404.619L322.971 385.52L287.312 327.995Z" fill="#EEE8E0" stroke="#14140B" stroke-width="1.13"/>
<path d="M297.537 344.654L273.377 359.707L295.805 395.886L319.964 380.833L297.537 344.654Z" fill="#EEE8E0" stroke="#14140B" stroke-width="1.13"/>
<path d="M291.392 334.569L260.738 353.668L263.526 358.165L294.18 339.066L291.392 334.569Z" fill="#E392BE" stroke="#14140B" stroke-width="1.13"/>
<path d="M296.839 303.128C282.885 308.229 277.693 312.003 272.754 327.857C272.248 329.498 269.927 329.498 269.421 327.857C264.482 311.988 259.29 308.214 245.336 303.128C242.375 302.04 242.375 297.819 245.336 296.73C259.29 291.629 264.482 278.131 269.421 262.276C269.927 260.636 272.248 260.636 272.754 262.276C277.693 278.146 282.885 291.644 296.839 296.73C299.8 297.819 299.8 302.04 296.839 303.128Z" fill="#8E4694" stroke="#14140B" stroke-width="1.13"/>
<path d="M248.966 300.235C248.966 300.235 268.752 309.676 293.462 299.922Z" fill="#8E4694"/>
<path d="M248.966 300.235C248.966 300.235 268.752 309.676 293.462 299.922" stroke="#14140B" stroke-width="1.13"/>
<path d="M201.746 275.521L199.931 274.91C198.652 274.477 197.224 274.939 196.435 276.043L195.304 277.594C193.713 279.787 190.291 279.041 189.74 276.386L189.354 274.507C189.086 273.179 187.985 272.18 186.631 272.031L184.727 271.837C182.034 271.554 180.963 268.198 182.986 266.408L184.415 265.125C185.426 264.215 185.739 262.769 185.188 261.531L184.4 259.771C183.299 257.295 185.649 254.685 188.223 255.535L190.038 256.146C191.317 256.579 192.746 256.117 193.534 255.013L194.665 253.462C196.257 251.269 199.678 252.015 200.229 254.67L200.616 256.549C200.883 257.877 201.984 258.876 203.338 259.025L205.242 259.219C207.935 259.502 209.006 262.858 206.983 264.648L205.555 265.931C204.543 266.841 204.231 268.287 204.781 269.525L205.57 271.285C206.67 273.761 204.32 276.371 201.746 275.521Z" fill="#EEE8E0" stroke="#14140B" stroke-width="1.13"/>
</svg>
