<svg width="28" height="28" viewBox="0 0 28 28" fill="none" xmlns="http://www.w3.org/2000/svg">
<path d="M20.9152 23.9131L19.1003 23.3016C17.8208 22.8691 16.3926 23.3314 15.6042 24.4352L14.4735 25.9863C12.8817 28.1788 9.45999 27.4331 8.90954 24.7782L8.52273 22.8989C8.25494 21.5715 7.15407 20.5722 5.80027 20.423L3.89602 20.2291C1.2033 19.9458 0.132137 16.5899 2.1554 14.8001L3.58362 13.5174C4.59525 12.6076 4.90765 11.1608 4.3572 9.9229L3.56873 8.16293C2.46783 5.68704 4.8184 3.07693 7.39211 3.92708L9.2071 4.53859C10.4865 4.97113 11.9147 4.50877 12.7032 3.40506L13.8338 1.8539C15.4256 -0.3386 18.8474 0.407151 19.3978 3.06201L19.7846 4.9413C20.0524 6.26873 21.1533 7.26803 22.5071 7.41718L24.4113 7.61108C27.1041 7.89446 28.1752 11.2503 26.1519 13.0401L24.7237 14.3228C23.7121 15.2326 23.3997 16.6794 23.9501 17.9173L24.7386 19.6773C25.8395 22.1532 23.489 24.7633 20.9152 23.9131Z" fill="#E392BE" stroke="#14140B" stroke-width="1.13"/>
</svg>
