<svg width="29" height="29" viewBox="0 0 29 29" fill="none" xmlns="http://www.w3.org/2000/svg">
<path d="M21.1749 24.6666L19.3599 24.055C18.0805 23.6225 16.6523 24.0849 15.8638 25.1886L14.7332 26.7397C13.1413 28.9322 9.71963 28.1865 9.16918 25.5316L8.78238 23.6523C8.51459 22.3249 7.4137 21.3256 6.0599 21.1765L4.15565 20.9826C1.46292 20.6992 0.391788 17.3433 2.41505 15.5535L3.84324 14.2708C4.85487 13.361 5.16728 11.9143 4.61683 10.6763L3.82836 8.91635C2.72746 6.44046 5.07802 3.83034 7.65173 4.6805L9.46672 5.29201C10.7461 5.72454 12.1743 5.26218 12.9628 4.15848L14.0934 2.60732C15.6853 0.414818 19.107 1.16057 19.6574 3.81543L20.0442 5.69472C20.312 7.02215 21.4129 8.02145 22.7667 8.1706L24.6709 8.3645C27.3637 8.64788 28.4348 12.0037 26.4115 13.7935L24.9834 15.0762C23.9717 15.986 23.6593 17.4328 24.2098 18.6707L24.9982 20.4307C26.0991 22.9066 23.7486 25.5167 21.1749 24.6666Z" fill="#8E4694" stroke="#14140B" stroke-width="1.13"/>
</svg>
