<svg width="312" height="170" viewBox="0 0 312 170" fill="none" xmlns="http://www.w3.org/2000/svg">
<path d="M27.4953 60.8135H4.21289V43.0796H74.4469V60.8135H51.3728V124.724H27.4804V60.8135H27.4953Z" fill="#713570"/>
<path d="M84.2062 108.84L79.4902 124.724H56.2524L81.9895 43.0945H112.874L139.623 124.724H114.704L109.765 108.84H84.2062ZM105.569 91.1058C101.746 78.2789 98.6071 66.8689 96.7623 58.9193H96.435C94.5457 67.7191 91.4364 79.3677 88.1337 91.1058H105.555H105.569Z" fill="#713570"/>
<path d="M138.715 43.0796H162.414V76.2206C167.74 68.7781 179.761 53.8333 187.794 43.0796H216.06L186.143 76.5339L217.087 124.724H189.118L169.615 91.9858L162.414 99.4283V124.724H138.715V43.0945V43.0796Z" fill="#713570"/>
<path d="M274.676 91.6874H237.587V106.99H278.99L276.327 124.724H214.617V43.0945H276.238V60.8284H237.573V73.9685H274.661V91.7024L274.676 91.6874Z" fill="#713570"/>
<path d="M26.6176 56.3987H3.33521V38.6648H73.5692V56.3987H50.4951V120.309H26.6027V56.3987H26.6176Z" stroke="#753675" stroke-width="5.95" stroke-linecap="round" stroke-linejoin="round"/>
<path d="M83.3285 104.425L78.6125 120.309H55.3748L81.1118 38.6797H111.996L138.745 120.309H113.826L108.887 104.425H83.3285ZM104.692 86.691C100.868 73.8641 97.7294 68.6737 95.8846 60.724H95.5573C93.668 69.5238 90.5587 74.9529 87.256 86.691H104.677H104.692Z" stroke="#753675" stroke-width="5.95" stroke-linecap="round" stroke-linejoin="round"/>
<path d="M137.838 38.6797H161.536V71.8207C166.862 64.3782 178.883 49.4334 186.917 38.6797H215.183L185.265 72.134L216.209 120.324H188.241L168.737 87.5859L161.536 95.0284V120.324H137.838V38.6946V38.6797Z" stroke="#753675" stroke-width="5.95" stroke-linecap="round" stroke-linejoin="round"/>
<path d="M273.798 87.2726H236.71V102.575H278.112L275.449 120.309H213.74V38.6797H275.36V56.4136H236.695V69.5537H273.783V87.2875L273.798 87.2726Z" stroke="#753675" stroke-width="5.95" stroke-linecap="round" stroke-linejoin="round"/>
<path d="M26.6176 56.3987H3.33521V38.6648H73.5692V56.3987H50.4951V120.309H26.6027V56.3987H26.6176Z" fill="#EEE8E0"/>
<path d="M83.3285 104.425L78.6125 120.309H55.3748L81.1118 38.6797H111.996L138.745 120.309H113.826L108.887 104.425H83.3285ZM104.692 86.691C100.868 73.8641 97.7294 68.6737 95.8846 60.724H95.5573C93.668 69.5238 90.5587 74.9529 87.256 86.691H104.677H104.692Z" fill="#EEE8E0"/>
<path d="M137.838 38.6797H161.536V71.8207C166.862 64.3782 178.883 49.4334 186.917 38.6797H215.183L185.265 72.134L216.209 120.324H188.241L168.737 87.5859L161.536 95.0284V120.324H137.838V38.6946V38.6797Z" fill="#EEE8E0"/>
<path d="M273.798 87.2726H236.71V102.575H278.112L275.449 120.309H213.74V38.6797H275.36V56.4136H236.695V69.5537H273.783V87.2875L273.798 87.2726Z" fill="#EEE8E0"/>
<path d="M299.386 70.5826C305.138 70.5826 309.8 65.9082 309.8 60.1421C309.8 54.376 305.138 49.7017 299.386 49.7017C293.635 49.7017 288.972 54.376 288.972 60.1421C288.972 65.9082 293.635 70.5826 299.386 70.5826Z" fill="#EEE8E0" stroke="#713570" stroke-width="2.8"/>
<path d="M299.386 117.267C305.138 117.267 309.8 112.592 309.8 106.826C309.8 101.06 305.138 96.3857 299.386 96.3857C293.635 96.3857 288.972 101.06 288.972 106.826C288.972 112.592 293.635 117.267 299.386 117.267Z" fill="#EEE8E0" stroke="#713570" stroke-width="2.8"/>
<path d="M299.386 66.8839C305.138 66.8839 309.8 62.2095 309.8 56.4434C309.8 50.6773 305.138 46.0029 299.386 46.0029C293.635 46.0029 288.972 50.6773 288.972 56.4434C288.972 62.2095 293.635 66.8839 299.386 66.8839Z" fill="#EEE8E0" stroke="#713570" stroke-width="2.8"/>
<path d="M299.386 113.583C305.138 113.583 309.8 108.908 309.8 103.142C309.8 97.376 305.138 92.7017 299.386 92.7017C293.635 92.7017 288.972 97.376 288.972 103.142C288.972 108.908 293.635 113.583 299.386 113.583Z" fill="#EEE8E0" stroke="#713570" stroke-width="2.8"/>
<path d="M54.7201 13.2348L59.2873 9.02876C59.7336 8.59623 60.0758 8.23826 60.3287 7.93996C60.5816 7.65658 60.775 7.35829 60.9089 7.0749C61.0428 6.79152 61.1172 6.4783 61.1172 6.15017C61.1172 5.79221 61.0279 5.46408 60.8494 5.19561C60.6709 4.92714 60.4328 4.70342 60.1353 4.55427C59.8229 4.40512 59.4807 4.33054 59.0939 4.33054C58.7071 4.33054 58.3501 4.40512 58.0525 4.56919C57.755 4.73325 57.5318 4.95698 57.3682 5.25528C57.2045 5.55357 57.1153 5.91153 57.1153 6.31424H54.6011C54.6011 5.49391 54.7945 4.77799 55.1664 4.16648C55.5383 3.55496 56.0739 3.07769 56.7582 2.73464C57.4426 2.40651 58.231 2.22754 59.1237 2.22754C60.0163 2.22754 60.8048 2.3916 61.504 2.70482C62.1883 3.01803 62.7239 3.46548 63.0958 4.03225C63.4677 4.59902 63.6611 5.25527 63.6611 5.98611C63.6611 6.49321 63.5719 6.97049 63.3785 7.43286C63.1851 7.89522 62.8578 8.40233 62.3817 8.9691C61.9057 9.53587 61.2213 10.207 60.3585 11.0125L58.4244 12.8917V12.9812H63.8694V15.1588H54.7647V13.2497L54.7201 13.2348Z" fill="#8E4694"/>
<path d="M67.5589 14.5622C66.8002 14.0551 66.2051 13.3093 65.8034 12.325C65.4018 11.3406 65.1935 10.1623 65.1935 8.7901C65.1935 7.41792 65.4018 6.23965 65.8034 5.25526C66.2051 4.27087 66.8002 3.52513 67.5589 3.01802C68.3176 2.51091 69.24 2.24243 70.2963 2.24243C71.3525 2.24243 72.26 2.49599 73.0188 3.01802C73.7775 3.52513 74.3725 4.27087 74.7891 5.25526C75.2057 6.23965 75.3991 7.41792 75.3991 8.7901C75.3991 10.1623 75.1908 11.3555 74.7891 12.3399C74.3874 13.3243 73.7923 14.07 73.0336 14.5771C72.26 15.0842 71.3525 15.3378 70.2963 15.3378C69.24 15.3378 68.3325 15.0842 67.5589 14.5622ZM71.5906 12.668C71.9625 12.3399 72.2303 11.8626 72.4237 11.2063C72.6171 10.5501 72.7063 9.74466 72.7063 8.7901C72.7063 7.83554 72.6171 7.04506 72.4237 6.3888C72.2303 5.73254 71.9476 5.24034 71.5906 4.91221C71.2335 4.58408 70.8021 4.42002 70.3112 4.42002C69.8202 4.42002 69.3888 4.58408 69.0317 4.91221C68.6747 5.24034 68.392 5.73254 68.1986 6.3888C68.0052 7.04506 67.9011 7.85046 67.9011 8.7901C67.9011 9.72974 68.0052 10.565 68.1986 11.2063C68.392 11.8477 68.6747 12.3399 69.0317 12.668C69.3888 12.9961 69.8202 13.1453 70.3112 13.1453C70.8021 13.1453 71.2335 12.9812 71.6054 12.668H71.5906Z" fill="#8E4694"/>
<path d="M76.8422 13.2348L81.4094 9.02876C81.8557 8.59623 82.1979 8.23826 82.4508 7.93996C82.7037 7.65658 82.8971 7.35829 83.031 7.0749C83.1649 6.79152 83.2392 6.4783 83.2392 6.15017C83.2392 5.79221 83.15 5.46408 82.9715 5.19561C82.7929 4.92714 82.5549 4.70342 82.2574 4.55427C81.945 4.40512 81.6028 4.33054 81.216 4.33054C80.8292 4.33054 80.4721 4.40512 80.1746 4.56919C79.8771 4.73325 79.6539 4.95698 79.4903 5.25528C79.3266 5.55357 79.2374 5.91153 79.2374 6.31424H76.7231C76.7231 5.49391 76.9165 4.77799 77.2885 4.16648C77.6604 3.55496 78.196 3.07769 78.8803 2.73464C79.5646 2.40651 80.3531 2.22754 81.2457 2.22754C82.1384 2.22754 82.9268 2.3916 83.626 2.70482C84.3104 3.01803 84.846 3.46548 85.2179 4.03225C85.5898 4.59902 85.7832 5.25527 85.7832 5.98611C85.7832 6.49321 85.6939 6.97049 85.5005 7.43286C85.3071 7.89522 84.9798 8.40233 84.5038 8.9691C84.0277 9.53587 83.3434 10.207 82.4805 11.0125L80.5465 12.8917V12.9812H85.9915V15.1588H76.8868V13.2497L76.8422 13.2348Z" fill="#8E4694"/>
<path d="M89.7107 14.8456C88.9817 14.5323 88.4164 14.0849 87.9998 13.5181C87.5833 12.9514 87.3601 12.2951 87.3601 11.5643H90.0231C90.0231 11.8775 90.1421 12.1459 90.3355 12.3846C90.5289 12.6232 90.7967 12.8022 91.124 12.9364C91.4513 13.0707 91.8083 13.1303 92.21 13.1303C92.6117 13.1303 93.0133 13.0558 93.3406 12.9066C93.6679 12.7575 93.9357 12.5487 94.1142 12.2951C94.2927 12.0415 94.382 11.7283 94.382 11.4002C94.382 11.0571 94.2928 10.7589 94.0994 10.4755C93.906 10.1921 93.6382 9.9982 93.2663 9.84905C92.8943 9.6999 92.4778 9.62532 91.9868 9.62532H90.7967V7.67145H91.9868C92.4034 7.67145 92.7753 7.59688 93.0877 7.46264C93.415 7.31349 93.653 7.11961 93.8316 6.86605C94.0101 6.6125 94.0994 6.31419 94.0994 5.98607C94.0994 5.65794 94.025 5.38947 93.8613 5.13591C93.6977 4.88236 93.4894 4.68846 93.2067 4.55423C92.9241 4.42 92.5968 4.34542 92.2397 4.34542C91.8827 4.34542 91.5256 4.40508 91.2132 4.53931C90.9008 4.67355 90.6479 4.86745 90.4545 5.10609C90.2611 5.34473 90.157 5.62811 90.1421 5.95624H87.613C87.613 5.24032 87.8362 4.59898 88.2378 4.03221C88.6544 3.46544 89.2048 3.01798 89.8892 2.71968C90.5884 2.40647 91.362 2.25732 92.2249 2.25732C93.0877 2.25732 93.8613 2.42139 94.5308 2.7346C95.2002 3.04782 95.7061 3.48035 96.078 4.03221C96.4499 4.58406 96.6284 5.18066 96.6136 5.85184C96.6136 6.3142 96.5243 6.74673 96.316 7.11961C96.1078 7.49248 95.84 7.80569 95.468 8.04433C95.0961 8.28297 94.6795 8.44703 94.2035 8.53652V8.64093C94.8134 8.7155 95.349 8.89449 95.7805 9.14804C96.2119 9.4016 96.5392 9.75955 96.7623 10.1772C96.9855 10.5948 97.0896 11.0721 97.0896 11.609C97.0896 12.3249 96.8962 12.9663 96.4648 13.533C96.0482 14.0998 95.468 14.5473 94.7093 14.8754C93.9655 15.2035 93.1175 15.3527 92.1802 15.3527C91.243 15.3527 90.4248 15.1886 89.6958 14.8754L89.7107 14.8456Z" fill="#8E4694"/>
<path d="M110.003 3.62936H104.96V8.62588H102.728V1.80973H109.988V3.62936H110.003ZM107.935 7.99945C108.887 7.93979 109.809 7.82047 110.702 7.62657L110.91 9.40146C110.3 9.55061 109.676 9.65501 109.051 9.72959C108.426 9.80416 107.742 9.8489 106.983 9.86382C106.224 9.87873 105.242 9.89365 104.007 9.89365H102.758V8.08894H104.007C105.674 8.08894 106.998 8.05911 107.95 7.99945H107.935ZM115.344 16.7545H113.112V12.8766H104.364V11.0868H115.329V16.7545H115.344ZM113.677 6.53779H109.229V4.73308H113.677V6.53779ZM115.344 10.4008H113.112V0.720947H115.344V10.4008Z" fill="#8E4694"/>
<path d="M122.142 6.09054C121.8 7.03018 121.294 7.8505 120.61 8.53659C119.926 9.23759 119.078 9.7447 118.081 10.0877L116.891 8.28304C117.769 7.99965 118.512 7.59695 119.093 7.06001C119.688 6.52307 120.119 5.91155 120.387 5.22547C120.67 4.53938 120.804 3.80855 120.818 3.03298V1.58622H122.648V3.03298C122.648 4.13668 122.485 5.15089 122.142 6.09054ZM127.974 10.923C128.792 11.1616 129.432 11.5196 129.878 11.9969C130.325 12.4741 130.548 13.026 130.548 13.6823C130.548 14.3385 130.325 14.8904 129.878 15.3527C129.432 15.8151 128.807 16.173 127.974 16.4117C127.156 16.6503 126.174 16.7697 125.029 16.7697C123.883 16.7697 122.931 16.6503 122.098 16.4117C121.265 16.173 120.64 15.8151 120.208 15.3527C119.777 14.8904 119.539 14.3236 119.539 13.6823C119.539 13.0409 119.762 12.4741 120.208 11.9969C120.655 11.5196 121.28 11.1765 122.098 10.923C122.916 10.6694 123.898 10.5501 125.029 10.5501C126.159 10.5501 127.141 10.6694 127.974 10.923ZM123.452 5.01666C123.705 5.658 124.121 6.22477 124.657 6.73188C125.207 7.22407 125.891 7.61187 126.725 7.86542L125.519 9.61047C124.567 9.28234 123.764 8.79014 123.139 8.1488C122.514 7.50745 122.038 6.74679 121.726 5.86681C121.413 4.98683 121.265 4.01736 121.265 2.94348V1.60113H123.065V2.94348C123.065 3.68923 123.184 4.37532 123.452 5.03158V5.01666ZM123.243 12.4592C122.767 12.5636 122.395 12.7128 122.142 12.9216C121.89 13.1304 121.771 13.384 121.771 13.6823C121.771 13.9806 121.89 14.2192 122.142 14.428C122.395 14.6368 122.767 14.786 123.243 14.8904C123.719 14.9948 124.314 15.0544 125.029 15.0544C125.743 15.0544 126.338 14.9948 126.829 14.8904C127.32 14.786 127.677 14.6368 127.93 14.428C128.182 14.2192 128.301 13.9806 128.301 13.6823C128.301 13.384 128.182 13.1155 127.93 12.9216C127.677 12.7277 127.32 12.5636 126.829 12.4592C126.338 12.3548 125.743 12.3101 125.029 12.2952C124.314 12.2952 123.719 12.3548 123.243 12.4592ZM128.569 5.53868H125.267V3.70414H128.569V5.53868ZM130.488 10.1474H128.257V0.750977H130.488V10.1474Z" fill="#8E4694"/>
<path d="M138.76 2.57037C139.385 3.03274 139.876 3.70392 140.233 4.56899C140.59 5.43405 140.753 6.43335 140.753 7.5818C140.753 8.73026 140.575 9.74447 140.233 10.6095C139.876 11.4746 139.385 12.1458 138.76 12.6082C138.135 13.0705 137.421 13.3092 136.618 13.3092C135.814 13.3092 135.1 13.0705 134.461 12.6082C133.821 12.1458 133.345 11.4746 132.988 10.6095C132.631 9.74447 132.452 8.73026 132.452 7.5818C132.452 6.43335 132.631 5.43405 132.988 4.56899C133.345 3.70392 133.836 3.03274 134.461 2.57037C135.085 2.10801 135.799 1.86937 136.618 1.86937C137.436 1.86937 138.12 2.10801 138.76 2.57037ZM135.576 4.33034C135.279 4.61372 135.041 5.03135 134.877 5.5832C134.713 6.13506 134.624 6.80623 134.624 7.5818C134.624 8.35738 134.699 9.02856 134.877 9.58041C135.041 10.1323 135.279 10.5499 135.576 10.8333C135.874 11.1167 136.231 11.2658 136.633 11.2658C137.034 11.2658 137.391 11.1167 137.689 10.8333C137.986 10.5499 138.224 10.1323 138.388 9.58041C138.552 9.02856 138.641 8.35738 138.641 7.5818C138.641 6.80623 138.567 6.13506 138.388 5.5832C138.224 5.03135 137.986 4.61372 137.689 4.33034C137.376 4.04696 137.034 3.91272 136.633 3.91272C136.231 3.91272 135.874 4.04696 135.576 4.33034ZM143.863 5.85167H139.415V4.04695H143.863V5.85167ZM143.863 10.8183H139.415V9.01364H143.863V10.8183ZM145.708 16.8142H143.491V0.73584H145.708V16.8142Z" fill="#8E4694"/>
<path d="M152.283 8.68551C151.941 9.83396 151.42 10.8482 150.751 11.758C150.081 12.6678 149.263 13.3241 148.326 13.7715L147.017 11.9966C147.879 11.5939 148.608 11.0122 149.218 10.2814C149.828 9.53566 150.275 8.73025 150.587 7.83535C150.899 6.94046 151.048 6.03064 151.048 5.12083V3.25646H152.819V5.12083C152.819 6.35877 152.64 7.53706 152.298 8.68551H152.283ZM156.493 4.13645H147.641V2.3019H156.493V4.13645ZM153.711 7.64146C154.009 8.4767 154.455 9.25228 155.035 9.95329C155.615 10.6543 156.344 11.1912 157.178 11.579L155.928 13.339C154.991 12.9064 154.187 12.2651 153.518 11.4149C152.848 10.5648 152.343 9.58041 152 8.49162C151.658 7.40282 151.48 6.26929 151.48 5.10592V3.24155H153.25V5.10592C153.25 5.95608 153.384 6.80623 153.681 7.64146H153.711ZM159.974 16.7694H157.728V0.73584H159.974V16.7694ZM162.34 8.74517H159.483V6.86589H162.34V8.74517Z" fill="#8E4694"/>
<path d="M168.975 4.41985H165.256V12.1756H163.009V2.61514H168.975V4.41985ZM167.145 11.1912C167.978 11.1316 168.841 11.0272 169.719 10.878L169.882 12.6977C168.99 12.8766 168.127 12.996 167.264 13.0407C166.401 13.1004 165.36 13.1302 164.14 13.1451H163.024V11.2658H164.14C165.315 11.2658 166.312 11.236 167.145 11.1912ZM172.724 15.9939H170.671V1.03416H172.724V15.9939ZM174.777 8.73029H172.069V6.94048H174.777V8.73029ZM176.369 16.7545H174.256V0.720947H176.369V16.7545Z" fill="#8E4694"/>
<path d="M187.199 3.95758H177.708V2.1827H187.199V3.95758ZM184.507 4.83757C185.102 5.09113 185.563 5.43417 185.905 5.88161C186.247 6.32906 186.411 6.83617 186.411 7.41785C186.411 7.99954 186.247 8.50665 185.905 8.96901C185.578 9.41646 185.102 9.7595 184.507 10.0131C183.911 10.2666 183.227 10.3859 182.468 10.3859C181.71 10.3859 181.025 10.2666 180.415 10.0131C179.82 9.7595 179.344 9.41646 179.002 8.96901C178.66 8.52156 178.496 7.99954 178.496 7.41785C178.496 6.83617 178.66 6.32906 179.002 5.88161C179.344 5.43417 179.805 5.09113 180.4 4.83757C180.996 4.58402 181.68 4.4647 182.454 4.4647C183.227 4.4647 183.897 4.58402 184.492 4.83757H184.507ZM190.398 16.7695H188.166V13.2645H179.657V11.4747H190.398V16.7695ZM181.531 6.29923C181.263 6.40364 181.055 6.53787 180.906 6.73177C180.758 6.92566 180.683 7.14938 180.683 7.41785C180.683 7.68632 180.758 7.91005 180.906 8.10394C181.055 8.28292 181.263 8.43207 181.531 8.52156C181.799 8.61105 182.111 8.6558 182.483 8.6558C182.855 8.6558 183.153 8.61105 183.421 8.52156C183.688 8.43207 183.911 8.28292 184.06 8.10394C184.209 7.92496 184.283 7.68632 184.283 7.41785C184.283 7.14938 184.209 6.92566 184.06 6.73177C183.911 6.53787 183.688 6.40364 183.421 6.29923C183.153 6.19483 182.84 6.15008 182.483 6.15008C182.126 6.15008 181.799 6.19483 181.531 6.29923ZM183.599 3.18201H181.368V0.661377H183.599V3.18201ZM190.413 10.8036H188.181V0.735956H190.413V10.8036ZM192.57 6.73177H189.773V4.89723H192.57V6.73177Z" fill="#8E4694"/>
<path d="M207.476 14.8008H192.912V12.9811H207.476V14.8008ZM204.531 3.91282H194.34V2.13794H204.531V3.91282ZM198.238 13.5777H196.006V7.95478H198.238V13.5777ZM202.21 13.5777H200.008V7.95478H202.21V13.5777ZM206.152 3.7935C206.152 4.65857 206.152 5.41923 206.123 6.07549C206.108 6.73175 206.048 7.49242 205.959 8.34257C205.87 9.19272 205.736 10.1174 205.557 11.1018L203.356 10.893C203.519 9.9683 203.653 9.10323 203.728 8.28291C203.802 7.46259 203.847 6.73175 203.876 6.10533C203.891 5.4789 203.906 4.71823 203.906 3.83824V2.15286H206.138V3.80842L206.152 3.7935Z" fill="#8E4694"/>
<path d="M226.474 9.65507H211.88V7.85036H226.474V9.65507ZM223.826 3.45045H213.65V1.66064H223.826V3.45045ZM215.942 14.8604H213.725V11.0571H215.942V14.8604ZM225.21 16.4712H213.74V14.6665H225.21V16.4712ZM224.674 5.807C224.615 6.62733 224.481 7.53715 224.258 8.56628L222.026 8.37238C222.175 7.68629 222.279 7.05986 222.353 6.46327C222.428 5.86667 222.473 5.32973 222.487 4.86736C222.502 4.405 222.517 3.83824 222.517 3.18198V1.67556H224.749V3.04774C224.749 4.09178 224.719 5.01651 224.659 5.82192L224.674 5.807Z" fill="#8E4694"/>
<path d="M232.247 12.1756C233.809 12.1309 235.311 11.9966 236.754 11.7878L236.903 13.4285C235.862 13.6224 234.761 13.7715 233.63 13.861C232.5 13.9505 231.443 14.0102 230.461 14.04C229.48 14.0698 228.364 14.0847 227.144 14.0847L226.846 12.2502C228.884 12.2502 230.685 12.2204 232.247 12.1756ZM236.62 4.30052H227.144V2.54055H236.62V4.30052ZM233.943 5.31473C234.538 5.56829 234.999 5.91133 235.341 6.37369C235.683 6.83606 235.847 7.35808 235.847 7.95468C235.847 8.55128 235.683 9.05839 235.341 9.52075C234.999 9.9682 234.538 10.3262 233.943 10.5797C233.348 10.8333 232.678 10.9526 231.919 10.9526C231.161 10.9526 230.476 10.8333 229.881 10.5797C229.286 10.3262 228.825 9.9682 228.483 9.52075C228.155 9.0733 227.992 8.55128 227.992 7.95468C227.992 7.35808 228.155 6.83606 228.483 6.37369C228.81 5.91133 229.286 5.56829 229.881 5.31473C230.476 5.06118 231.161 4.94186 231.919 4.94186C232.678 4.94186 233.348 5.06118 233.943 5.31473ZM230.967 6.79131C230.699 6.89572 230.491 7.04487 230.342 7.23877C230.194 7.43266 230.119 7.67129 230.119 7.93976C230.119 8.20823 230.179 8.44687 230.342 8.64076C230.506 8.83466 230.699 8.98381 230.967 9.0733C231.235 9.1777 231.547 9.22245 231.919 9.22245C232.291 9.22245 232.574 9.1777 232.842 9.0733C233.11 8.96889 233.318 8.81974 233.467 8.64076C233.615 8.46178 233.69 8.22314 233.69 7.93976C233.69 7.65637 233.615 7.43266 233.467 7.23877C233.318 7.04487 233.11 6.8808 232.842 6.79131C232.574 6.68691 232.262 6.64216 231.919 6.64216C231.547 6.64216 231.235 6.68691 230.967 6.79131ZM233.035 3.83814H230.774V0.855151H233.035V3.83814ZM233.035 12.8319H230.774V10.2218H233.035V12.8319ZM239.804 16.7694H237.543V0.73584H239.804V16.7694ZM241.887 9.13296H239.031V7.28351H241.887V9.13296Z" fill="#8E4694"/>
<path d="M246.409 8.61094C246.157 9.72956 245.77 10.7438 245.234 11.6536C244.699 12.5634 244.029 13.2644 243.226 13.7566L241.872 12.101C242.616 11.6387 243.241 11.0272 243.717 10.2814C244.208 9.53566 244.55 8.71535 244.773 7.82045C244.996 6.92555 245.1 6.00082 245.1 5.03135V3.34596H246.796V5.03135C246.796 6.2842 246.662 7.46248 246.409 8.59602V8.61094ZM249.682 4.18119H242.482V2.3914H249.682V4.18119ZM247.57 7.73095C247.778 8.5811 248.12 9.34177 248.596 10.0428C249.072 10.7438 249.667 11.3105 250.411 11.7431L249.102 13.3837C248.284 12.9064 247.614 12.2353 247.094 11.3851C246.573 10.535 246.201 9.58041 245.963 8.50653C245.725 7.43266 245.606 6.28421 245.606 5.04626V3.36087H247.257V5.04626C247.257 5.98591 247.362 6.8808 247.57 7.73095ZM251.23 8.05908H248.537V6.25437H251.23V8.05908ZM252.732 16.0386H250.634V1.01922H252.732V16.0386ZM255.99 16.7694H253.878V0.73584H255.99V16.7694Z" fill="#8E4694"/>
<path d="M90.2611 166.545L95.6168 161.609C96.1375 161.102 96.5391 160.684 96.8367 160.341C97.1342 159.998 97.3574 159.67 97.521 159.327C97.6847 158.984 97.759 158.626 97.759 158.238C97.759 157.805 97.6549 157.432 97.4466 157.119C97.2384 156.806 96.9557 156.552 96.5987 156.373C96.2416 156.195 95.8399 156.105 95.3788 156.105C94.9176 156.105 94.501 156.194 94.1588 156.388C93.8167 156.567 93.5489 156.836 93.3555 157.194C93.1621 157.552 93.0728 157.954 93.0728 158.432H90.1272C90.1272 157.462 90.3504 156.627 90.7818 155.896C91.2132 155.165 91.838 154.614 92.6414 154.226C93.4448 153.838 94.3671 153.644 95.4085 153.644C96.4499 153.644 97.3871 153.823 98.1905 154.196C98.9938 154.569 99.6187 155.091 100.065 155.747C100.496 156.418 100.72 157.179 100.72 158.044C100.72 158.641 100.601 159.207 100.392 159.744C100.169 160.281 99.7823 160.893 99.217 161.549C98.6517 162.205 97.8632 163.011 96.8367 163.935L94.5605 166.128V166.232H100.943V168.783H90.2611V166.545Z" fill="#8E4694"/>
<path d="M105.317 168.082C104.424 167.485 103.74 166.605 103.264 165.457C102.787 164.308 102.549 162.921 102.549 161.31C102.549 159.7 102.787 158.327 103.264 157.164C103.74 156.001 104.424 155.136 105.317 154.539C106.209 153.942 107.28 153.629 108.515 153.629C109.75 153.629 110.821 153.927 111.714 154.539C112.606 155.136 113.305 156.016 113.782 157.164C114.258 158.312 114.496 159.7 114.496 161.31C114.496 162.921 114.258 164.323 113.782 165.472C113.305 166.62 112.621 167.5 111.714 168.097C110.821 168.693 109.75 168.992 108.5 168.992C107.251 168.992 106.194 168.693 105.302 168.082H105.317ZM110.047 165.859C110.479 165.487 110.806 164.905 111.029 164.144C111.252 163.384 111.357 162.429 111.357 161.31C111.357 160.192 111.238 159.252 111.014 158.491C110.791 157.731 110.464 157.149 110.033 156.761C109.601 156.373 109.11 156.18 108.53 156.18C107.95 156.18 107.444 156.373 107.027 156.761C106.611 157.149 106.284 157.716 106.046 158.491C105.807 159.252 105.703 160.192 105.703 161.31C105.703 162.429 105.822 163.384 106.046 164.144C106.284 164.905 106.611 165.472 107.013 165.859C107.414 166.247 107.935 166.426 108.515 166.426C109.095 166.426 109.601 166.232 110.033 165.859H110.047Z" fill="#8E4694"/>
<path d="M116.207 166.545L121.562 161.609C122.083 161.102 122.485 160.684 122.782 160.341C123.08 159.998 123.303 159.67 123.466 159.327C123.63 158.984 123.704 158.626 123.704 158.238C123.704 157.805 123.6 157.432 123.392 157.119C123.184 156.806 122.901 156.552 122.544 156.373C122.187 156.195 121.785 156.105 121.324 156.105C120.863 156.105 120.446 156.194 120.104 156.388C119.762 156.567 119.494 156.836 119.301 157.194C119.108 157.552 119.018 157.954 119.018 158.432H116.073C116.073 157.462 116.296 156.627 116.727 155.896C117.159 155.165 117.783 154.614 118.587 154.226C119.39 153.838 120.313 153.644 121.354 153.644C122.395 153.644 123.333 153.823 124.136 154.196C124.939 154.569 125.564 155.091 126.01 155.747C126.442 156.418 126.665 157.179 126.665 158.044C126.665 158.641 126.546 159.207 126.338 159.744C126.115 160.281 125.728 160.893 125.162 161.549C124.597 162.205 123.809 163.011 122.782 163.935L120.506 166.128V166.232H126.888V168.783H116.207V166.545Z" fill="#8E4694"/>
<path d="M131.307 168.425C130.459 168.052 129.789 167.53 129.298 166.859C128.807 166.188 128.554 165.427 128.54 164.562H131.664C131.664 164.935 131.798 165.248 132.036 165.531C132.274 165.815 132.571 166.024 132.958 166.188C133.345 166.352 133.761 166.426 134.237 166.426C134.713 166.426 135.175 166.337 135.561 166.173C135.948 165.994 136.261 165.755 136.469 165.457C136.677 165.144 136.781 164.8 136.781 164.398C136.781 163.995 136.677 163.637 136.454 163.324C136.231 163.011 135.904 162.757 135.472 162.578C135.041 162.399 134.535 162.31 133.97 162.31H132.586V160.013H133.97C134.461 160.013 134.892 159.923 135.264 159.759C135.636 159.595 135.933 159.357 136.142 159.058C136.35 158.76 136.454 158.417 136.454 158.014C136.454 157.641 136.365 157.313 136.186 157.015C136.008 156.717 135.755 156.493 135.413 156.329C135.085 156.165 134.699 156.09 134.267 156.09C133.836 156.09 133.434 156.165 133.062 156.329C132.69 156.478 132.408 156.702 132.17 157C131.946 157.283 131.827 157.626 131.812 157.984H128.852C128.852 157.149 129.105 156.388 129.596 155.717C130.072 155.046 130.726 154.539 131.53 154.166C132.333 153.793 133.256 153.614 134.267 153.614C135.279 153.614 136.186 153.793 136.975 154.166C137.763 154.539 138.358 155.046 138.79 155.687C139.221 156.329 139.429 157.045 139.429 157.82C139.429 158.372 139.325 158.864 139.087 159.312C138.849 159.759 138.522 160.117 138.091 160.401C137.659 160.684 137.168 160.878 136.603 160.982V161.102C137.317 161.191 137.942 161.385 138.448 161.698C138.953 162.011 139.34 162.414 139.608 162.906C139.861 163.398 139.995 163.965 139.995 164.577C139.995 165.412 139.757 166.173 139.266 166.844C138.775 167.515 138.091 168.037 137.213 168.41C136.335 168.783 135.338 168.977 134.237 168.977C133.137 168.977 132.184 168.798 131.322 168.425H131.307Z" fill="#8E4694"/>
<path d="M142.241 168.738C141.973 168.589 141.765 168.365 141.601 168.097C141.453 167.828 141.378 167.53 141.378 167.217C141.378 166.904 141.438 166.62 141.601 166.367C141.75 166.113 141.973 165.904 142.241 165.74C142.509 165.576 142.792 165.517 143.104 165.517C143.416 165.517 143.684 165.591 143.952 165.74C144.22 165.889 144.428 166.098 144.577 166.367C144.74 166.635 144.815 166.919 144.815 167.217C144.815 167.53 144.726 167.828 144.577 168.097C144.428 168.365 144.22 168.574 143.952 168.738C143.684 168.887 143.402 168.977 143.104 168.977C142.806 168.977 142.509 168.902 142.241 168.738Z" fill="#8E4694"/>
<path d="M149.412 168.425C148.594 168.052 147.939 167.515 147.478 166.859C147.002 166.188 146.764 165.427 146.749 164.577H149.739C149.769 164.95 149.888 165.293 150.111 165.591C150.334 165.889 150.632 166.128 150.989 166.292C151.346 166.456 151.747 166.546 152.179 166.546C152.7 166.546 153.146 166.426 153.548 166.203C153.949 165.979 154.262 165.666 154.485 165.263C154.708 164.86 154.827 164.398 154.827 163.891C154.827 163.384 154.708 162.906 154.485 162.504C154.262 162.101 153.934 161.773 153.533 161.549C153.131 161.325 152.655 161.206 152.134 161.206C151.584 161.206 151.108 161.296 150.721 161.504C150.334 161.713 150.037 162.026 149.813 162.444H147.002L147.82 153.838H156.999V156.389H150.379L149.962 160.162H150.081C150.364 159.789 150.766 159.476 151.301 159.237C151.837 158.999 152.432 158.879 153.071 158.879C153.964 158.879 154.782 159.088 155.511 159.506C156.24 159.923 156.806 160.505 157.207 161.266C157.624 162.012 157.832 162.862 157.832 163.816C157.832 164.816 157.594 165.71 157.118 166.486C156.642 167.262 155.987 167.888 155.125 168.335C154.277 168.783 153.295 169.007 152.194 169.007C151.167 169.007 150.245 168.813 149.427 168.44L149.412 168.425Z" fill="#8E4694"/>
<path d="M159.96 168.738C159.692 168.589 159.483 168.365 159.32 168.097C159.171 167.828 159.097 167.53 159.097 167.217C159.097 166.904 159.156 166.62 159.32 166.367C159.469 166.113 159.692 165.904 159.96 165.74C160.227 165.576 160.51 165.517 160.822 165.517C161.135 165.517 161.403 165.591 161.67 165.74C161.938 165.889 162.146 166.098 162.295 166.367C162.459 166.635 162.533 166.919 162.533 167.217C162.533 167.53 162.444 167.828 162.295 168.097C162.146 168.365 161.938 168.574 161.67 168.738C161.403 168.887 161.12 168.977 160.822 168.977C160.525 168.977 160.227 168.902 159.96 168.738Z" fill="#8E4694"/>
<path d="M169.094 168.783H165.985V156.791H165.91L162.504 158.954V156.195L166.193 153.838H169.109V168.783H169.094Z" fill="#8E4694"/>
<path d="M179.002 156.478V156.389H171.698V153.838H182.215V156.433L175.923 168.783H172.739L179.002 156.478Z" fill="#8E4694"/>
<path d="M182.23 168.738C181.963 168.589 181.754 168.365 181.605 168.097C181.442 167.828 181.382 167.53 181.382 167.217C181.382 166.904 181.442 166.62 181.605 166.367C181.754 166.113 181.963 165.904 182.23 165.74C182.498 165.591 182.796 165.517 183.093 165.517C183.391 165.517 183.673 165.591 183.941 165.74C184.209 165.889 184.417 166.098 184.581 166.367C184.745 166.635 184.819 166.919 184.819 167.217C184.819 167.53 184.73 167.828 184.581 168.097C184.432 168.365 184.209 168.574 183.941 168.738C183.673 168.902 183.391 168.977 183.093 168.977C182.796 168.977 182.498 168.902 182.23 168.738Z" fill="#8E4694"/>
<path d="M193.775 163.846H186.976V161.415H193.775V163.846Z" fill="#8E4694"/>
<path d="M202.27 168.783H199.16V156.791H199.086L195.679 158.954V156.195L199.369 153.838H202.284V168.783H202.27Z" fill="#8E4694"/>
<path d="M213.769 154.36C214.662 154.837 215.391 155.613 215.941 156.702C216.492 157.79 216.76 159.192 216.775 160.908C216.775 162.578 216.522 164.025 216.031 165.233C215.525 166.441 214.826 167.366 213.888 168.007C212.966 168.649 211.88 168.977 210.63 168.977C209.649 168.977 208.771 168.783 207.997 168.395C207.224 168.007 206.599 167.485 206.123 166.829C205.647 166.173 205.364 165.412 205.26 164.562H208.31C208.384 164.935 208.548 165.248 208.756 165.502C208.979 165.77 209.232 165.964 209.559 166.098C209.872 166.232 210.229 166.307 210.63 166.307C211.3 166.307 211.865 166.113 212.326 165.725C212.788 165.337 213.145 164.786 213.383 164.07C213.621 163.354 213.74 162.489 213.74 161.489H213.606C213.368 161.922 213.055 162.295 212.683 162.608C212.312 162.921 211.865 163.16 211.359 163.324C210.854 163.488 210.333 163.577 209.797 163.577C208.905 163.577 208.116 163.369 207.402 162.951C206.688 162.533 206.138 161.967 205.736 161.236C205.334 160.505 205.126 159.685 205.126 158.775C205.126 157.776 205.364 156.881 205.825 156.09C206.286 155.3 206.956 154.688 207.819 154.256C208.682 153.808 209.663 153.599 210.764 153.599C211.865 153.599 212.877 153.853 213.769 154.33V154.36ZM209.411 156.418C209.009 156.657 208.696 156.97 208.458 157.388C208.22 157.805 208.116 158.238 208.131 158.715C208.131 159.207 208.25 159.655 208.473 160.058C208.696 160.445 209.009 160.773 209.396 160.997C209.782 161.236 210.229 161.355 210.735 161.355C211.24 161.355 211.687 161.236 212.103 160.997C212.505 160.759 212.832 160.43 213.07 160.028C213.308 159.625 213.427 159.178 213.427 158.7C213.427 158.238 213.308 157.79 213.07 157.388C212.847 156.985 212.52 156.657 212.118 156.418C211.716 156.18 211.27 156.06 210.764 156.06C210.259 156.06 209.812 156.18 209.411 156.418Z" fill="#8E4694"/>
<path d="M218.783 168.738C218.515 168.589 218.307 168.365 218.158 168.097C217.995 167.828 217.935 167.53 217.935 167.217C217.935 166.904 217.995 166.62 218.158 166.367C218.307 166.113 218.515 165.904 218.783 165.74C219.051 165.591 219.348 165.517 219.646 165.517C219.943 165.517 220.226 165.591 220.494 165.74C220.762 165.889 220.97 166.098 221.134 166.367C221.297 166.635 221.372 166.919 221.372 167.217C221.372 167.53 221.282 167.828 221.134 168.097C220.985 168.365 220.762 168.574 220.494 168.738C220.226 168.902 219.943 168.977 219.646 168.977C219.348 168.977 219.051 168.902 218.783 168.738Z" fill="#8E4694"/>
</svg>
