<svg width="259" height="134" viewBox="0 0 259 134" fill="none" xmlns="http://www.w3.org/2000/svg">
<path d="M249.646 42.7734L37.5047 25.2096C33.9843 24.9182 30.8948 27.5436 30.6041 31.0737L25.8894 88.3328C25.5987 91.8629 28.2169 94.9609 31.7374 95.2523L243.879 112.816C247.399 113.108 250.489 110.482 250.779 106.952L255.494 49.693C255.785 46.1629 253.166 43.0649 249.646 42.7734Z" fill="#EEE8E0" stroke="#14140B" stroke-width="1.13"/>
<path d="M242.279 114.203L256.807 109.843L243.199 103.89L240.825 84.3521L235.705 103.652L221.429 107.67L235.171 113.503L237.352 133.205L242.279 114.203Z" fill="#E77D78" stroke="#14140B" stroke-width="0.97"/>
<path d="M45.25 44.6209L69.3945 39.8442L46.0959 31.9575L52.8035 21.928L42.0298 27.285L37.281 3.08911L29.3714 26.5707L19.4138 19.681L24.9936 30.7521L0.626526 35.2163L24.1774 42.9691L17.1285 53.2069L28.199 47.597L32.651 72.0458L40.338 48.5642L50.6072 55.4539L45.25 44.6209Z" fill="#EEE8E0" stroke="#14140B" stroke-width="1.13"/>
<path d="M115.921 49.0891L125.578 49.9612L125.379 52.1659L121.89 51.8507L121.052 61.1292L118.387 60.8885L119.225 51.6101L115.736 51.295L115.935 49.0903L115.921 49.0891Z" fill="#7B2C4A"/>
<path d="M123.595 61.3587L128.512 50.2397L132.083 50.5622L134.943 62.3835L132.048 62.1221L130.096 53.2326L130.002 53.2241L126.489 61.6201L123.595 61.3587ZM132.768 57.6192L132.581 59.6886L126.36 59.1267L126.547 57.0573L132.768 57.6192Z" fill="#7B2C4A"/>
<path d="M136.872 50.9812L139.564 51.2243L139.122 56.1205L139.284 56.1351L143.581 51.587L146.773 51.8753L142.198 56.6301L145.803 63.3645L142.571 63.0725L140.061 58.2507L138.811 59.5559L138.527 62.7073L135.835 62.4643L136.871 50.9947L136.872 50.9812Z" fill="#7B2C4A"/>
<path d="M147.53 51.9436L155.483 52.6618L155.284 54.8665L150.036 54.3925L149.816 56.8271L154.658 57.2644L154.461 59.4555L149.618 59.0182L149.399 61.4528L154.646 61.9267L154.447 64.1314L146.494 63.4131L147.53 51.9436Z" fill="#7B2C4A"/>
<path d="M159.288 62.6185L163.815 59.3047C164.21 58.9995 164.52 58.7411 164.757 58.5308C164.994 58.3204 165.179 58.0916 165.322 57.8591C165.466 57.6266 165.543 57.3745 165.569 57.0905C165.597 56.7794 165.554 56.5028 165.426 56.2594C165.298 56.0161 165.124 55.8231 164.88 55.6647C164.635 55.5062 164.356 55.4265 164.046 55.3849C163.708 55.3543 163.418 55.3963 163.162 55.5096C162.906 55.6228 162.7 55.7951 162.542 56.0263C162.385 56.2576 162.29 56.5625 162.259 56.9007L159.689 56.6686C159.759 55.8977 159.994 55.2508 160.397 54.7145C160.8 54.1782 161.326 53.7893 161.99 53.5357C162.654 53.282 163.411 53.2004 164.25 53.2761C165.088 53.3518 165.846 53.5702 166.47 53.9129C167.093 54.2556 167.557 54.7065 167.847 55.2646C168.138 55.8226 168.274 56.4348 168.212 57.1111C168.171 57.5709 168.036 58.0087 167.822 58.4121C167.609 58.8155 167.255 59.2608 166.748 59.7333C166.242 60.2057 165.55 60.7705 164.674 61.414L163.091 62.6346L163.085 62.7023L167.819 63.1298L167.621 65.3209L159.141 64.555L159.316 62.6074L159.288 62.6185Z" fill="#7B2C4A"/>
<path d="M170.324 58.0381C170.12 57.8833 169.959 57.7051 169.844 57.463C169.73 57.2208 169.696 56.986 169.721 56.7155C169.744 56.4585 169.819 56.2335 169.974 56.0293C170.129 55.8251 170.32 55.6651 170.548 55.5629C170.775 55.4607 171.025 55.4151 171.282 55.4383C171.539 55.4615 171.762 55.5499 171.968 55.6912C172.173 55.8325 172.333 56.0242 172.449 56.2528C172.565 56.4814 172.611 56.7174 172.588 56.9744C172.564 57.2449 172.475 57.4688 172.319 57.6865C172.163 57.9042 171.973 58.0506 171.744 58.1663C171.516 58.282 171.281 58.3154 171.024 58.2922C170.767 58.269 170.53 58.1794 170.324 58.0381ZM169.789 63.9622C169.585 63.8074 169.424 63.6292 169.309 63.3871C169.195 63.1449 169.161 62.9101 169.186 62.6396C169.209 62.3826 169.284 62.1576 169.439 61.9534C169.594 61.7492 169.785 61.5892 170.013 61.4871C170.24 61.3849 170.49 61.3392 170.747 61.3624C171.004 61.3856 171.227 61.474 171.433 61.6153C171.638 61.7566 171.798 61.9483 171.914 62.1769C172.03 62.4055 172.076 62.6416 172.053 62.8986C172.029 63.1691 171.94 63.3929 171.784 63.6106C171.628 63.8283 171.438 63.9747 171.209 64.0905C170.981 64.2062 170.746 64.2395 170.489 64.2163C170.232 64.1931 169.995 64.1035 169.789 63.9622Z" fill="#7B2C4A"/>
<path d="M88.7006 77.3655L75.4187 76.1661L75.5824 74.3537L88.8778 75.5544L88.7141 77.3668L88.7006 77.3655ZM87.4519 73.9802L77.2131 73.0556L77.7481 67.1314L87.9869 68.0561L87.4519 73.9802ZM79.6061 71.4717L85.3273 71.9884L85.5386 69.6485L79.8174 69.1319L79.6061 71.4717ZM82.7055 81.5421L80.4468 81.3381L80.9268 76.0226L83.1856 76.2266L82.7055 81.5421Z" fill="#7B2C4A"/>
<path d="M98.3194 71.5664L89.7037 70.7883L89.8637 69.0165L98.4794 69.7946L98.3194 71.5664ZM95.8275 72.1322C96.3601 72.4258 96.7488 72.8018 97.0208 73.2627C97.2928 73.7236 97.3964 74.2375 97.3463 74.792C97.2963 75.3465 97.1035 75.82 96.7546 76.2112C96.4056 76.6024 95.9558 76.9027 95.3805 77.0825C94.8052 77.2624 94.172 77.3279 93.4822 77.2656C92.7924 77.2033 92.1677 77.0242 91.6339 76.7442C91.1002 76.4642 90.6979 76.0869 90.4247 75.6396C90.1514 75.1922 90.0331 74.6906 90.0832 74.1361C90.1333 73.5815 90.3408 73.0957 90.6909 72.691C91.0411 72.2863 91.5045 71.9873 92.081 71.7939C92.6575 71.6005 93.2907 71.535 93.994 71.5985C94.6973 71.662 95.3085 71.8399 95.8275 72.1322ZM93.1526 81.2175L90.8668 81.0111L91.1587 77.7785L93.4445 77.9849L93.1526 81.2175ZM100.782 82.9564L90.7592 82.0513L90.9241 80.2254L100.946 81.1305L100.782 82.9564ZM93.068 73.3966C92.8443 73.4582 92.671 73.5653 92.5469 73.7313C92.4228 73.8974 92.3369 74.0942 92.3149 74.3376C92.2929 74.5811 92.3299 74.7753 92.437 74.9486C92.544 75.1219 92.6954 75.2583 92.8909 75.3578C93.0865 75.4572 93.3398 75.521 93.6238 75.5467C93.9078 75.5723 94.1685 75.555 94.3922 75.4934C94.616 75.4317 94.8028 75.3259 94.9392 75.1746C95.0756 75.0233 95.1468 74.8388 95.1687 74.5953C95.1907 74.3519 95.1549 74.1441 95.0491 73.9573C94.9433 73.7705 94.7919 73.6341 94.5693 73.5322C94.3467 73.4302 94.1069 73.3677 93.8229 73.342C93.5389 73.3164 93.2782 73.3338 93.068 73.3966ZM95.2511 70.3621L92.9653 70.1556L93.1754 67.8293L95.4611 68.0357L95.2511 70.3621ZM100.621 79.4511L98.3351 79.2447L99.3147 68.3973L101.6 68.6038L100.621 79.4511ZM102.92 74.9817L100.391 74.7533L100.559 72.8868L103.088 73.1152L102.92 74.9817Z" fill="#7B2C4A"/>
<path d="M112.021 72.8037L103.405 72.0256L103.565 70.2538L112.181 71.0319L112.021 72.8037ZM109.529 73.3695C110.061 73.6631 110.45 74.0391 110.722 74.5C110.994 74.9609 111.098 75.4748 111.048 76.0293C110.997 76.5838 110.805 77.0573 110.456 77.4485C110.107 77.8397 109.657 78.14 109.082 78.3198C108.506 78.4997 107.873 78.5652 107.183 78.5029C106.494 78.4406 105.869 78.2615 105.335 77.9815C104.801 77.7015 104.399 77.3242 104.126 76.8769C103.853 76.4295 103.734 75.9279 103.784 75.3734C103.835 74.8188 104.042 74.333 104.392 73.9283C104.742 73.5236 105.206 73.2246 105.782 73.0312C106.359 72.8378 106.992 72.7723 107.695 72.8358C108.399 72.8993 109.01 73.0772 109.529 73.3695ZM106.854 82.4548L104.568 82.2484L104.86 79.0158L107.146 79.2222L106.854 82.4548ZM114.483 84.1937L104.46 83.2886L104.625 81.4627L114.648 82.3678L114.483 84.1937ZM106.769 74.6339C106.546 74.6955 106.372 74.8026 106.248 74.9686C106.124 75.1347 106.038 75.3315 106.016 75.5749C105.994 75.8184 106.031 76.0126 106.138 76.1859C106.245 76.3592 106.397 76.4956 106.592 76.5951C106.788 76.6945 107.041 76.7583 107.325 76.784C107.609 76.8096 107.87 76.7923 108.093 76.7307C108.317 76.669 108.504 76.5632 108.64 76.4119C108.777 76.2606 108.848 76.0761 108.87 75.8326C108.892 75.5892 108.856 75.3814 108.75 75.1946C108.644 75.0078 108.493 74.8714 108.271 74.7695C108.048 74.6676 107.808 74.605 107.524 74.5793C107.24 74.5537 106.979 74.5711 106.769 74.6339ZM108.952 71.5994L106.666 71.3929L106.877 69.0666L109.162 69.273L108.952 71.5994ZM114.322 80.6884L112.036 80.482L113.016 69.6346L115.302 69.8411L114.322 80.6884ZM116.621 76.219L114.092 75.9906L114.26 74.1241L116.79 74.3525L116.621 76.219Z" fill="#7B2C4A"/>
<path d="M133.236 79.7648L120.036 78.5727L120.202 76.7332L133.403 77.9253L133.236 79.7648ZM129.215 80.5061C129.98 80.7934 130.561 81.1594 130.942 81.6166C131.323 82.0737 131.495 82.5937 131.442 83.1753C131.391 83.7434 131.13 84.2107 130.673 84.5922C130.216 84.9736 129.579 85.2297 128.774 85.3888C127.969 85.5479 127.039 85.573 125.971 85.4765C124.902 85.38 124.006 85.19 123.242 84.8892C122.479 84.5884 121.898 84.2224 121.517 83.7652C121.135 83.3081 120.963 82.8016 121.014 82.2336C121.065 81.6655 121.328 81.1711 121.785 80.7897C122.242 80.4082 122.88 80.1386 123.684 79.993C124.488 79.8475 125.418 79.8223 126.473 79.9176C127.528 80.0129 128.451 80.2054 129.216 80.4926L129.215 80.5061ZM131.262 73.6959L122.024 72.8616L122.185 71.0763L131.423 71.9105L131.262 73.6959ZM124.7 81.5847C124.26 81.6267 123.924 81.7191 123.679 81.8607C123.435 82.0022 123.322 82.1965 123.3 82.44C123.278 82.6835 123.37 82.8691 123.572 83.0509C123.774 83.2328 124.089 83.3703 124.515 83.477C124.942 83.5837 125.479 83.6731 126.129 83.7318C126.778 83.7904 127.322 83.7987 127.761 83.7701C128.2 83.7416 128.549 83.6504 128.793 83.5224C129.036 83.3944 129.163 83.2013 129.183 82.9713C129.204 82.7414 129.116 82.5152 128.9 82.3321C128.685 82.1491 128.371 81.998 127.932 81.8766C127.493 81.7551 126.969 81.6669 126.32 81.6083C125.671 81.5496 125.14 81.5426 124.7 81.5847ZM127.192 77.8417L124.933 77.6378L125.2 74.6892L127.458 74.8932L127.192 77.8417ZM132.283 73.2563C132.214 74.0273 132.126 74.7011 132.02 75.2643C131.915 75.8274 131.752 76.4263 131.517 77.0597L129.292 76.6405C129.512 76.0059 129.658 75.4464 129.759 74.9373C129.859 74.4283 129.928 73.8208 130.005 73.1187L130.123 71.8068L132.409 72.0132L132.296 73.2711L132.283 73.2563Z" fill="#7B2C4A"/>
<path d="M140.866 76.813C140.258 77.8081 139.407 78.6311 138.325 79.2834C137.244 79.9357 135.948 80.3914 134.437 80.664L133.653 78.7796C134.844 78.5736 135.869 78.2435 136.699 77.8139C137.529 77.3843 138.175 76.87 138.625 76.2697C139.074 75.6694 139.326 74.9967 139.393 74.2528L139.497 73.1032L141.958 73.3255C141.839 74.651 141.474 75.818 140.866 76.813ZM140.614 75.0722L134.69 74.5372L134.858 72.6842L140.782 73.2192L140.614 75.0722ZM137.579 85.2839L135.266 85.075L135.631 81.0309L137.944 81.2398L137.579 85.2839ZM145.172 86.965L135.177 86.0624L135.342 84.2365L145.337 85.1391L145.172 86.965ZM145.098 82.9495L142.785 82.7406L143.721 72.3802L146.034 72.589L145.098 82.9495ZM147.385 78.6153L144.856 78.3869L145.024 76.5204L147.554 76.7488L147.385 78.6153Z" fill="#7B2C4A"/>
<path d="M155.517 80.5226C155.133 81.6061 154.612 82.5408 153.925 83.3515C153.238 84.1621 152.436 84.7442 151.476 85.1074L150.286 83.1864C151.145 82.8822 151.855 82.4146 152.445 81.7724C153.035 81.1303 153.498 80.3812 153.818 79.5511C154.139 78.721 154.357 77.8135 154.444 76.8532L154.543 75.7576L156.342 75.9201L156.243 77.0156C156.128 78.287 155.886 79.4515 155.502 80.535L155.517 80.5226ZM159.742 77.0726L151.559 76.3336L151.724 74.5077L159.907 75.2466L159.742 77.0726ZM156.928 79.6956C157.097 80.5426 157.422 81.3219 157.89 82.0323C158.357 82.7427 158.988 83.3042 159.782 83.7304L158.294 85.4095C157.413 84.8937 156.698 84.2019 156.178 83.3231C155.657 82.4443 155.31 81.4584 155.121 80.3778C154.932 79.2972 154.902 78.1218 155.014 76.8774L155.113 75.7819L156.899 75.9431L156.8 77.0387C156.717 77.9584 156.76 78.835 156.929 79.682L156.928 79.6956ZM161.454 80.9089L158.492 80.6414L158.66 78.7884L161.622 79.0559L161.454 80.9089ZM162.515 88.7906L160.23 88.5842L161.547 73.9903L163.833 74.1967L162.515 88.7906Z" fill="#7B2C4A"/>
<path d="M170.558 85.4943L168.272 85.2878L169.091 76.2258L171.376 76.4323L170.558 85.4943ZM172.959 84.2793C174.049 84.2823 175.158 84.2325 176.246 84.1126L176.308 85.9999C175.205 86.1321 174.081 86.1942 172.965 86.1752C171.848 86.1562 170.68 86.1053 169.476 85.9966L168.218 85.883L168.388 84.0029L169.646 84.1165C170.755 84.2167 171.854 84.275 172.945 84.2781L172.959 84.2793ZM178.661 81.8353L174.224 81.4347L174.391 79.5952L178.827 79.9959L178.661 81.8353ZM179.545 90.3148L177.259 90.1083L178.577 75.5144L180.863 75.7209L179.545 90.3148Z" fill="#7B2C4A"/>
<path d="M188.777 87.5898L181.717 86.9522L182.6 77.1734L189.66 77.811L188.777 87.5898ZM184.147 85.4127L186.716 85.6447L187.282 79.3825L184.712 79.1504L184.147 85.4127ZM192.611 83.6408L188.769 83.2939L188.934 81.468L192.776 81.8149L192.611 83.6408ZM193.217 91.577L190.944 91.3718L192.262 76.7779L194.535 76.9831L193.217 91.577Z" fill="#7B2C4A"/>
<path d="M208.022 91.305L194.727 90.1043L194.895 88.2378L208.191 89.4385L208.022 91.305ZM207.178 84.0427L199.144 83.3172L198.933 85.6571L196.661 85.4519L197.032 81.3402L205.093 82.0682L205.216 80.7021L197.128 79.9717L197.292 78.1593L207.625 79.0925L207.178 84.0427ZM207.223 87.3194L196.565 86.3569L196.731 84.5174L207.389 85.4799L207.223 87.3194ZM202.575 89.7222L200.329 89.5194L200.636 86.1245L202.881 86.3273L202.575 89.7222Z" fill="#7B2C4A"/>
</svg>
