<svg width="233" height="98" viewBox="0 0 233 98" fill="none" xmlns="http://www.w3.org/2000/svg">
<path d="M218.038 1.05043L6.7837 27.248C3.278 27.6827 0.787528 30.8849 1.22108 34.4002L8.25342 91.4198C8.68698 94.9351 11.8804 97.4324 15.3861 96.9977L226.64 70.8001C230.146 70.3654 232.636 67.1632 232.203 63.6479L225.17 6.62831C224.737 3.11299 221.543 0.615694 218.038 1.05043Z" fill="#EEE8E0" stroke="#14140B" stroke-width="1.13"/>
<path d="M212.154 57.3687C216.226 58.2695 218.813 62.3312 217.915 66.4145L214.948 79.8995L200.167 76.6298L203.133 63.1448C204.032 59.0615 208.082 56.468 212.154 57.3687Z" fill="#CCB292" stroke="#14140B" stroke-width="0.95"/>
<path d="M204.011 94.3908C199.938 93.4901 197.352 89.4283 198.25 85.3451L200.84 73.5748L215.621 76.8444L213.032 88.6147C212.133 92.698 208.083 95.2916 204.011 94.3908Z" fill="#EEE8E0" stroke="#14140B" stroke-width="0.95"/>
<path d="M24.9593 13.5643C28.0203 11.2831 32.3598 11.9241 34.6347 14.9935L42.1413 25.1214L31.0406 33.3942L23.534 23.2663C21.259 20.1968 21.8983 15.8455 24.9593 13.5643Z" fill="#937963" stroke="#14140B" stroke-width="0.95"/>
<path d="M45.5654 41.39C42.5044 43.6713 38.165 43.0303 35.89 39.9608L29.3307 31.1109L40.4314 22.8381L46.9907 31.6881C49.2657 34.7575 48.6265 39.1088 45.5654 41.39Z" fill="#F6B360" stroke="#14140B" stroke-width="0.95"/>
<path d="M87.2781 34.1045L96.9562 32.8361L97.2458 35.0455L93.7486 35.5038L94.9673 44.8024L92.297 45.1524L91.0783 35.8538L87.5812 36.3121L87.2916 34.1027L87.2781 34.1045Z" fill="#825E3D"/>
<path d="M97.5139 44.4549L99.8977 32.4506L103.476 31.9816L108.886 42.9644L105.986 43.3446L102.112 35.0419L102.018 35.0544L100.415 44.0747L97.5139 44.4549ZM105.702 38.7629L105.974 40.8368L99.7389 41.6539L99.4671 39.5801L105.702 38.7629Z" fill="#825E3D"/>
<path d="M108.288 31.3511L110.985 30.9976L111.628 35.9044L111.791 35.8831L115.011 30.4699L118.21 30.0507L114.763 35.728L119.786 41.5498L116.546 41.9744L113.02 37.7901L112.08 39.3473L112.494 42.5056L109.796 42.8591L108.288 31.3511Z" fill="#825E3D"/>
<path d="M118.956 29.9529L126.926 28.9083L127.215 31.1177L121.956 31.807L122.276 34.2469L127.129 33.6109L127.416 35.8068L122.564 36.4427L122.883 38.8826L128.143 38.1933L128.432 40.4028L120.462 41.4473L118.956 29.9529Z" fill="#825E3D"/>
<path d="M138.368 39.1008L135.657 39.4561L134.483 30.4964L134.415 30.5053L132.049 32.4423L131.74 30.0838L134.34 27.9368L136.861 27.6064L138.368 39.1008Z" fill="#825E3D"/>
<path d="M140.41 31.2221C140.175 31.115 139.978 30.9754 139.812 30.7628C139.646 30.5501 139.562 30.3268 139.526 30.0557C139.493 29.7982 139.517 29.5606 139.624 29.326C139.731 29.0913 139.884 28.892 140.085 28.7416C140.286 28.5912 140.521 28.4914 140.778 28.4577C141.036 28.4239 141.275 28.4615 141.508 28.5551C141.741 28.6486 141.94 28.8018 142.104 29.0009C142.268 29.2 142.366 29.4215 142.4 29.6791C142.436 29.9502 142.398 30.1895 142.293 30.4377C142.187 30.6859 142.032 30.8716 141.833 31.0356C141.634 31.1996 141.411 31.284 141.153 31.3177C140.896 31.3515 140.643 31.3157 140.41 31.2221ZM141.188 37.1591C140.954 37.052 140.756 36.9124 140.59 36.6998C140.424 36.4871 140.34 36.2638 140.305 35.9927C140.271 35.7351 140.295 35.4976 140.402 35.263C140.509 35.0283 140.662 34.829 140.863 34.6786C141.064 34.5282 141.299 34.4284 141.557 34.3947C141.814 34.3609 142.053 34.3985 142.286 34.4921C142.519 34.5856 142.718 34.7388 142.882 34.9379C143.046 35.137 143.144 35.3585 143.178 35.6161C143.214 35.8872 143.176 36.1265 143.071 36.3747C142.965 36.6229 142.811 36.8086 142.611 36.9726C142.412 37.1366 142.189 37.221 141.931 37.2547C141.674 37.2885 141.421 37.2527 141.188 37.1591Z" fill="#825E3D"/>
<path d="M62.7415 63.9168C62.5517 64.7828 62.1714 65.5633 61.6296 66.2686C61.0878 66.9738 60.3621 67.5377 59.4659 67.9585L58.0521 66.3238C58.8199 65.975 59.4243 65.5373 59.8908 64.9936C60.3572 64.4499 60.6692 63.8851 60.8251 63.2856C60.9809 62.6861 61.0365 62.0584 60.9548 61.4348L60.7984 60.242L62.7097 59.9915L62.866 61.1844C62.9903 62.1332 62.9449 63.0491 62.7551 63.9151L62.7415 63.9168ZM66.0785 60.7633L58.0811 61.8115L57.8431 59.9951L65.8404 58.947L66.0785 60.7633ZM63.5557 71.9172L61.2378 72.221L60.728 68.3308L63.0458 68.027L63.5557 71.9172ZM71.6025 71.7726L61.3551 73.1156L61.1152 71.2857L71.3627 69.9427L71.6025 71.7726ZM63.8607 62.7774C64.1622 63.2894 64.5921 63.7294 65.1658 64.1092C65.7395 64.489 66.4192 64.7309 67.2356 64.8583L66.3044 66.8003C65.3454 66.6364 64.5277 66.2886 63.8395 65.7721C63.1514 65.2557 62.6135 64.623 62.2105 63.8623C61.8074 63.1017 61.5482 62.2808 61.4274 61.3591L61.2711 60.1663L63.1281 59.9229L63.2844 61.1157C63.3608 61.6986 63.5574 62.2519 63.8589 62.7639L63.8607 62.7774ZM70.732 67.971L68.4412 68.2712L67.068 57.7934L69.3587 57.4932L70.732 67.971Z" fill="#825E3D"/>
<path d="M76.1197 60.6879C75.9263 61.5267 75.5443 62.2938 74.9989 62.9719C74.4535 63.65 73.7107 64.1886 72.7974 64.584L71.4378 62.9423C72.2073 62.607 72.8271 62.1811 73.2854 61.6798C73.7436 61.1786 74.0438 60.6291 74.215 60.0414C74.3861 59.4536 74.42 58.8701 74.34 58.2602L74.1961 57.1622L76.0938 56.9135L76.2377 58.0114C76.3603 58.9467 76.3113 59.8355 76.1197 60.6879ZM84.6365 67.7064L77.0323 68.703L77.2064 70.0314L74.9698 70.3245L74.5754 67.3153L82.1255 66.3258L82.0384 65.6616L74.4613 66.6547L74.2321 64.9061L84.1 63.6128L84.6365 67.7064ZM85.314 70.1407L75.1344 71.4749L74.9017 69.6992L85.0813 68.365L85.314 70.1407ZM77.2713 59.5856C77.571 60.0841 77.9974 60.497 78.5386 60.8397C79.0799 61.1824 79.7714 61.4088 80.586 61.5227L79.7054 63.4305C78.7364 63.2955 77.9087 62.9766 77.2106 62.489C76.5124 62.0014 75.9781 61.3959 75.5786 60.6623C75.1792 59.9288 74.9199 59.1079 74.8009 58.1998L74.657 57.1018L76.5682 56.8513L76.7121 57.9493C76.7903 58.5457 76.9715 59.0872 77.2713 59.5856ZM84.0065 63.0047L81.7293 63.3031L80.77 55.9835L83.0472 55.6851L84.0065 63.0047Z" fill="#825E3D"/>
<path d="M99.0534 62.9355L85.7697 64.6764L85.5334 62.8737L98.8171 61.1327L99.0534 62.9355ZM94.1159 55.0343C94.9612 55.1716 95.6291 55.4288 96.1233 55.8328C96.6174 56.2368 96.9172 56.7353 96.9971 57.3452C97.077 57.9552 96.9312 58.5258 96.5443 59.0453C96.1574 59.5648 95.5936 59.9971 94.8141 60.3613C94.0346 60.7254 93.1153 60.97 92.058 61.1086C91.0007 61.2471 90.0224 61.2513 89.1889 61.0985C88.3554 60.9458 87.6721 60.6769 87.178 60.2729C86.6838 59.8688 86.3823 59.3569 86.3024 58.7469C86.2224 58.1369 86.3683 57.5663 86.7569 57.0604C87.1456 56.5544 87.723 56.1203 88.4907 55.7715C89.2585 55.4227 90.1913 55.1764 91.2621 55.036C92.333 54.8957 93.2842 54.8951 94.1159 55.0343ZM90.1309 68.0757L87.8401 68.3759L87.4422 65.3396L89.7329 65.0394L90.1309 68.0757ZM98.2103 68.2852L88.0171 69.6212L87.7773 67.7913L97.9705 66.4554L98.2103 68.2852ZM89.8896 57.1875C89.453 57.3275 89.1454 57.5057 88.9398 57.7256C88.7343 57.9456 88.6543 58.1767 88.6898 58.4478C88.7253 58.7189 88.864 58.9351 89.1175 59.0811C89.371 59.2271 89.7277 59.3183 90.1721 59.3427C90.6165 59.3672 91.1793 59.3486 91.8282 59.2498C92.4788 59.1645 93.0157 59.0528 93.4388 58.9146C93.8619 58.7764 94.183 58.5965 94.3903 58.39C94.5976 58.1836 94.6777 57.9525 94.6403 57.6679C94.603 57.3832 94.468 57.1941 94.2127 57.0346C93.9574 56.875 93.6025 56.7974 93.1563 56.7594C92.7101 56.7213 92.149 56.7535 91.512 56.837C90.8613 56.9223 90.3263 57.0476 89.9032 57.1857L89.8896 57.1875Z" fill="#825E3D"/>
<path d="M107.828 53.8297C108.468 54.0768 108.985 54.4502 109.412 54.9733C109.839 55.4964 110.085 56.1121 110.193 56.8288C110.286 57.5336 110.195 58.2073 109.917 58.8228C109.639 59.4383 109.237 59.946 108.683 60.3495C108.129 60.753 107.513 60.9991 106.795 61.0933C106.077 61.1875 105.378 61.1136 104.739 60.8665C104.099 60.6193 103.566 60.2342 103.153 59.7093C102.739 59.1844 102.48 58.5704 102.386 57.852C102.291 57.1336 102.371 56.4752 102.648 55.8597C102.926 55.2443 103.328 54.7365 103.884 54.3466C104.44 53.9567 105.082 53.707 105.814 53.6111C106.546 53.5151 107.191 53.5961 107.828 53.8297ZM105.206 55.9106C104.966 56.0799 104.776 56.3117 104.66 56.5888C104.545 56.8658 104.506 57.2018 104.554 57.5678C104.602 57.9338 104.726 58.2484 104.911 58.5C105.096 58.7515 105.339 58.9264 105.614 59.0282C105.89 59.13 106.199 59.1723 106.537 59.1279C106.863 59.0852 107.137 58.9666 107.377 58.7973C107.616 58.628 107.791 58.3845 107.907 58.1074C108.022 57.8303 108.047 57.4961 107.997 57.1166C107.948 56.737 107.839 56.4341 107.656 56.1962C107.473 55.9582 107.243 55.7815 106.968 55.6797C106.693 55.5779 106.386 55.5492 106.076 55.6036C105.737 55.648 105.446 55.7413 105.206 55.9106ZM108.237 66.1022L105.947 66.4024L105.435 62.4986L107.726 62.1984L108.237 66.1022ZM116.172 65.9447L106.074 67.2681L105.834 65.4383L115.932 64.1148L116.172 65.9447ZM113.374 57.4321L109.728 57.91L109.487 56.0665L113.133 55.5887L113.374 57.4321ZM115.362 62.2868L113.085 62.5853L111.69 51.9448L113.967 51.6463L115.362 62.2868Z" fill="#825E3D"/>
<path d="M120.186 58.0702C120.106 59.1424 119.89 60.1221 119.524 61.0111C119.158 61.9001 118.633 62.6307 117.936 63.2046L116.347 61.7032C116.981 61.1789 117.464 60.5503 117.809 59.8157C118.154 59.0811 118.356 58.3101 118.428 57.4872C118.499 56.6644 118.486 55.8251 118.37 54.9441L118.186 53.5344L119.907 53.3088L120.092 54.7185C120.245 55.8842 120.28 56.9963 120.2 58.0685L120.186 58.0702ZM122.548 53.7898L116.015 54.6461L115.777 52.8298L122.31 51.9735L122.548 53.7898ZM121.142 57.0488C121.417 57.7848 121.793 58.4388 122.296 59.0208C122.8 59.6028 123.422 60.0315 124.166 60.3475L123.058 62.2024C122.24 61.8546 121.537 61.3263 120.973 60.6006C120.409 59.8748 119.955 59.0381 119.622 58.0753C119.289 57.1124 119.054 56.0541 118.901 54.8883L118.716 53.4786L120.397 53.2584L120.582 54.6681C120.695 55.5356 120.881 56.3246 121.157 57.0606L121.142 57.0488ZM124.325 57.1418L121.994 57.4473L121.754 55.6174L124.085 55.3119L124.325 57.1418ZM126.812 64.1233L124.67 64.404L122.872 50.6865L125.014 50.4058L126.812 64.1233ZM129.891 64.3677L127.736 64.6502L125.824 50.0653L127.979 49.7828L129.891 64.3677Z" fill="#825E3D"/>
<path d="M133.146 59.7494L130.869 60.0479L129.681 50.9798L131.958 50.6813L133.146 59.7494ZM135.303 58.0053C136.416 57.763 137.519 57.4529 138.616 57.0885L139.107 58.9407C138.026 59.3168 136.908 59.6287 135.767 59.861C134.625 60.0933 133.453 60.3021 132.247 60.4602L130.946 60.6308L130.7 58.7602L132.002 58.5897C133.1 58.4458 134.204 58.2459 135.317 58.0035L135.303 58.0053ZM142.55 62.6947L140.259 62.9949L138.351 48.4371L140.642 48.1369L142.55 62.6947ZM143.563 55.1718L141.001 55.5075L140.758 53.6505L143.319 53.3148L143.563 55.1718Z" fill="#825E3D"/>
<path d="M155.106 50.2532L146.58 51.3706L146.34 49.5407L154.866 48.4233L155.106 50.2532ZM152.936 51.682C153.558 51.9038 154.06 52.2654 154.456 52.7649C154.853 53.2645 155.094 53.8396 155.183 54.5173C155.271 55.1951 155.189 55.8264 154.933 56.3976C154.677 56.9689 154.271 57.4495 153.741 57.8223C153.21 58.1951 152.579 58.4295 151.874 58.5219C151.17 58.6143 150.486 58.5522 149.877 58.3286C149.269 58.105 148.767 57.7435 148.372 57.2575C147.977 56.7715 147.735 56.1828 147.646 55.5051C147.557 54.8273 147.642 54.2096 147.896 53.6248C148.15 53.0399 148.542 52.5611 149.073 52.1883C149.603 51.8155 150.234 51.5811 150.952 51.487C151.671 51.3928 152.314 51.4602 152.936 51.682ZM150.394 53.6421C150.168 53.8096 150.016 54.0225 149.913 54.2842C149.809 54.546 149.782 54.8666 149.827 55.2055C149.871 55.5444 149.98 55.8472 150.147 56.0735C150.315 56.2997 150.529 56.4646 150.778 56.5699C151.026 56.6753 151.317 56.6922 151.631 56.6649C151.943 56.624 152.205 56.5207 152.418 56.355C152.63 56.1892 152.797 55.9881 152.899 55.7128C153.001 55.4375 153.031 55.144 152.985 54.7916C152.939 54.4391 152.834 54.1634 152.664 53.9236C152.495 53.6838 152.28 53.5189 152.034 53.4271C151.788 53.3353 151.492 53.2913 151.194 53.3304C150.882 53.3713 150.62 53.4746 150.394 53.6421ZM151.849 49.4943L149.559 49.7945L149.225 47.2462L151.515 46.946L151.849 49.4943ZM159.603 60.4733L157.353 60.7682L155.441 46.1833L157.692 45.8884L159.603 60.4733ZM160.734 53.1141L158.172 53.4499L157.927 51.5793L160.489 51.2436L160.734 53.1141Z" fill="#825E3D"/>
<path d="M163.943 55.7133L161.666 56.0118L160.477 46.9436L162.754 46.6452L163.943 55.7133ZM166.1 53.9692C167.212 53.7268 168.316 53.4167 169.412 53.0524L169.903 54.9045C168.822 55.2807 167.705 55.5925 166.563 55.8249C165.422 56.0572 164.25 56.266 163.043 56.4241L161.742 56.5946L161.497 54.7241L162.798 54.5535C163.896 54.4096 165 54.2097 166.113 53.9674L166.1 53.9692ZM173.346 58.6586L171.055 58.9588L169.147 44.401L171.438 44.1008L173.346 58.6586ZM174.359 51.1356L171.797 51.4714L171.554 49.6144L174.116 49.2786L174.359 51.1356Z" fill="#825E3D"/>
<path d="M176.832 56.6437C176.597 56.5366 176.4 56.3971 176.234 56.1844C176.068 55.9717 175.984 55.7484 175.962 55.4755C175.928 55.218 175.952 54.9804 176.046 54.7476C176.139 54.5147 176.292 54.3154 176.507 54.1632C176.721 54.011 176.943 53.9131 177.2 53.8793C177.458 53.8455 177.697 53.8831 177.93 53.9767C178.163 54.0703 178.362 54.2234 178.526 54.4225C178.69 54.6216 178.788 54.8431 178.822 55.1007C178.857 55.3718 178.82 55.6111 178.714 55.8593C178.609 56.1075 178.454 56.2932 178.255 56.4572C178.056 56.6212 177.819 56.7074 177.575 56.7394C177.331 56.7713 177.065 56.7373 176.832 56.6437ZM178.234 52.9303L175.984 53.2252L174.692 45.2599L177.443 44.8993L178.234 52.9303Z" fill="#825E3D"/>
</svg>
