<svg width="244" height="94" viewBox="0 0 244 94" fill="none" xmlns="http://www.w3.org/2000/svg">
<path d="M218.77 1.13498L7.02704 23.0017C3.51322 23.3645 0.958068 26.5151 1.31995 30.0385L7.18973 87.1902C7.55161 90.7137 10.6935 93.2758 14.2073 92.913L225.951 71.0463C229.464 70.6834 232.02 67.5329 231.658 64.0095L225.788 6.85778C225.426 3.33432 222.284 0.772107 218.77 1.13498Z" fill="#EEE8E0" stroke="#14140B" stroke-width="1.13"/>
<path d="M218.864 54.8117C218.864 54.8117 230.261 59.1271 242.697 40.0353L233.912 40.1245L234.016 31.4045C234.016 31.4045 215.763 39.693 218.864 54.8117Z" fill="#F6BBC9" stroke="#14140B" stroke-width="0.94"/>
<path d="M30.4719 42.1782C40.5855 42.1782 48.7843 33.9569 48.7843 23.8155C48.7843 13.6741 40.5855 5.45288 30.4719 5.45288C20.3582 5.45288 12.1595 13.6741 12.1595 23.8155C12.1595 33.9569 20.3582 42.1782 30.4719 42.1782Z" fill="#2DAD6E" stroke="#14140B" stroke-width="0.94"/>
<path d="M88.2861 31.9006L97.9407 30.9241L98.1637 33.1281L94.675 33.481L95.6133 42.757L92.9495 43.0264L92.0112 33.7505L88.5226 34.1033L88.2997 31.8993L88.2861 31.9006Z" fill="#302C79"/>
<path d="M98.1553 42.5L100.876 30.6409L104.446 30.2798L109.5 41.3524L106.606 41.6451L103.001 33.281L102.906 33.2905L101.049 42.2073L98.1553 42.5ZM106.459 37.0839L106.669 39.1527L100.448 39.7819L100.239 37.713L106.459 37.0839Z" fill="#302C79"/>
<path d="M109.231 29.7822L111.922 29.5101L112.417 34.4049L112.58 34.3885L115.938 29.1038L119.129 28.7811L115.537 34.3216L120.358 40.2543L117.126 40.5811L113.745 36.3197L112.765 37.8395L113.083 40.9901L110.393 41.2623L109.233 29.7958L109.231 29.7822Z" fill="#302C79"/>
<path d="M119.887 28.7043L127.837 27.9001L128.06 30.1042L122.814 30.6349L123.06 33.0688L127.901 32.5792L128.122 34.7697L123.282 35.2593L123.528 37.6933L128.774 37.1626L128.997 39.3666L121.046 40.1709L119.887 28.7043Z" fill="#302C79"/>
<path d="M135.675 38.4042C134.969 38.1751 134.399 37.8092 133.954 37.3215C133.508 36.8338 133.258 36.2445 133.176 35.5698L135.907 35.2935C135.933 35.5504 136.051 35.7707 136.219 35.945C136.387 36.1193 136.633 36.2583 136.901 36.3404C137.169 36.4226 137.485 36.4453 137.81 36.4124C138.134 36.3796 138.44 36.2941 138.698 36.145C138.956 35.996 139.142 35.8132 139.269 35.5818C139.396 35.3504 139.439 35.1002 139.398 34.8311C139.371 34.5607 139.279 34.3241 139.095 34.1242C138.91 33.9242 138.663 33.7717 138.353 33.6801C138.043 33.5885 137.686 33.57 137.294 33.6096L136.172 33.7231L135.976 31.7895L137.098 31.676C137.436 31.6418 137.742 31.5563 138 31.4072C138.258 31.2582 138.445 31.0754 138.573 30.8575C138.701 30.6396 138.744 30.3894 138.717 30.119C138.691 29.8621 138.6 29.639 138.459 29.462C138.318 29.285 138.111 29.1284 137.87 29.0435C137.63 28.9586 137.352 28.9183 137.055 28.9484C136.757 28.9785 136.465 29.0627 136.221 29.2103C135.976 29.358 135.788 29.5273 135.66 29.7452C135.532 29.963 135.474 30.2011 135.486 30.4594L132.904 30.7206C132.837 30.0581 132.966 29.4439 133.291 28.8783C133.616 28.3126 134.089 27.855 134.695 27.4933C135.3 27.1315 136.03 26.921 136.841 26.839C137.653 26.7569 138.371 26.8345 139.035 27.0542C139.699 27.2739 140.226 27.6168 140.614 28.0829C141.003 28.549 141.235 29.0856 141.298 29.7076C141.34 30.1268 141.297 30.5136 141.141 30.8573C140.985 31.201 140.756 31.5109 140.427 31.7628C140.097 32.0147 139.732 32.1883 139.293 32.301L139.301 32.3821C139.889 32.3909 140.392 32.504 140.821 32.6928C141.25 32.8816 141.579 33.1625 141.819 33.5071C142.059 33.8517 142.211 34.2735 142.258 34.7467C142.324 35.3958 142.195 36.0099 141.855 36.5634C141.515 37.1169 141.015 37.5772 140.355 37.9445C139.696 38.3117 138.913 38.5411 138.034 38.63C137.155 38.7189 136.383 38.6468 135.677 38.4177L135.675 38.4042Z" fill="#302C79"/>
<path d="M143.888 30.3337C143.658 30.2204 143.466 30.0759 143.308 29.8597C143.149 29.6435 143.072 29.4191 143.044 29.1487C143.018 28.8918 143.049 28.6564 143.163 28.4264C143.276 28.1964 143.434 28.0028 143.638 27.8592C143.842 27.7157 144.079 27.6234 144.336 27.5975C144.592 27.5715 144.829 27.6158 145.058 27.7156C145.286 27.8155 145.48 27.9735 145.637 28.1761C145.794 28.3788 145.885 28.6018 145.911 28.8587C145.938 29.1292 145.894 29.3659 145.782 29.6094C145.67 29.853 145.511 30.033 145.308 30.1901C145.105 30.3472 144.881 30.4246 144.624 30.4506C144.367 30.4765 144.117 30.4336 143.888 30.3337ZM144.487 36.2563C144.257 36.143 144.065 35.9985 143.907 35.7823C143.748 35.5661 143.671 35.3417 143.644 35.0713C143.618 34.8143 143.648 34.579 143.762 34.349C143.875 34.119 144.033 33.9254 144.237 33.7818C144.441 33.6382 144.678 33.546 144.935 33.52C145.192 33.494 145.428 33.5384 145.657 33.6382C145.886 33.738 146.079 33.896 146.236 34.0987C146.393 34.3014 146.484 34.5244 146.51 34.7813C146.537 35.0517 146.493 35.2885 146.381 35.532C146.269 35.7755 146.11 35.9556 145.907 36.1127C145.704 36.2698 145.48 36.3471 145.223 36.3731C144.966 36.3991 144.716 36.3561 144.487 36.2563Z" fill="#302C79"/>
<path d="M58.638 65.744L45.346 67.0885L45.1586 65.236L58.4506 63.8915L58.638 65.744ZM53.8152 57.0932C54.6538 57.2816 55.329 57.6094 55.8258 58.0646C56.3227 58.5198 56.6127 59.0915 56.6784 59.7405C56.744 60.3896 56.573 60.9943 56.176 61.5262C55.779 62.0581 55.1831 62.5145 54.3978 62.8535C53.6125 63.1925 52.6945 63.4356 51.6533 63.5409C50.6122 63.6462 49.679 63.604 48.8403 63.4156C48.0017 63.2272 47.3414 62.9115 46.8459 62.4699C46.3505 62.0282 46.0618 61.4701 45.9961 60.821C45.9305 60.172 46.1002 59.5537 46.4958 59.0083C46.8914 58.4629 47.4873 58.0064 48.2577 57.6553C49.0281 57.3042 49.9475 57.0746 50.9886 56.9693C52.0298 56.864 52.9765 56.9048 53.8152 57.0932ZM49.5941 59.1184C49.1588 59.2717 48.8386 59.4817 48.6184 59.7362C48.3983 59.9906 48.3175 60.272 48.3503 60.5965C48.3817 60.9075 48.5173 61.167 48.7839 61.3723C49.0506 61.5776 49.405 61.7056 49.8622 61.7687C50.3193 61.8317 50.8522 61.8324 51.4742 61.7695C52.0962 61.7066 52.6316 61.5978 53.0669 61.4445C53.5021 61.2912 53.8359 61.0799 54.0439 60.8403C54.2519 60.6007 54.3462 60.3179 54.3134 59.9934C54.2806 59.6689 54.1315 59.4107 53.8784 59.2041C53.6253 58.9975 53.2559 58.8573 52.7988 58.7942C52.3416 58.7312 51.7953 58.7318 51.1719 58.7812C50.5499 58.8441 50.0159 58.9664 49.5941 59.1184ZM53.551 70.9577L51.2928 71.1861L50.7553 65.872L53.0135 65.6436L53.551 70.9577Z" fill="#302C79"/>
<path d="M66.4489 61.9351L61.865 62.3988L62.1823 65.5358L59.816 65.7752L59.3182 60.8532L63.9291 60.3868L63.7144 58.2639L59.0899 58.7317L58.9053 56.9062L65.8555 56.2032L66.4354 61.9365L66.4489 61.9351ZM64.7654 64.4686C65.8268 64.2929 66.9098 64.0605 67.9859 63.7604L68.3747 65.5788C67.3121 65.8776 66.2441 66.1222 65.157 66.3141C64.0699 66.506 62.7746 66.6644 61.2872 66.8148L59.962 66.9488L59.7733 65.0828L61.0984 64.9488C62.4777 64.8093 63.7054 64.6578 64.7803 64.4808L64.7654 64.4686ZM71.7677 69.1424L69.4961 69.3722L68.0203 54.7822L70.292 54.5524L71.7677 69.1424Z" fill="#302C79"/>
<path d="M82.7694 56.5006L78.2261 56.9601L78.9318 63.9374L76.6466 64.1685L75.7535 55.3388L82.5821 54.6481L82.7694 56.5006ZM81.2348 62.6663C82.2421 62.4961 83.2439 62.2718 84.2538 61.9921L84.69 63.874C83.6666 64.1551 82.6499 64.3672 81.6277 64.5253C80.6055 64.6833 79.3913 64.8334 77.985 64.9757L76.7275 65.1029L76.5388 63.2369L77.7963 63.1097C79.0809 62.9797 80.2275 62.8364 81.2348 62.6663ZM88.0736 67.4796L85.7884 67.7107L84.3127 53.1207L86.5979 52.8895L88.0736 67.4796ZM89.3767 59.8347L86.8211 60.0932L86.6323 58.2272L89.1879 57.9687L89.3767 59.8347Z" fill="#302C79"/>
<path d="M94.3862 58.9865C94.2158 60.1376 93.8572 61.1847 93.3092 62.1144C92.7612 63.044 92.0291 63.7738 91.0858 64.3063L89.5286 62.5514C90.3449 62.1137 90.9947 61.5152 91.4807 60.783C91.9667 60.0509 92.2917 59.2121 92.4597 58.3071C92.6277 57.4022 92.6537 56.4434 92.5524 55.4428L92.3487 53.428L94.2282 53.2379L94.432 55.2527C94.5674 56.5913 94.5445 57.8504 94.374 59.0014L94.3862 58.9865ZM95.5398 57.8317C95.868 58.6454 96.3353 59.3495 96.9432 59.9573C97.5511 60.5652 98.2778 60.9971 99.1368 61.2517L97.9828 63.2126C96.9939 62.8891 96.1467 62.3464 95.4548 61.5832C94.7629 60.8199 94.2074 59.9199 93.814 58.8668C93.4206 57.8138 93.1529 56.6524 93.0243 55.3814L92.8206 53.3666L94.6866 53.1779L94.8904 55.1927C94.9861 56.1392 95.1981 57.0193 95.5398 57.8317ZM102.462 66.0379L100.136 66.2732L98.6607 51.6831L100.986 51.4479L102.462 66.0379Z" fill="#302C79"/>
<path d="M113.491 53.3931L108.948 53.8527L109.653 60.83L107.368 61.0611L106.475 52.2313L113.304 51.5406L113.491 53.3931ZM111.956 59.5588C112.964 59.3887 113.965 59.1644 114.975 58.8846L115.412 60.7666C114.388 61.0477 113.371 61.2598 112.349 61.4179C111.327 61.5759 110.113 61.726 108.707 61.8683L107.449 61.9955L107.26 60.1295L108.518 60.0023C109.802 59.8723 110.949 59.729 111.956 59.5588ZM118.795 64.3722L116.51 64.6033L115.034 50.0132L117.319 49.7821L118.795 64.3722ZM120.098 56.7273L117.543 56.9858L117.354 55.1197L119.91 54.8612L120.098 56.7273Z" fill="#302C79"/>
<path d="M131.082 56.7365L124.01 57.4518L123.295 50.3799L130.367 49.6646L131.082 56.7365ZM128.496 62.23L126.211 62.4611L125.817 58.5668L128.102 58.3357L128.496 62.23ZM136.307 62.3414L126.287 63.3549L126.103 61.5295L136.122 60.516L136.307 62.3414ZM126.088 55.4385L128.643 55.18L128.292 51.7049L125.736 51.9634L126.088 55.4385ZM135.458 58.6708L133.173 58.9019L132.102 48.3144L134.387 48.0832L135.458 58.6708ZM136.871 53.8697L134.342 54.1255L134.154 52.2595L136.682 52.0037L136.871 53.8697Z" fill="#302C79"/>
<path d="M140.254 58.0081L137.982 58.2378L137.067 49.1917L139.339 48.9619L140.254 58.0081ZM142.448 56.3381C143.561 56.13 144.667 55.8542 145.767 55.5243L146.2 57.3792C145.115 57.7212 143.996 57.9984 142.854 58.1958C141.713 58.3932 140.542 58.5662 139.339 58.688L138.041 58.8193L137.852 56.9533L139.15 56.822C140.245 56.7112 141.349 56.5449 142.461 56.3368L142.448 56.3381ZM149.511 61.2107L147.226 61.4418L145.757 46.9194L148.042 46.6882L149.511 61.2107ZM150.739 53.7647L148.183 54.0232L147.996 52.1707L150.551 51.9122L150.739 53.7647Z" fill="#302C79"/>
<path d="M164.375 53.9288L151.083 55.2733L150.902 53.4884L164.194 52.1439L164.375 53.9288ZM155.259 59.0172L152.96 59.2497L152.654 56.2208L154.953 55.9883L155.259 59.0172ZM163.559 59.5027L153.093 60.5613L152.908 58.7359L163.374 57.6773L163.559 59.5027ZM154.551 50.7971L152.279 51.0269L151.853 46.8216L154.125 46.5918L154.551 50.7971ZM162.592 50.8854L152.369 51.9194L152.189 50.1345L162.411 49.1005L162.592 50.8854Z" fill="#302C79"/>
<path d="M174.672 49.8549C174.421 51.1507 173.876 52.3806 173.036 53.5311C172.196 54.6815 170.979 55.7472 169.413 56.7389L168.084 55.0838C169.369 54.2844 170.349 53.434 171.052 52.5569C171.756 51.6798 172.232 50.7164 172.469 49.6816C172.706 48.6468 172.764 47.4661 172.629 46.1275L172.588 45.7218L174.819 45.4961C174.98 47.0917 174.936 48.5442 174.684 49.84L174.672 49.8549ZM173.946 47.4012L168.077 47.9948L167.897 46.2099L173.765 45.6163L173.946 47.4012ZM179.119 51.0034L175.319 51.3877L175.132 49.5352L178.931 49.1509L179.119 51.0034ZM181.006 58.0523L178.748 58.2807L177.277 43.7312L179.535 43.5028L181.006 58.0523Z" fill="#302C79"/>
<path d="M188.632 45.7928L184.089 46.2523L184.794 53.2296L182.509 53.4608L181.616 44.631L188.444 43.9403L188.632 45.7928ZM187.097 51.9585C188.104 51.7883 189.106 51.564 190.116 51.2843L190.552 53.1663C189.529 53.4474 188.512 53.6595 187.49 53.8175C186.468 53.9755 185.254 54.1257 183.847 54.2679L182.59 54.3951L182.401 52.5291L183.659 52.4019C184.943 52.272 186.09 52.1287 187.097 51.9585ZM193.936 56.7718L191.651 57.003L190.175 42.4129L192.46 42.1818L193.936 56.7718ZM195.239 49.1269L192.683 49.3854L192.495 47.5194L195.05 47.2609L195.239 49.1269Z" fill="#302C79"/>
</svg>
