<svg width="219" height="64" viewBox="0 0 219 64" fill="none" xmlns="http://www.w3.org/2000/svg">
<path d="M6.62284 3.22212H2.2896V7.49284H0.68689V1.91262H6.62284V3.22212ZM4.91625 7.01665C5.70277 6.95713 6.47444 6.86786 7.23127 6.70417L7.39451 7.98393C6.86028 8.10297 6.34088 8.19224 5.80665 8.25177C5.28725 8.31129 4.7085 8.35591 4.08522 8.37079C3.46195 8.38567 2.6606 8.40057 1.68116 8.38569H0.68689V7.09108H1.68116C3.04643 7.09108 4.1149 7.06129 4.91625 7.01665ZM10.867 14.0552H9.26434V10.7517H1.9928V9.47199H10.8522V14.0552H10.867ZM9.69469 5.61792H5.94021V4.32327H9.69469V5.61792ZM10.867 8.87673H9.26434V1.03467H10.867V8.87673Z" fill="white"/>
<path d="M16.7586 5.40956C16.4767 6.15359 16.0612 6.80834 15.4973 7.35892C14.9333 7.9095 14.2655 8.32615 13.479 8.60888L12.6183 7.31428C13.3158 7.09107 13.9094 6.7488 14.3991 6.31726C14.8888 5.88572 15.245 5.3798 15.4973 4.79945C15.7347 4.23399 15.8683 3.62389 15.8683 2.98402V1.74895H17.1742V2.98402C17.1742 3.86198 17.0258 4.66555 16.7438 5.42446L16.7586 5.40956ZM21.5816 9.35291C22.2494 9.54636 22.754 9.82912 23.125 10.216C23.4811 10.588 23.6592 11.0493 23.6592 11.5702C23.6592 12.091 23.4811 12.5374 23.125 12.9094C22.7688 13.2814 22.2494 13.5641 21.5816 13.7576C20.9138 13.951 20.1273 14.0552 19.2221 14.0552C18.3168 14.0552 17.5155 13.951 16.8625 13.7576C16.1947 13.5641 15.6902 13.2814 15.334 12.9094C14.9779 12.5374 14.7998 12.091 14.7998 11.5702C14.7998 11.0493 14.9779 10.588 15.334 10.216C15.6902 9.82912 16.1947 9.54636 16.8625 9.35291C17.5303 9.15947 18.3168 9.05533 19.2221 9.05533C20.1273 9.05533 20.9286 9.15947 21.5816 9.35291ZM17.8271 4.62089C18.0646 5.1566 18.4059 5.61791 18.8659 6.03457C19.326 6.45123 19.8899 6.76368 20.5428 6.97201L19.6821 8.22202C18.9253 7.95417 18.2872 7.56726 17.7678 7.04644C17.2484 6.52562 16.8625 5.93039 16.5954 5.231C16.3283 4.53162 16.1947 3.7578 16.1947 2.92448V1.7638H17.4858V2.92448C17.4858 3.53459 17.6045 4.10009 17.8271 4.63579V4.62089ZM17.6639 10.4541C17.2484 10.5434 16.9219 10.6922 16.6993 10.8856C16.4767 11.0791 16.3728 11.3023 16.3728 11.585C16.3728 11.8677 16.4767 12.0761 16.6993 12.2546C16.9219 12.4332 17.2484 12.582 17.6639 12.6713C18.0942 12.7606 18.5988 12.8201 19.2072 12.8201C19.8157 12.8201 20.3202 12.7755 20.7506 12.6713C21.1809 12.582 21.4926 12.4332 21.7152 12.2546C21.9378 12.0761 22.0416 11.8529 22.0416 11.585C22.0416 11.3172 21.9378 11.0791 21.7152 10.8856C21.4926 10.6922 21.1809 10.5583 20.7506 10.4541C20.3202 10.3648 19.8157 10.3053 19.2072 10.3053C18.5988 10.3053 18.0794 10.3499 17.6639 10.4541ZM22.2642 4.88873H19.4298V3.57923H22.2642V4.88873ZM23.6147 8.71306H22.012V1.04956H23.6147V8.71306Z" fill="white"/>
<path d="M30.7229 2.55247C31.2275 2.92449 31.6281 3.46021 31.8953 4.1596C32.1772 4.85899 32.3108 5.66255 32.3108 6.58515C32.3108 7.50774 32.1772 8.32615 31.8953 9.02554C31.6133 9.72493 31.2275 10.2607 30.7229 10.6327C30.2184 11.0047 29.6396 11.1981 29.0015 11.1981C28.3634 11.1981 27.7698 11.0047 27.2652 10.6327C26.7607 10.2607 26.3748 9.72493 26.0929 9.02554C25.8109 8.32615 25.6625 7.52262 25.6625 6.58515C25.6625 5.64767 25.7961 4.85899 26.0929 4.1596C26.3748 3.46021 26.7755 2.92449 27.2652 2.55247C27.7698 2.18046 28.3485 1.98705 29.0015 1.98705C29.6544 1.98705 30.2184 2.18046 30.7229 2.55247ZM28.0517 3.81733C27.7846 4.0703 27.5769 4.42745 27.4136 4.90363C27.2652 5.37981 27.1762 5.94528 27.1762 6.58515C27.1762 7.22501 27.2504 7.80533 27.4136 8.28151C27.562 8.75769 27.7846 9.11484 28.0517 9.36781C28.3188 9.62078 28.6305 9.73983 28.9866 9.73983C29.3428 9.73983 29.6544 9.62078 29.9364 9.36781C30.2184 9.11484 30.4261 8.75769 30.5745 8.28151C30.7229 7.80533 30.7971 7.23989 30.7971 6.58515C30.7971 5.9304 30.7229 5.3798 30.5745 4.88874C30.4261 4.41256 30.2184 4.04057 29.9364 3.80248C29.6544 3.56439 29.3428 3.43047 28.9866 3.43047C28.6305 3.43047 28.3188 3.54951 28.0517 3.80248V3.81733ZM35.0562 5.11194H31.3017V3.80248H35.0562V5.11194ZM35.0562 9.15946H31.3017V7.86486H35.0562V9.15946ZM36.3472 14.0998H34.7594V1.03467H36.3472V14.0998Z" fill="white"/>
<path d="M42.0606 7.55237C41.7638 8.46009 41.3334 9.2785 40.7695 9.99277C40.2056 10.707 39.5675 11.2428 38.8403 11.5999L37.9054 10.335C38.5732 10.0225 39.152 9.56126 39.6714 8.95115C40.1759 8.34105 40.5766 7.67141 40.8437 6.94226C41.1108 6.21311 41.2592 5.4691 41.2592 4.72507V3.01381H42.5206V4.72507C42.5206 5.69231 42.3722 6.62978 42.0754 7.55237H42.0606ZM45.5628 3.63877H38.41V2.32927H45.5628V3.63877ZM43.2181 6.80834C43.4704 7.49285 43.8562 8.1327 44.3459 8.69816C44.8357 9.26363 45.4144 9.71007 46.0822 10.0226L45.177 11.2874C44.435 10.9452 43.7969 10.4243 43.2626 9.75472C42.7135 9.07021 42.298 8.29638 42.0012 7.4333C41.7044 6.57023 41.556 5.67741 41.556 4.75481V3.04356H42.8323V4.75481C42.8323 5.4542 42.951 6.13873 43.2181 6.82324V6.80834ZM48.3527 14.0701H46.75V1.04956H48.3527V14.0701ZM50.3561 7.47799H47.9965V6.12385H50.3561V7.47799Z" fill="white"/>
<path d="M56.1585 3.87687H52.9085V10.3201H51.3058V2.56737H56.1585V3.86197V3.87687ZM54.7041 9.60591C55.3868 9.56126 56.0991 9.47199 56.8114 9.33807L56.9301 10.6475C56.203 10.7963 55.4907 10.8856 54.7932 10.9303C54.0957 10.9749 53.2202 11.0047 52.1962 11.0047H51.3058V9.65055H52.1962C53.1905 9.65055 54.0215 9.63565 54.7041 9.59101V9.60591ZM59.0968 13.4153H57.6424V1.27276H59.0968V13.4153ZM60.9517 7.43331H58.6367V6.1387H60.9517V7.43331ZM62.0944 14.0552H60.5807V1.03467H62.0944V14.0552Z" fill="white"/>
<path d="M71.3545 3.56435H63.6377V2.29949H71.3545V3.56435ZM69.1582 4.36787C69.633 4.56132 70.004 4.84405 70.2712 5.20118C70.5383 5.55832 70.6718 5.97501 70.6718 6.45119C70.6718 6.92737 70.5383 7.34402 70.2712 7.70116C70.004 8.05829 69.633 8.34102 69.1433 8.53447C68.6536 8.72791 68.1045 8.83205 67.4961 8.83205C66.8877 8.83205 66.3237 8.72791 65.834 8.53447C65.3443 8.34102 64.9733 8.05829 64.7062 7.70116C64.4391 7.34402 64.3055 6.92737 64.3055 6.45119C64.3055 5.97501 64.4391 5.55832 64.7062 5.20118C64.9733 4.84405 65.3443 4.56132 65.834 4.36787C66.3089 4.17442 66.8728 4.07029 67.4961 4.07029C68.1194 4.07029 68.6684 4.17442 69.1433 4.36787H69.1582ZM73.8921 14.0701H72.2894V11.0939H65.2256V9.81418H73.8921V14.0701ZM66.6354 5.42443C66.3831 5.51371 66.1902 5.64762 66.0566 5.82619C65.9231 6.00475 65.8489 6.2131 65.8489 6.45119C65.8489 6.68928 65.9231 6.89757 66.0566 7.06126C66.1902 7.22494 66.3831 7.35888 66.6354 7.44817C66.8877 7.53745 67.1696 7.58209 67.4961 7.58209C67.8226 7.58209 68.1194 7.53745 68.3716 7.44817C68.6239 7.35888 68.8168 7.22494 68.9504 7.06126C69.084 6.89757 69.1582 6.68928 69.1582 6.45119C69.1582 6.2131 69.084 6.00475 68.9504 5.82619C68.8168 5.64762 68.6239 5.51371 68.3716 5.42443C68.1194 5.33514 67.8374 5.27561 67.4961 5.27561C67.1696 5.27561 66.8877 5.33514 66.6354 5.42443ZM68.2974 2.99888H66.6947V0.975098H68.2974V2.99888ZM73.8772 9.20407H72.2745V1.03463H73.8772V9.20407ZM75.7025 5.81129H73.432V4.48694H75.7025V5.81129Z" fill="white"/>
<path d="M88.2126 12.3886H76.3704V11.0791H88.2126V12.3886ZM85.8828 3.51975H77.5576V2.2251H85.8828V3.51975ZM80.6146 11.5255H79.0119V6.91252H80.6146V11.5255ZM83.8497 11.5255H82.2767V6.91252H83.8497V11.5255ZM87.0254 3.62388C87.0254 4.33815 87.0254 4.94825 86.9958 5.48395C86.9809 6.00477 86.9364 6.61488 86.8622 7.29939C86.788 7.98389 86.6841 8.71305 86.5357 9.48684L84.9627 9.33807C85.0962 8.60892 85.2001 7.90949 85.2743 7.25475C85.3337 6.6 85.3782 6.01968 85.393 5.51374C85.4079 5.0078 85.4227 4.38282 85.4227 3.65367V2.23999H87.0254V3.63877V3.62388Z" fill="white"/>
<path d="M95.9591 7.4482C95.7365 8.35592 95.41 9.15949 94.9648 9.88864C94.5196 10.6178 93.9854 11.1684 93.3473 11.5702L92.3678 10.3946C92.9763 10.0226 93.4808 9.53147 93.8963 8.92136C94.3119 8.31126 94.6087 7.64167 94.8016 6.91252C94.9945 6.18337 95.0835 5.42446 95.0835 4.63579V3.16258H96.3004V4.63579C96.3004 5.63279 96.1817 6.57027 95.9591 7.47799V7.4482ZM98.7193 3.74294H92.813V2.44834H98.7193V3.74294ZM96.894 6.80834C97.0869 7.50773 97.3689 8.1476 97.7696 8.71306C98.1554 9.27852 98.66 9.73981 99.2535 10.0969L98.3186 11.2725C97.6657 10.8856 97.1314 10.3499 96.7011 9.68029C96.2707 8.99578 95.9591 8.23689 95.7513 7.37381C95.5436 6.51074 95.4397 5.60303 95.4397 4.63579V3.16258H96.6269V4.63579C96.6269 5.3947 96.7159 6.12385 96.9088 6.82324L96.894 6.80834ZM100.07 6.88273H97.7547V5.58812H100.07V6.88273ZM101.123 13.4451H99.6245V1.28766H101.123V13.4451ZM103.765 14.0701H102.251V1.04956H103.765V14.0701Z" fill="white"/>
<path d="M107.579 12.5671C107 12.3141 106.54 11.9719 106.213 11.5106C105.887 11.0493 105.709 10.5433 105.694 9.96298H107.579C107.579 10.2457 107.683 10.4838 107.861 10.6921C108.039 10.9004 108.276 11.0642 108.558 11.1832C108.84 11.3022 109.167 11.3618 109.523 11.3618C109.909 11.3618 110.25 11.3022 110.547 11.1683C110.843 11.0344 111.081 10.8558 111.244 10.6177C111.407 10.3796 111.496 10.1118 111.496 9.81417C111.496 9.50168 111.407 9.21898 111.244 8.96601C111.081 8.71304 110.829 8.53445 110.502 8.38564C110.176 8.25172 109.79 8.17729 109.345 8.17729H108.425V6.73392H109.345C109.716 6.73392 110.027 6.67439 110.324 6.54046C110.606 6.40654 110.829 6.22795 110.992 6.00474C111.14 5.76665 111.229 5.51368 111.229 5.21607C111.229 4.91846 111.155 4.6655 111.022 4.44229C110.888 4.21909 110.695 4.04051 110.443 3.92146C110.19 3.80242 109.894 3.72801 109.567 3.72801C109.241 3.72801 108.929 3.78752 108.647 3.90657C108.365 4.02561 108.143 4.18933 107.965 4.39765C107.786 4.62086 107.697 4.8738 107.697 5.15653H105.887C105.887 4.57619 106.065 4.07025 106.406 3.62383C106.733 3.17742 107.178 2.82031 107.727 2.58222C108.276 2.32925 108.899 2.21021 109.567 2.21021C110.235 2.21021 110.873 2.3441 111.393 2.59707C111.912 2.85004 112.327 3.20719 112.609 3.63873C112.891 4.08515 113.04 4.56134 113.04 5.09704C113.04 5.48394 112.966 5.82617 112.817 6.13866C112.654 6.45115 112.431 6.70415 112.149 6.91248C111.853 7.12081 111.526 7.26958 111.14 7.34398V7.41841C111.63 7.49282 112.045 7.62676 112.387 7.84996C112.728 8.07317 112.995 8.35587 113.173 8.69812C113.351 9.04038 113.44 9.44217 113.44 9.8737C113.44 10.454 113.277 10.9749 112.936 11.4361C112.595 11.8974 112.135 12.2546 111.541 12.5224C110.947 12.7903 110.28 12.9242 109.538 12.9242C108.796 12.9242 108.143 12.8052 107.564 12.5522L107.579 12.5671Z" fill="white"/>
<path d="M120.786 2.70125C121.395 3.02862 121.884 3.56432 122.27 4.32323C122.641 5.06726 122.834 6.04938 122.834 7.25471C122.834 8.46004 122.671 9.45706 122.329 10.3053C121.988 11.1535 121.513 11.8082 120.875 12.2546C120.252 12.701 119.51 12.9242 118.649 12.9242C117.981 12.9242 117.403 12.7903 116.883 12.5373C116.364 12.2844 115.948 11.9272 115.622 11.4808C115.31 11.0344 115.102 10.5284 115.028 9.94809H116.868C116.943 10.2159 117.046 10.454 117.21 10.6624C117.373 10.8707 117.581 11.0195 117.818 11.1237C118.056 11.2278 118.338 11.2874 118.649 11.2874C119.154 11.2874 119.569 11.1386 119.925 10.8558C120.282 10.5731 120.549 10.1564 120.727 9.63561C120.905 9.09991 121.009 8.46003 121.009 7.716H120.905C120.727 8.01361 120.504 8.26661 120.237 8.48982C119.97 8.69815 119.658 8.86182 119.317 8.98086C118.976 9.09991 118.619 9.15942 118.234 9.15942C117.61 9.15942 117.061 9.01065 116.557 8.72792C116.052 8.4303 115.666 8.02853 115.37 7.52259C115.073 7.01665 114.924 6.43629 114.924 5.78154C114.924 5.09703 115.088 4.48694 115.399 3.93636C115.711 3.38578 116.171 2.9691 116.75 2.65661C117.328 2.34411 117.996 2.19531 118.753 2.19531C119.495 2.19531 120.163 2.35902 120.771 2.6864L120.786 2.70125ZM117.744 3.99585C117.432 4.17442 117.195 4.42742 117.017 4.72503C116.839 5.03752 116.75 5.37977 116.765 5.7369C116.765 6.10892 116.854 6.45116 117.017 6.74877C117.195 7.06126 117.432 7.29938 117.729 7.47795C118.026 7.65652 118.367 7.74579 118.753 7.74579C119.139 7.74579 119.465 7.6565 119.792 7.46306C120.103 7.26961 120.356 7.03152 120.534 6.71903C120.712 6.40653 120.801 6.07914 120.801 5.72201C120.801 5.36487 120.712 5.03752 120.534 4.72503C120.356 4.41254 120.118 4.17442 119.807 3.99585C119.495 3.81728 119.154 3.72801 118.768 3.72801C118.382 3.72801 118.041 3.81728 117.729 3.99585H117.744Z" fill="white"/>
<path d="M129.215 3.87687H125.965V10.3201H124.362V2.56737H129.215V3.86197V3.87687ZM127.761 9.60591C128.443 9.56126 129.156 9.47199 129.868 9.33807L129.987 10.6475C129.26 10.7963 128.547 10.8856 127.85 10.9303C127.152 10.9749 126.277 11.0047 125.253 11.0047H124.362V9.65055H125.253C126.247 9.65055 127.078 9.63565 127.761 9.59101V9.60591ZM132.153 13.4153H130.699V1.27276H132.153V13.4153ZM134.008 7.43331H131.693V6.1387H134.008V7.43331ZM135.151 14.0552H133.637V1.03467H135.151V14.0552Z" fill="white"/>
<path d="M152.039 8.93626H140.197V7.64165H152.039V8.93626ZM145.969 5.03755C145.539 5.55837 144.916 5.96014 144.1 6.28751C143.298 6.60001 142.348 6.80834 141.25 6.89762L140.761 5.6774C141.71 5.61788 142.527 5.45421 143.194 5.231C143.862 5.0078 144.382 4.71017 144.708 4.3828C145.049 4.04055 145.213 3.66853 145.213 3.26676V3.02866H146.622V3.26676C146.622 3.93638 146.4 4.53161 145.969 5.03755ZM150.881 3.51975H141.369V2.23999H150.881V3.51975ZM148.537 9.91838C149.204 10.0821 149.724 10.335 150.08 10.6624C150.436 10.9898 150.614 11.3915 150.614 11.8528C150.614 12.3141 150.436 12.7159 150.08 13.0433C149.724 13.3707 149.204 13.6237 148.537 13.7873C147.869 13.951 147.053 14.0403 146.118 14.0403C145.183 14.0403 144.352 13.951 143.669 13.7873C143.001 13.6237 142.482 13.3707 142.126 13.0433C141.77 12.7159 141.592 12.3141 141.592 11.8528C141.592 11.3915 141.77 10.9898 142.126 10.6624C142.482 10.335 143.001 10.0821 143.669 9.91838C144.337 9.7547 145.153 9.66539 146.118 9.66539C147.082 9.66539 147.869 9.7547 148.537 9.91838ZM144.5 10.96C144.07 11.0344 143.743 11.1535 143.536 11.3023C143.328 11.4511 143.209 11.6296 143.209 11.8528C143.209 12.0761 143.313 12.2547 143.536 12.4035C143.758 12.5523 144.085 12.6564 144.5 12.7308C144.931 12.8052 145.465 12.8499 146.103 12.8499C146.741 12.8499 147.26 12.8201 147.691 12.7308C148.121 12.6564 148.448 12.5523 148.67 12.4035C148.893 12.2547 148.997 12.0761 148.997 11.8528C148.997 11.6296 148.893 11.4511 148.67 11.3023C148.448 11.1535 148.121 11.0344 147.691 10.96C147.26 10.8856 146.726 10.841 146.103 10.8559C145.465 10.8559 144.931 10.8856 144.5 10.96ZM146.889 2.93938H145.316V1.04956H146.889V2.93938ZM146.889 8.23687H145.316V6.25777H146.889V8.23687ZM147.498 4.3679C147.839 4.71016 148.344 4.99292 149.026 5.231C149.694 5.46909 150.51 5.61788 151.445 5.6774L150.956 6.89762C149.857 6.80834 148.908 6.60001 148.106 6.28751C147.305 5.97502 146.682 5.55837 146.237 5.03755C145.791 4.51673 145.584 3.93638 145.584 3.26676V3.02866H146.993V3.26676C146.993 3.66853 147.157 4.04053 147.498 4.3679Z" fill="white"/>
<path d="M160.646 3.56435H152.929V2.29949H160.646V3.56435ZM158.45 4.36787C158.925 4.56132 159.296 4.84405 159.563 5.20118C159.83 5.55832 159.963 5.97501 159.963 6.45119C159.963 6.92737 159.83 7.34402 159.563 7.70116C159.296 8.05829 158.925 8.34102 158.435 8.53447C157.945 8.72791 157.396 8.83205 156.788 8.83205C156.179 8.83205 155.615 8.72791 155.126 8.53447C154.636 8.34102 154.265 8.05829 153.998 7.70116C153.731 7.34402 153.597 6.92737 153.597 6.45119C153.597 5.97501 153.731 5.55832 153.998 5.20118C154.265 4.84405 154.636 4.56132 155.126 4.36787C155.601 4.17442 156.164 4.07029 156.788 4.07029C157.411 4.07029 157.96 4.17442 158.435 4.36787H158.45ZM163.184 14.0701H161.581V11.0939H154.517V9.81418H163.184V14.0701ZM155.927 5.42443C155.675 5.51371 155.482 5.64762 155.348 5.82619C155.215 6.00475 155.141 6.2131 155.141 6.45119C155.141 6.68928 155.215 6.89757 155.348 7.06126C155.482 7.22494 155.675 7.35888 155.927 7.44817C156.179 7.53745 156.461 7.58209 156.788 7.58209C157.114 7.58209 157.411 7.53745 157.663 7.44817C157.916 7.35888 158.108 7.22494 158.242 7.06126C158.376 6.89757 158.45 6.68928 158.45 6.45119C158.45 6.2131 158.376 6.00475 158.242 5.82619C158.108 5.64762 157.916 5.51371 157.663 5.42443C157.411 5.33514 157.129 5.27561 156.788 5.27561C156.461 5.27561 156.179 5.33514 155.927 5.42443ZM157.589 2.99888H155.986V0.975098H157.589V2.99888ZM163.169 9.20407H161.566V1.03463H163.169V9.20407ZM164.994 5.81129H162.724V4.48694H164.994V5.81129Z" fill="white"/>
<path d="M169.09 5.54348C168.867 6.21311 168.526 6.80832 168.066 7.34402C167.606 7.87973 167.057 8.28151 166.404 8.56424L165.528 7.32917C166.092 7.0762 166.582 6.74881 166.983 6.33215C167.383 5.9155 167.68 5.45422 167.873 4.96316C168.066 4.4721 168.17 3.96615 168.17 3.46021V1.85308H169.431V3.46021C169.431 4.17448 169.313 4.87386 169.09 5.54348ZM174.729 9.54637C175.397 9.73982 175.916 10.0077 176.287 10.3797C176.658 10.7368 176.836 11.1683 176.836 11.6743C176.836 12.1802 176.658 12.5969 176.287 12.954C175.916 13.3112 175.412 13.5939 174.729 13.7873C174.046 13.9808 173.275 14.0701 172.384 14.0701C171.494 14.0701 170.678 13.9808 170.01 13.7873C169.342 13.5939 168.823 13.3261 168.467 12.954C168.11 12.5969 167.932 12.1653 167.932 11.6743C167.932 11.1683 168.11 10.7368 168.467 10.3797C168.823 10.0225 169.342 9.73982 170.01 9.54637C170.678 9.35292 171.479 9.26363 172.384 9.26363C173.29 9.26363 174.061 9.35292 174.729 9.54637ZM169.995 4.85899C170.188 5.30541 170.47 5.72208 170.841 6.07921C171.212 6.43634 171.687 6.73394 172.236 6.94226L171.39 8.16248C170.737 7.90951 170.203 7.55236 169.758 7.07618C169.313 6.6 168.986 6.04941 168.778 5.43931C168.556 4.81432 168.452 4.1596 168.452 3.46021V1.85308H169.713V3.46021C169.713 3.95127 169.802 4.41257 169.995 4.85899ZM170.826 10.6029C170.396 10.6922 170.069 10.8261 169.847 11.0047C169.624 11.1833 169.505 11.4065 169.505 11.6594C169.505 11.9124 169.624 12.1356 169.847 12.2993C170.069 12.4779 170.396 12.6118 170.826 12.701C171.257 12.7903 171.761 12.835 172.37 12.835C172.978 12.835 173.483 12.7903 173.898 12.701C174.328 12.6118 174.655 12.4779 174.877 12.2993C175.1 12.1207 175.219 11.9124 175.219 11.6594C175.219 11.4065 175.1 11.1833 174.877 11.0047C174.655 10.8261 174.328 10.6922 173.898 10.6029C173.468 10.5136 172.963 10.469 172.37 10.469C171.776 10.469 171.257 10.5136 170.826 10.6029ZM173.943 8.63867H172.459V1.28766H173.943V8.63867ZM175.679 5.64766H173.453V4.33816H175.679V5.64766ZM176.762 9.05533H175.234V1.04956H176.762V9.05533Z" fill="white"/>
<path d="M178.973 10.4541C180.591 10.4541 182.016 10.4094 183.262 10.3648C184.509 10.3201 185.711 10.216 186.853 10.0672L186.957 11.2576C185.681 11.4808 184.375 11.6148 183.025 11.6743C181.674 11.7338 180.22 11.7785 178.647 11.7785L178.424 10.4541H178.958H178.973ZM186.631 3.81733H178.721V2.55247H186.631V3.81733ZM184.345 4.71017C184.835 4.9185 185.206 5.20121 185.488 5.57323C185.755 5.94524 185.889 6.3768 185.889 6.85298C185.889 7.32916 185.755 7.76071 185.488 8.11784C185.221 8.47498 184.835 8.7726 184.345 8.96605C183.856 9.17438 183.292 9.26363 182.668 9.26363C182.045 9.26363 181.481 9.1595 181.006 8.96605C180.517 8.75772 180.146 8.47498 179.879 8.11784C179.611 7.74583 179.478 7.32916 179.478 6.85298C179.478 6.3768 179.611 5.94524 179.879 5.57323C180.146 5.20121 180.532 4.9185 181.006 4.71017C181.481 4.50185 182.045 4.41254 182.668 4.41254C183.292 4.41254 183.856 4.51673 184.345 4.71017ZM181.793 5.78158C181.541 5.87086 181.348 6.01967 181.199 6.19823C181.051 6.3768 180.977 6.6 180.977 6.83809C180.977 7.07618 181.051 7.29942 181.184 7.47799C181.318 7.65656 181.526 7.79048 181.778 7.89464C182.03 7.98393 182.327 8.04344 182.654 8.02856C182.995 8.02856 183.292 7.98393 183.544 7.89464C183.796 7.80536 184.004 7.65656 184.138 7.47799C184.271 7.29942 184.345 7.09106 184.345 6.83809C184.345 6.58512 184.271 6.3768 184.138 6.19823C184.004 6.01967 183.796 5.87086 183.544 5.78158C183.292 5.6923 182.995 5.63276 182.654 5.63276C182.312 5.63276 182.03 5.67742 181.778 5.78158H181.793ZM183.485 3.26675H181.882V1.0942H183.485V3.26675ZM183.485 11.0493H181.882V8.92136H183.485V11.0493ZM189.213 14.0701H187.625V1.04956H189.213V14.0701Z" fill="white"/>
<path d="M197.998 5.58812C197.775 6.19823 197.449 6.74882 197.004 7.225C196.559 7.70118 196.024 8.05833 195.386 8.3113L194.644 7.10597C195.178 6.89765 195.624 6.6149 195.995 6.25777C196.366 5.90064 196.648 5.49886 196.826 5.05244C197.004 4.60603 197.108 4.12984 197.108 3.65367V3.25186H198.324V3.65367C198.324 4.33817 198.206 4.99292 197.983 5.60302L197.998 5.58812ZM200.743 3.77269H194.971V2.49298H200.743V3.77269ZM198.547 10.0969H204.157V8.81723H205.744V13.9213H196.974V8.81723H198.562V10.0969H198.547ZM198.621 3.16258H197.108V1.13884H198.621V3.16258ZM198.903 4.94827C199.096 5.36493 199.378 5.75181 199.749 6.09406C200.12 6.43631 200.565 6.68928 201.1 6.88273L200.387 8.0732C199.734 7.83511 199.2 7.49286 198.755 7.04644C198.31 6.60002 197.983 6.07919 197.761 5.49884C197.538 4.9185 197.434 4.2935 197.434 3.62387V3.22212H198.621V3.62387C198.621 4.08517 198.71 4.51672 198.903 4.93337V4.94827ZM204.142 12.6267V11.3321H198.532V12.6267H204.142ZM202.955 8.25176H201.441V1.27276H202.955V8.25176ZM204.706 5.27564H202.45V3.96614H204.706V5.27564ZM205.73 8.32615H204.201V1.04956H205.73V8.32615Z" fill="white"/>
<path d="M214.01 3.47511H209.543V10.2011H207.941V2.18046H214.01V3.47511ZM212.111 9.71008C212.957 9.66544 213.817 9.57615 214.678 9.42734L214.841 10.7219C213.936 10.8708 213.031 10.96 212.14 11.0195C211.25 11.0642 210.196 11.094 208.965 11.094H207.941V9.78446H208.965C210.211 9.78446 211.265 9.75472 212.111 9.71008ZM213.506 7.09108H209.158V5.82622H213.506V7.09108ZM216.859 7.06129H214.218V5.76668H216.859V7.06129ZM218.225 14.1147H216.637V1.04956H218.225V14.1147Z" fill="white"/>
<path d="M109.552 30.8255H109.641L111.956 26.9863H114.093L110.888 32.2094L114.153 37.4325H111.986L109.656 33.638H109.567L107.237 37.4325H105.071L108.365 32.2094L105.115 26.9863H107.267L109.567 30.8255H109.552Z" fill="white"/>
<path d="M25.8406 57.1939H19.7414V51.2714H25.8406V57.1939ZM25.6773 60.7653C25.2618 61.4051 24.6682 61.9557 23.8965 62.4021C23.1397 62.8485 22.2641 63.1461 21.2699 63.2949L20.706 62.045C21.537 61.911 22.279 61.6729 22.9171 61.3307C23.5552 60.9884 24.0598 60.5867 24.4011 60.1105C24.7424 59.6343 24.9353 59.173 24.9353 58.6819V58.2653H26.3006V58.6819C26.3006 59.426 26.0928 60.1254 25.6773 60.7801V60.7653ZM21.3441 55.8993H24.2824V52.5511H21.3441V55.8993ZM27.1019 60.1403C27.4433 60.6016 27.933 61.0033 28.5859 61.3307C29.224 61.6581 29.9809 61.8962 30.8416 62.0152L30.2035 63.2652C29.2092 63.1164 28.3336 62.8188 27.5768 62.3872C26.82 61.9557 26.2412 61.42 25.8257 60.7653C25.4102 60.1254 25.2024 59.4111 25.2173 58.6522V58.2355H26.5825V58.6522C26.5825 59.173 26.7606 59.6641 27.1019 60.1254V60.1403ZM28.8679 54.7981H25.5438V53.4886H28.8679V54.7981ZM30.0699 59.0986H28.4672V50.3042H30.0699V59.0986Z" fill="white"/>
<path d="M35.2936 55.0065C35.0858 55.6612 34.7445 56.2565 34.3141 56.7624C33.8689 57.2684 33.3199 57.6701 32.6669 57.9379L31.8062 56.7029C32.3701 56.4648 32.845 56.1523 33.2308 55.7505C33.6166 55.3487 33.8986 54.9172 34.0915 54.4261C34.2844 53.9351 34.3735 53.4292 34.3735 52.8934V51.9709H35.6349V52.8934C35.6349 53.6375 35.5162 54.3369 35.3084 54.9916L35.2936 55.0065ZM37.9944 52.6107H32.1623V51.331H37.9944V52.6107ZM40.9921 58.7713C41.6599 58.9647 42.1793 59.2475 42.5354 59.6046C42.8916 59.9766 43.0697 60.4082 43.0697 60.8992C43.0697 61.3903 42.8916 61.8367 42.5354 62.1938C42.1793 62.5658 41.6599 62.8337 40.9772 63.0271C40.2946 63.2206 39.5081 63.3099 38.6177 63.3099C37.7273 63.3099 36.9111 63.2206 36.2433 63.0271C35.5755 62.8337 35.0561 62.551 34.7 62.1938C34.3438 61.8218 34.1657 61.3903 34.1657 60.8992C34.1657 60.3933 34.3438 59.9617 34.7 59.6046C35.0561 59.2326 35.5755 58.9647 36.2433 58.7713C36.9111 58.5778 37.7125 58.4886 38.6177 58.4886C39.5229 58.4886 40.3094 58.5778 40.9772 58.7713H40.9921ZM36.1543 54.3369C36.3323 54.7833 36.5995 55.185 36.9556 55.5273C37.3118 55.8844 37.757 56.1523 38.3061 56.3606L37.475 57.5808C36.8369 57.3427 36.3175 56.9856 35.902 56.5243C35.4865 56.063 35.1897 55.5273 34.9819 54.9023C34.7742 54.2774 34.6851 53.6226 34.6851 52.8934V51.9709H35.8871V52.8934C35.8871 53.4143 35.9762 53.8905 36.1543 54.3369ZM37.0892 59.8427C36.6588 59.9319 36.3472 60.0659 36.1097 60.2593C35.8872 60.4379 35.7684 60.6611 35.7684 60.9141C35.7684 61.167 35.8872 61.3903 36.1097 61.5688C36.3323 61.7474 36.6588 61.8813 37.0743 61.9706C37.5047 62.0599 38.0093 62.1045 38.6177 62.1045C39.2113 62.1045 39.7307 62.0599 40.161 61.9706C40.5914 61.8813 40.903 61.7474 41.1405 61.5688C41.3631 61.3903 41.4818 61.167 41.4818 60.9141C41.4818 60.6611 41.3631 60.4379 41.1405 60.2593C40.9179 60.0808 40.5914 59.9468 40.161 59.8427C39.7307 59.7534 39.2261 59.7087 38.6325 59.7087C38.0389 59.7087 37.5195 59.7534 37.0892 59.8427ZM40.2501 57.8487H38.7364V50.5721H40.2501V57.8487ZM41.9418 54.9023H39.7158V53.6077H41.9418V54.9023ZM43.0251 58.2653H41.4966V50.334H43.0251V58.2653Z" fill="white"/>
<path d="M50.1929 51.8369C50.7122 52.209 51.1129 52.7446 51.3949 53.444C51.6768 54.1434 51.8252 54.947 51.8252 55.8696C51.8252 56.7922 51.6768 57.6106 51.3949 58.31C51.1129 59.0094 50.7122 59.5451 50.1929 59.9171C49.6735 60.2891 49.0947 60.4826 48.4417 60.4826C47.7888 60.4826 47.1952 60.2891 46.6907 59.9171C46.1713 59.5451 45.7706 59.0094 45.4886 58.31C45.1918 57.6106 45.0583 56.807 45.0583 55.8696C45.0583 54.947 45.1918 54.1434 45.4886 53.444C45.7854 52.7446 46.1861 52.209 46.6907 51.8369C47.21 51.4649 47.7888 51.2715 48.4417 51.2715C49.0947 51.2715 49.6735 51.4649 50.1929 51.8369ZM47.4772 53.0869C47.1952 53.3399 46.9874 53.697 46.8242 54.1732C46.6758 54.6493 46.6016 55.2148 46.6016 55.8696C46.6016 56.5243 46.6758 57.0898 46.8242 57.5659C46.9726 58.0421 47.1952 58.3993 47.4772 58.6522C47.7591 58.9052 48.0856 59.0243 48.4566 59.0243C48.8276 59.0243 49.1392 58.9052 49.4212 58.6522C49.7031 58.3993 49.9109 58.0421 50.0741 57.5659C50.2374 57.0898 50.3116 56.5243 50.3116 55.8696C50.3116 55.2148 50.2374 54.6493 50.0741 54.1732C49.9257 53.697 49.7031 53.3399 49.4212 53.0869C49.1392 52.8339 48.8276 52.7149 48.4566 52.7149C48.0856 52.7149 47.7591 52.8339 47.4772 53.0869ZM55.461 63.3843H53.8435V50.3191H55.461V63.3843Z" fill="white"/>
<path d="M61.2782 56.435C60.9962 57.3725 60.5807 58.2207 60.0465 58.9499C59.4974 59.679 58.8593 60.2444 58.1025 60.6313L57.1082 59.3367C57.7908 59.0094 58.3844 58.5481 58.8741 57.9231C59.3638 57.2981 59.7497 56.6136 60.0168 55.8398C60.2839 55.066 60.4175 54.2625 60.4175 53.444V51.3608H61.7234V53.444C61.7234 54.4857 61.575 55.4827 61.293 56.435H61.2782ZM62.3763 55.7505C62.6286 56.4945 62.9996 57.1642 63.4745 57.7445C63.9494 58.3398 64.5133 58.7862 65.1662 59.1135L64.2016 60.3933C63.4745 60.0213 62.8364 59.4855 62.317 58.7713C61.7976 58.057 61.3969 57.2535 61.1298 56.3458C60.8627 55.438 60.7291 54.4708 60.7291 53.444V51.3608H62.0053V53.444C62.0053 54.2327 62.1241 55.0065 62.3763 55.7505ZM67.5406 63.3396H65.9379V50.3191H67.5406V63.3396ZM69.544 56.7922H67.1845V55.4231H69.544V56.7922Z" fill="white"/>
<path d="M73.9811 56.8368C73.6843 57.7445 73.254 58.563 72.6901 59.2772C72.1261 59.9915 71.488 60.5272 70.7609 60.8843L69.826 59.6195C70.4938 59.307 71.0725 58.8457 71.5919 58.2356C72.0965 57.6255 72.4971 56.9558 72.7643 56.2267C73.0314 55.4975 73.1798 54.7535 73.1798 54.0095V52.2982H74.4412V54.0095C74.4412 54.9767 74.2928 55.9142 73.996 56.8368H73.9811ZM77.4833 52.9232H70.3305V51.6137H77.4833V52.9232ZM75.1386 56.0928C75.3909 56.7773 75.7767 57.4171 76.2665 57.9826C76.7562 58.548 77.3349 58.9945 78.0027 59.307L77.0975 60.5718C76.3555 60.2296 75.7174 59.7088 75.1832 59.0391C74.6341 58.3546 74.2186 57.5808 73.9218 56.7178C73.625 55.8547 73.4766 54.9618 73.4766 54.0392V52.328H74.7528V54.0392C74.7528 54.7386 74.8715 55.4232 75.1386 56.1077V56.0928ZM80.2732 63.3545H78.6705V50.334H80.2732V63.3545ZM82.2766 56.7624H79.9171V55.4083H82.2766V56.7624Z" fill="white"/>
<path d="M86.8028 57.1195C86.5209 57.9677 86.1054 58.7266 85.5711 59.3962C85.0221 60.0658 84.3988 60.5569 83.6568 60.8843L82.7961 59.6492C83.449 59.3516 84.0278 58.92 84.5027 58.3695C84.9775 57.8189 85.3485 57.1939 85.6008 56.5243C85.8531 55.8398 85.9718 55.1552 85.9718 54.4559V53.5779H87.2332V54.4559C87.2332 55.3785 87.0848 56.2713 86.8028 57.1195ZM90.3051 53.7714H83.1819V52.4916H90.3051V53.7714ZM87.5745 53.1761H85.9866V50.5869H87.5745V53.1761ZM87.9455 56.435C88.1978 57.0897 88.5688 57.6701 89.0585 58.2058C89.5482 58.7415 90.127 59.1433 90.7948 59.4409L89.9192 60.676C89.1772 60.3486 88.5243 59.8724 87.99 59.2326C87.4409 58.5927 87.0254 57.8635 86.7435 57.0302C86.4615 56.1969 86.3131 55.3487 86.3131 54.441V53.563H87.5597V54.441C87.5597 55.1106 87.6932 55.7654 87.9455 56.4201V56.435ZM92.5162 56.7028H89.6076V55.4082H92.5162V56.7028ZM93.7182 63.3694H92.1155V50.3042H93.7182V63.3694Z" fill="white"/>
<path d="M101.91 54.8131H97.6656V57.313H96.0778V53.6077H100.352V52.2536H96.0629V50.9589H101.925V54.8131H101.91ZM100.263 56.1969C101.123 56.1523 101.999 56.0481 102.889 55.9142L103.023 57.2237C102.118 57.3725 101.227 57.4767 100.352 57.5213C99.4761 57.5659 98.3928 57.5808 97.1017 57.5808H96.0778V56.2713H97.1017C98.3482 56.2713 99.4019 56.2565 100.263 56.2118V56.1969ZM106.436 63.1908H97.7398V58.6076H106.436V63.1908ZM99.3277 61.8962H104.848V59.8427H99.3277V61.8962ZM105.204 54.3964H102.607V53.1018H105.204V54.3964ZM106.421 57.9677H104.818V50.3191H106.421V57.9677Z" fill="white"/>
<path d="M118.427 52.5065H114.093V56.7773H112.491V51.197H118.427V52.5065ZM116.72 56.3011C117.507 56.2416 118.278 56.1523 119.035 55.9886L119.198 57.2684C118.664 57.3874 118.145 57.4767 117.61 57.5362C117.091 57.5957 116.512 57.6403 115.889 57.6552C115.266 57.6701 114.464 57.685 113.485 57.6701H112.491V56.3755H113.485C114.85 56.3755 115.919 56.3458 116.72 56.3011ZM122.671 63.3396H121.068V60.0361H113.797V58.7564H122.656V63.3396H122.671ZM121.498 54.9023H117.744V53.6077H121.498V54.9023ZM122.671 58.1612H121.068V50.3191H122.671V58.1612Z" fill="white"/>
<path d="M128.562 54.694C128.28 55.438 127.865 56.0928 127.301 56.6433C126.737 57.1939 126.069 57.6106 125.283 57.8933L124.422 56.5987C125.119 56.3755 125.713 56.0333 126.203 55.6017C126.692 55.1702 127.049 54.6642 127.301 54.0839C127.538 53.5184 127.672 52.9083 127.672 52.2684V51.0334H128.978V52.2684C128.978 53.1464 128.829 53.95 128.547 54.7089L128.562 54.694ZM133.385 58.6373C134.053 58.8308 134.558 59.1135 134.929 59.5004C135.285 59.8725 135.463 60.3338 135.463 60.8546C135.463 61.3754 135.285 61.8218 134.929 62.1938C134.572 62.5658 134.053 62.8486 133.385 63.042C132.717 63.2355 131.931 63.3396 131.026 63.3396C130.12 63.3396 129.319 63.2355 128.666 63.042C127.998 62.8486 127.494 62.5658 127.138 62.1938C126.781 61.8218 126.603 61.3754 126.603 60.8546C126.603 60.3338 126.781 59.8725 127.138 59.5004C127.494 59.1135 127.998 58.8308 128.666 58.6373C129.334 58.4439 130.12 58.3398 131.026 58.3398C131.931 58.3398 132.732 58.4439 133.385 58.6373ZM129.631 53.9053C129.868 54.441 130.209 54.9023 130.67 55.319C131.13 55.7357 131.693 56.0482 132.346 56.2565L131.486 57.5064C130.729 57.2386 130.091 56.8517 129.571 56.3309C129.052 55.81 128.666 55.2148 128.399 54.5154C128.132 53.816 127.998 53.0423 127.998 52.209V51.0483H129.289V52.209C129.289 52.8191 129.408 53.3845 129.631 53.9202V53.9053ZM129.467 59.7385C129.052 59.8278 128.725 59.9766 128.503 60.17C128.28 60.3635 128.176 60.5867 128.176 60.8694C128.176 61.1522 128.28 61.3605 128.503 61.5391C128.725 61.7176 129.052 61.8664 129.467 61.9557C129.898 62.045 130.402 62.1045 131.011 62.1045C131.619 62.1045 132.124 62.0599 132.554 61.9557C132.985 61.8664 133.296 61.7176 133.519 61.5391C133.741 61.3605 133.845 61.1373 133.845 60.8694C133.845 60.6016 133.741 60.3635 133.519 60.17C133.296 59.9766 132.985 59.8427 132.554 59.7385C132.124 59.6492 131.619 59.5897 131.011 59.5897C130.402 59.5897 129.883 59.6344 129.467 59.7385ZM134.068 54.1732H131.233V52.8637H134.068V54.1732ZM135.418 57.9975H133.816V50.334H135.418V57.9975Z" fill="white"/>
<path d="M142.512 51.8369C143.016 52.209 143.417 52.7446 143.684 53.444C143.966 54.1434 144.1 54.947 144.1 55.8696C144.1 56.7922 143.966 57.6106 143.684 58.31C143.402 59.0094 143.016 59.5451 142.512 59.9171C142.007 60.2891 141.428 60.4826 140.79 60.4826C140.152 60.4826 139.559 60.2891 139.054 59.9171C138.549 59.5451 138.164 59.0094 137.882 58.31C137.6 57.6106 137.451 56.807 137.451 55.8696C137.451 54.9321 137.585 54.1434 137.882 53.444C138.164 52.7446 138.564 52.209 139.054 51.8369C139.559 51.4649 140.137 51.2715 140.79 51.2715C141.443 51.2715 142.007 51.4649 142.512 51.8369ZM139.841 53.1018C139.573 53.3547 139.366 53.7119 139.202 54.1881C139.054 54.6642 138.965 55.2297 138.965 55.8696C138.965 56.5094 139.039 57.0898 139.202 57.5659C139.351 58.0421 139.573 58.3993 139.841 58.6522C140.108 58.9052 140.419 59.0243 140.775 59.0243C141.132 59.0243 141.443 58.9052 141.725 58.6522C142.007 58.3993 142.215 58.0421 142.363 57.5659C142.512 57.0898 142.586 56.5243 142.586 55.8696C142.586 55.2148 142.512 54.6642 142.363 54.1732C142.215 53.697 142.007 53.325 141.725 53.0869C141.443 52.8488 141.132 52.7149 140.775 52.7149C140.419 52.7149 140.108 52.8339 139.841 53.0869V53.1018ZM146.845 54.3964H143.09V53.0869H146.845V54.3964ZM146.845 58.4439H143.09V57.1493H146.845V58.4439ZM148.136 63.3843H146.548V50.3191H148.136V63.3843Z" fill="white"/>
<path d="M153.864 56.8368C153.567 57.7445 153.137 58.563 152.573 59.2772C152.009 59.9915 151.371 60.5272 150.644 60.8843L149.709 59.6195C150.377 59.307 150.956 58.8457 151.475 58.2356C151.98 57.6255 152.38 56.9558 152.647 56.2267C152.914 55.4975 153.063 54.7535 153.063 54.0095V52.2982H154.324V54.0095C154.324 54.9767 154.176 55.9142 153.879 56.8368H153.864ZM157.366 52.9232H150.214V51.6137H157.366V52.9232ZM155.022 56.0928C155.274 56.7773 155.66 57.4171 156.15 57.9826C156.639 58.548 157.218 58.9945 157.886 59.307L156.981 60.5718C156.239 60.2296 155.6 59.7088 155.066 59.0391C154.517 58.3546 154.102 57.5808 153.805 56.7178C153.508 55.8547 153.36 54.9618 153.36 54.0392V52.328H154.636V54.0392C154.636 54.7386 154.755 55.4232 155.022 56.1077V56.0928ZM160.156 63.3545H158.554V50.334H160.156V63.3545ZM162.16 56.7624H159.8V55.4083H162.16V56.7624Z" fill="white"/>
<path d="M167.962 53.1613H164.712V59.6046H163.11V51.8518H167.962V53.1464V53.1613ZM166.508 58.8903C167.19 58.8457 167.903 58.7564 168.615 58.6225L168.734 59.932C168.007 60.0808 167.294 60.17 166.597 60.2147C165.899 60.2593 165.024 60.2891 164 60.2891H163.11V58.935H164C164.994 58.935 165.825 58.9201 166.508 58.8754V58.8903ZM170.9 62.6998H169.446V50.5572H170.9V62.6998ZM172.755 56.7178H170.44V55.4231H172.755V56.7178ZM173.898 63.3396H172.384V50.3191H173.898V63.3396Z" fill="white"/>
<path d="M183.158 52.849H175.441V51.5841H183.158V52.849ZM180.962 53.6525C181.437 53.846 181.808 54.1287 182.075 54.4858C182.342 54.843 182.475 55.2596 182.475 55.7358C182.475 56.212 182.342 56.6286 182.075 56.9858C181.808 57.3429 181.437 57.6256 180.947 57.8191C180.457 58.0125 179.908 58.1167 179.3 58.1167C178.691 58.1167 178.127 58.0125 177.638 57.8191C177.148 57.6256 176.777 57.3429 176.51 56.9858C176.243 56.6286 176.109 56.212 176.109 55.7358C176.109 55.2596 176.243 54.843 176.51 54.4858C176.777 54.1287 177.148 53.846 177.638 53.6525C178.113 53.4591 178.676 53.3549 179.3 53.3549C179.923 53.3549 180.472 53.4591 180.947 53.6525H180.962ZM185.696 63.3547H184.093V60.3786H177.029V59.0988H185.696V63.3547ZM178.439 54.709C178.187 54.7983 177.994 54.9322 177.86 55.1108C177.727 55.2894 177.652 55.4977 177.652 55.7358C177.652 55.9739 177.727 56.1822 177.86 56.3459C177.994 56.5096 178.187 56.6435 178.439 56.7328C178.691 56.8221 178.973 56.8667 179.3 56.8667C179.626 56.8667 179.923 56.8221 180.175 56.7328C180.428 56.6435 180.62 56.5096 180.754 56.3459C180.888 56.1822 180.962 55.9739 180.962 55.7358C180.962 55.4977 180.888 55.2894 180.754 55.1108C180.62 54.9322 180.428 54.7983 180.175 54.709C179.923 54.6198 179.641 54.5602 179.3 54.5602C178.973 54.5602 178.691 54.6198 178.439 54.709ZM180.101 52.2835H178.498V50.2598H180.101V52.2835ZM185.681 58.4887H184.078V50.3193H185.681V58.4887ZM187.506 55.096H185.236V53.7716H187.506V55.096Z" fill="white"/>
<path d="M200.016 61.6732H188.174V60.3637H200.016V61.6732ZM197.686 52.8044H189.361V51.5098H197.686V52.8044ZM192.418 60.8101H190.815V56.1971H192.418V60.8101ZM195.653 60.8101H194.08V56.1971H195.653V60.8101ZM198.829 52.9085C198.829 53.6228 198.829 54.2329 198.799 54.7686C198.785 55.2894 198.74 55.8995 198.666 56.5841C198.592 57.2686 198.488 57.9977 198.339 58.7715L196.766 58.6227C196.9 57.8935 197.004 57.1941 197.078 56.5394C197.137 55.8846 197.182 55.3043 197.197 54.7984C197.211 54.2924 197.226 53.6674 197.226 52.9383V51.5246H198.829V52.9234V52.9085Z" fill="white"/>
</svg>
