<svg width="311" height="127" viewBox="0 0 311 127" fill="none" xmlns="http://www.w3.org/2000/svg">
<path d="M30.9511 55.3817H7.72668V37.6887H77.8006V55.3817H54.7839V119.145H30.9511V55.3817Z" fill="#EEE8E0"/>
<path d="M87.5206 103.312L82.8164 119.16H59.6365L85.3095 37.7036H116.132L142.814 119.16H117.957L113.03 103.312H87.5354H87.5206ZM108.846 85.6191C105.032 72.8218 101.9 61.4382 100.06 53.4919H99.7338C97.8491 62.2715 94.7476 73.8932 91.4532 85.6191H108.831H108.846Z" fill="#EEE8E0"/>
<path d="M141.894 37.6887H165.534V70.7683C170.847 63.3429 182.837 48.4325 190.851 37.6887H219.047L189.204 71.0659L220.071 119.145H192.172L172.716 86.4673L165.534 93.8927V119.13H141.894V37.6887Z" fill="#EEE8E0"/>
<path d="M277.53 86.1846H240.535V101.452H281.834L279.178 119.145H217.622V37.6887H279.103V55.3817H240.535V68.4916H277.53V86.1846Z" fill="#EEE8E0"/>
<path d="M27.9683 60.0839H4.7439V42.3909H74.803V60.0839H51.7863V123.847H27.9535V60.0839H27.9683Z" stroke="#713570" stroke-width="5.95" stroke-linecap="round" stroke-linejoin="round"/>
<path d="M84.5379 108.014L79.8337 123.862H56.6538L82.3268 42.4207H113.134L139.816 123.862H114.96L110.033 108.014H84.5379ZM105.848 90.3213C102.034 77.524 98.9029 66.1403 97.0628 58.209H96.7363C94.8517 66.9885 91.7501 78.6103 88.4557 90.3213H105.833H105.848Z" stroke="#713570" stroke-width="5.95" stroke-linecap="round" stroke-linejoin="round"/>
<path d="M138.911 42.406H162.551V75.4707C167.864 68.0453 179.854 53.1349 187.868 42.406H216.064L186.221 75.7832L217.088 123.862H189.189L169.734 91.1995L162.551 98.6249V123.862H138.911V42.406Z" stroke="#713570" stroke-width="5.95" stroke-linecap="round" stroke-linejoin="round"/>
<path d="M274.533 90.887H237.537V106.154H278.836L276.18 123.848H214.624V42.406H276.091V60.099H237.522V73.2088H274.518V90.9019L274.533 90.887Z" stroke="#713570" stroke-width="5.95" stroke-linecap="round" stroke-linejoin="round"/>
<path d="M27.9683 60.0839H4.7439V42.3909H74.803V60.0839H51.7863V123.847H27.9535V60.0839H27.9683Z" fill="#EEE8E0"/>
<path d="M84.5379 108.014L79.8337 123.862H56.6538L82.3268 42.4207H113.134L139.816 123.862H114.96L110.033 108.014H84.5379ZM105.848 90.3213C102.034 77.524 98.9029 66.1403 97.0628 58.209H96.7363C94.8517 66.9885 91.7501 78.6103 88.4557 90.3213H105.833H105.848Z" fill="#EEE8E0"/>
<path d="M138.911 42.406H162.551V75.4707C167.864 68.0453 179.854 53.1349 187.868 42.406H216.064L186.221 75.7832L217.088 123.862H189.189L169.734 91.1995L162.551 98.6249V123.862H138.911V42.406Z" fill="#EEE8E0"/>
<path d="M274.533 90.887H237.537V106.154H278.836L276.18 123.848H214.624V42.406H276.091V60.099H237.522V73.2088H274.518V90.9019L274.533 90.887Z" fill="#EEE8E0"/>
<path d="M27.9683 60.0839H4.7439V42.3909H74.803V60.0839H51.7863V123.847H27.9535V60.0839H27.9683Z" fill="#713570"/>
<path d="M84.5379 108.014L79.8337 123.862H56.6538L82.3268 42.4207H113.134L139.816 123.862H114.96L110.033 108.014H84.5379ZM105.848 90.3213C102.034 77.524 98.9029 66.1403 97.0628 58.209H96.7363C94.8517 66.9885 91.7501 78.6103 88.4557 90.3213H105.833H105.848Z" fill="#713570"/>
<path d="M138.911 42.406H162.551V75.4707C167.864 68.0453 179.854 53.1349 187.868 42.406H216.064L186.221 75.7832L217.088 123.862H189.189L169.734 91.1995L162.551 98.6249V123.862H138.911V42.406Z" fill="#713570"/>
<path d="M274.533 90.887H237.537V106.154H278.836L276.18 123.848H214.624V42.406H276.091V60.099H237.522V73.2088H274.518V90.9019L274.533 90.887Z" fill="#713570"/>
<path d="M27.0779 55.6942H3.85352V38.0012H73.9126V55.6942H50.8959V119.458H27.0631V55.6942H27.0779Z" stroke="#753675" stroke-width="5.95" stroke-linecap="round" stroke-linejoin="round"/>
<path d="M83.6474 103.61L78.9432 119.458H55.7633L81.4363 38.0161H112.244L138.926 119.458H114.069L109.142 103.61H83.6474ZM104.957 85.9168C101.144 73.1194 98.0124 67.941 96.1723 60.0096H95.8458C93.9611 68.7892 90.8596 74.2057 87.5652 85.9168H104.943H104.957Z" stroke="#753675" stroke-width="5.95" stroke-linecap="round" stroke-linejoin="round"/>
<path d="M138.021 38.0012H161.661V71.0659C166.973 63.6405 178.964 48.7301 186.977 38.0012H215.173L185.33 71.3784L216.197 119.458H188.298L168.843 86.7947L161.661 94.2201V119.458H138.021V38.0012Z" stroke="#753675" stroke-width="5.95" stroke-linecap="round" stroke-linejoin="round"/>
<path d="M273.642 86.4822H236.647V101.75H277.946L275.29 119.443H213.734V38.0012H275.201V55.6943H236.632V68.8041H273.628V86.4971L273.642 86.4822Z" stroke="#753675" stroke-width="5.95" stroke-linecap="round" stroke-linejoin="round"/>
<path d="M27.0779 55.6942H3.85352V38.0012H73.9126V55.6942H50.8959V119.458H27.0631V55.6942H27.0779Z" fill="#EEE8E0"/>
<path d="M83.6474 103.61L78.9432 119.458H55.7633L81.4363 38.0161H112.244L138.926 119.458H114.069L109.142 103.61H83.6474ZM104.957 85.9168C101.144 73.1194 98.0124 67.941 96.1723 60.0096H95.8458C93.9611 68.7892 90.8596 74.2057 87.5652 85.9168H104.943H104.957Z" fill="#EEE8E0"/>
<path d="M138.021 38.0012H161.661V71.0659C166.973 63.6405 178.964 48.7301 186.977 38.0012H215.173L185.33 71.3784L216.197 119.458H188.298L168.843 86.7947L161.661 94.2201V119.458H138.021V38.0012Z" fill="#EEE8E0"/>
<path d="M273.642 86.4822H236.647V101.75H277.946L275.29 119.443H213.734V38.0012H275.201V55.6943H236.632V68.8041H273.628V86.4971L273.642 86.4822Z" fill="#EEE8E0"/>
<path d="M299.182 69.8309C304.919 69.8309 309.57 65.1673 309.57 59.4145C309.57 53.6616 304.919 48.998 299.182 48.998C293.445 48.998 288.794 53.6616 288.794 59.4145C288.794 65.1673 293.445 69.8309 299.182 69.8309Z" fill="#EEE8E0" stroke="#713570" stroke-width="2.8"/>
<path d="M299.182 116.422C304.919 116.422 309.57 111.758 309.57 106.006C309.57 100.253 304.919 95.5891 299.182 95.5891C293.445 95.5891 288.794 100.253 288.794 106.006C288.794 111.758 293.445 116.422 299.182 116.422Z" fill="#EEE8E0" stroke="#713570" stroke-width="2.8"/>
<path d="M299.182 66.1553C304.919 66.1553 309.57 61.4918 309.57 55.7389C309.57 49.9861 304.919 45.3225 299.182 45.3225C293.445 45.3225 288.794 49.9861 288.794 55.7389C288.794 61.4918 293.445 66.1553 299.182 66.1553Z" fill="#EEE8E0" stroke="#713570" stroke-width="2.8"/>
<path d="M299.182 112.732C304.919 112.732 309.57 108.068 309.57 102.315C309.57 96.5623 304.919 91.8987 299.182 91.8987C293.445 91.8987 288.794 96.5623 288.794 102.315C288.794 108.068 293.445 112.732 299.182 112.732Z" fill="#EEE8E0" stroke="#713570" stroke-width="2.8"/>
<path d="M55.1253 12.6298L59.6812 8.4335C60.1264 8.00197 60.4677 7.64483 60.72 7.34722C60.9722 7.06449 61.1651 6.76688 61.2987 6.48414C61.4323 6.20141 61.5065 5.88892 61.5065 5.56155C61.5065 5.20441 61.4174 4.87704 61.2393 4.60919C61.0613 4.34134 60.8238 4.11813 60.527 3.96932C60.2154 3.82052 59.8741 3.74611 59.4882 3.74611C59.1024 3.74611 58.7462 3.82052 58.4494 3.9842C58.1526 4.14789 57.93 4.3711 57.7668 4.66871C57.6036 4.96632 57.5145 5.32346 57.5145 5.72523H55.0066C55.0066 4.9068 55.1995 4.19253 55.5705 3.58243C55.9415 2.97232 56.4757 2.49614 57.1584 2.15389C57.841 1.82652 58.6275 1.64795 59.5179 1.64795C60.4083 1.64795 61.1948 1.81164 61.8923 2.12413C62.5749 2.43662 63.1092 2.88304 63.4802 3.4485C63.8512 4.01396 64.0441 4.66871 64.0441 5.39786C64.0441 5.9038 63.955 6.37998 63.7621 6.84128C63.5692 7.30258 63.2427 7.80852 62.7679 8.37398C62.293 8.93944 61.6103 9.60907 60.7496 10.4126L58.8204 12.2876V12.3769H64.2518V14.5494H55.1698V12.6447L55.1253 12.6298Z" fill="#8E4694"/>
<path d="M67.9172 13.9393C67.1603 13.4334 66.5667 12.6894 66.1661 11.7072C65.7654 10.7251 65.5576 9.54955 65.5576 8.18053C65.5576 6.81152 65.7654 5.63595 66.1661 4.65383C66.5667 3.67171 67.1603 2.92768 67.9172 2.42174C68.674 1.9158 69.5941 1.64795 70.6477 1.64795C71.7013 1.64795 72.6066 1.90092 73.3634 2.42174C74.1202 2.92768 74.7138 3.67171 75.1293 4.65383C75.5449 5.63595 75.7378 6.81152 75.7378 8.18053C75.7378 9.54955 75.53 10.74 75.1293 11.7221C74.7287 12.7042 74.1351 13.4483 73.3782 13.9542C72.6066 14.4601 71.7013 14.7131 70.6477 14.7131C69.5941 14.7131 68.6888 14.4601 67.9172 13.9393ZM71.9388 12.0495C72.3098 11.7221 72.5769 11.2459 72.7698 10.5912C72.9627 9.93644 73.0518 9.13289 73.0518 8.18053C73.0518 7.22817 72.9627 6.4395 72.7698 5.78476C72.5769 5.13001 72.2949 4.63895 71.9388 4.31158C71.5826 3.9842 71.1523 3.82052 70.6625 3.82052C70.1728 3.82052 69.7425 3.9842 69.3863 4.31158C69.0302 4.63895 68.7482 5.13001 68.5553 5.78476C68.3624 6.4395 68.2585 7.24305 68.2585 8.18053C68.2585 9.11801 68.3624 9.95132 68.5553 10.5912C68.7482 11.2311 69.0302 11.7221 69.3863 12.0495C69.7425 12.3769 70.1728 12.5257 70.6625 12.5257C71.1523 12.5257 71.5826 12.362 71.9536 12.0495H71.9388Z" fill="#8E4694"/>
<path d="M77.1922 12.6298L81.748 8.4335C82.1932 8.00197 82.5346 7.64483 82.7868 7.34722C83.0391 7.06449 83.232 6.76688 83.3656 6.48414C83.4991 6.20141 83.5733 5.88892 83.5733 5.56155C83.5733 5.20441 83.4843 4.87704 83.3062 4.60919C83.1282 4.34134 82.8907 4.11813 82.5939 3.96932C82.2823 3.82052 81.941 3.74611 81.5551 3.74611C81.1693 3.74611 80.8131 3.82052 80.5163 3.9842C80.2195 4.14789 79.9969 4.3711 79.8337 4.66871C79.6705 4.96632 79.5814 5.32346 79.5814 5.72523H77.0735C77.0735 4.9068 77.2664 4.19253 77.6374 3.58243C78.0084 2.97232 78.5426 2.49614 79.2253 2.15389C79.9079 1.82652 80.6944 1.64795 81.5848 1.64795C82.4752 1.64795 83.2617 1.81164 83.9592 2.12413C84.6418 2.43662 85.1761 2.88304 85.5471 3.4485C85.9181 4.01396 86.111 4.66871 86.111 5.39786C86.111 5.9038 86.0219 6.37998 85.829 6.84128C85.6361 7.30258 85.3096 7.80852 84.8347 8.37398C84.3599 8.93944 83.6772 9.60907 82.8165 10.4126L80.8873 12.2876V12.3769H86.3187V14.5494H77.2367V12.6447L77.1922 12.6298Z" fill="#8E4694"/>
<path d="M90.0138 14.237C89.2866 13.9245 88.7227 13.478 88.3072 12.9126C87.8917 12.3471 87.6691 11.6924 87.6691 10.9632H90.3254C90.3254 11.2757 90.4441 11.5436 90.637 11.7817C90.83 12.0197 91.0971 12.1983 91.4236 12.3322C91.75 12.4662 92.1062 12.5257 92.5069 12.5257C92.9075 12.5257 93.3082 12.4513 93.6347 12.3025C93.9612 12.1537 94.2283 11.9453 94.4064 11.6924C94.5845 11.4394 94.6735 11.1269 94.6735 10.7995C94.6735 10.4573 94.5844 10.1597 94.3915 9.87694C94.1986 9.59421 93.9315 9.40076 93.5605 9.25196C93.1895 9.10315 92.774 9.02875 92.2843 9.02875H91.0971V7.07939H92.2843C92.6998 7.07939 93.0708 7.00499 93.3824 6.87106C93.7089 6.72226 93.9463 6.52881 94.1244 6.27584C94.3025 6.02287 94.3915 5.72526 94.3915 5.39788C94.3915 5.07051 94.3173 4.80266 94.1541 4.54969C93.9909 4.29672 93.7831 4.10327 93.5011 3.96935C93.2192 3.83542 92.8927 3.76102 92.5365 3.76102C92.1804 3.76102 91.8242 3.82054 91.5126 3.95447C91.201 4.08839 90.9487 4.28184 90.7558 4.51993C90.5628 4.75802 90.459 5.04075 90.4441 5.36812H87.9213C87.9213 4.65385 88.1439 4.01399 88.5446 3.44853C88.9601 2.88306 89.5092 2.43664 90.1918 2.13903C90.8893 1.82654 91.661 1.67773 92.5217 1.67773C93.3824 1.67773 94.1541 1.84142 94.8219 2.15391C95.4897 2.46641 95.9942 2.89794 96.3652 3.44853C96.7362 3.99911 96.9143 4.59433 96.8995 5.26396C96.8995 5.72526 96.8104 6.15679 96.6027 6.52881C96.3949 6.90082 96.1278 7.21332 95.7568 7.45141C95.3858 7.6895 94.9703 7.85318 94.4954 7.94247V8.04663C95.1038 8.12103 95.6381 8.2996 96.0684 8.55257C96.4988 8.80554 96.8253 9.16267 97.0479 9.57933C97.2705 9.99599 97.3743 10.4722 97.3743 11.0079C97.3743 11.7221 97.1814 12.362 96.7511 12.9275C96.3356 13.4929 95.7568 13.9393 95 14.2667C94.258 14.5941 93.4121 14.7429 92.4772 14.7429C91.5423 14.7429 90.7261 14.5792 89.9989 14.2667L90.0138 14.237Z" fill="#8E4694"/>
<path d="M110.255 3.04675H105.225V8.03175H102.999V1.23132H110.241V3.04675H110.255ZM108.193 7.40676C109.142 7.34724 110.062 7.2282 110.953 7.03475L111.161 8.80554C110.552 8.95435 109.929 9.05851 109.306 9.13291C108.682 9.20732 108 9.25196 107.243 9.26684C106.486 9.28172 105.507 9.2966 104.275 9.2966H103.028V7.49605H104.275C105.937 7.49605 107.258 7.46629 108.207 7.40676H108.193ZM115.583 16.1417H113.357V12.2727H104.631V10.487H115.568V16.1417H115.583ZM113.921 5.94846H109.484V4.14791H113.921V5.94846ZM115.583 9.80254H113.357V0.159912H115.583V9.81742V9.80254Z" fill="#8E4694"/>
<path d="M122.38 5.50205C122.038 6.43952 121.534 7.25796 120.851 7.94246C120.168 8.64185 119.323 9.14779 118.328 9.49005L117.141 7.68949C118.017 7.40676 118.759 7.00499 119.337 6.46929C119.931 5.93358 120.361 5.32348 120.628 4.63897C120.91 3.95446 121.044 3.22532 121.059 2.45152V1.00811H122.884V2.45152C122.884 3.55269 122.721 4.56457 122.38 5.50205ZM128.197 10.3234C129.013 10.5614 129.651 10.9186 130.096 11.3948C130.542 11.8709 130.764 12.4215 130.764 13.0763C130.764 13.731 130.542 14.2816 130.096 14.7429C129.651 15.2042 129.028 15.5613 128.197 15.7994C127.381 16.0375 126.401 16.1566 125.259 16.1566C124.116 16.1566 123.166 16.0375 122.335 15.7994C121.504 15.5613 120.881 15.2042 120.45 14.7429C120.02 14.2816 119.783 13.7161 119.783 13.0763C119.783 12.4364 120.005 11.8709 120.45 11.3948C120.896 10.9186 121.519 10.5763 122.335 10.3234C123.151 10.0704 124.131 9.95135 125.259 9.95135C126.386 9.95135 127.366 10.0704 128.197 10.3234ZM123.686 4.43064C123.938 5.07051 124.353 5.63597 124.888 6.14191C125.437 6.63297 126.119 7.01987 126.95 7.27284L125.748 9.01387C124.798 8.68649 123.997 8.19543 123.374 7.55557C122.751 6.9157 122.276 6.15679 121.964 5.27884C121.652 4.40088 121.504 3.43364 121.504 2.36224V1.02299H123.3V2.36224C123.3 3.10627 123.418 3.79078 123.686 4.44552V4.43064ZM123.478 11.8561C123.003 11.9602 122.632 12.109 122.38 12.3174C122.127 12.5257 122.009 12.7787 122.009 13.0763C122.009 13.3739 122.127 13.612 122.38 13.8203C122.632 14.0286 123.003 14.1774 123.478 14.2816C123.953 14.3858 124.546 14.4453 125.259 14.4453C125.971 14.4453 126.564 14.3858 127.054 14.2816C127.544 14.1774 127.9 14.0286 128.152 13.8203C128.405 13.612 128.523 13.3739 128.523 13.0763C128.523 12.7787 128.405 12.5108 128.152 12.3174C127.9 12.1239 127.544 11.9602 127.054 11.8561C126.564 11.7519 125.971 11.7073 125.259 11.6924C124.546 11.6924 123.953 11.7519 123.478 11.8561ZM128.79 4.95146H125.496V3.12115H128.79V4.95146ZM130.705 9.54957H128.479V0.159912H130.705V9.53469V9.54957Z" fill="#8E4694"/>
<path d="M138.941 1.99023C139.564 2.45152 140.054 3.12115 140.41 3.98423C140.766 4.8473 140.929 5.8443 140.929 6.99011C140.929 8.13591 140.751 9.14779 140.41 10.0109C140.054 10.8739 139.564 11.5436 138.941 12.0049C138.318 12.4662 137.605 12.7043 136.804 12.7043C136.002 12.7043 135.29 12.4662 134.652 12.0049C134.014 11.5436 133.539 10.8739 133.183 10.0109C132.827 9.14779 132.649 8.13591 132.649 6.99011C132.649 5.8443 132.827 4.8473 133.183 3.98423C133.539 3.12115 134.029 2.45152 134.652 1.99023C135.275 1.52893 135.988 1.29084 136.804 1.29084C137.62 1.29084 138.303 1.52893 138.941 1.99023ZM135.765 3.74614C135.468 4.02887 135.231 4.44552 135.068 4.99611C134.904 5.54669 134.815 6.21631 134.815 6.99011C134.815 7.7639 134.89 8.43352 135.068 8.98411C135.231 9.53469 135.468 9.95134 135.765 10.2341C136.062 10.5168 136.418 10.6656 136.819 10.6656C137.219 10.6656 137.576 10.5168 137.872 10.2341C138.169 9.95134 138.407 9.53469 138.57 8.98411C138.733 8.43352 138.822 7.7639 138.822 6.99011C138.822 6.21631 138.748 5.54669 138.57 4.99611C138.407 4.44552 138.169 4.02887 137.872 3.74614C137.561 3.4634 137.219 3.32948 136.819 3.32948C136.418 3.32948 136.062 3.4634 135.765 3.74614ZM144.031 5.26396H139.594V3.4634H144.031V5.26396ZM144.031 10.2192H139.594V8.41864H144.031V10.2192ZM145.871 16.2012H143.66V0.159912H145.871V16.2012Z" fill="#8E4694"/>
<path d="M152.445 8.07639C152.104 9.2222 151.584 10.2341 150.917 11.1418C150.249 12.0495 149.433 12.7043 148.498 13.1507L147.192 11.3799C148.053 10.9781 148.78 10.3978 149.388 9.66861C149.997 8.92458 150.442 8.12103 150.753 7.2282C151.065 6.33536 151.214 5.42764 151.214 4.51993V2.65985H152.979V4.51993C152.979 5.75502 152.801 6.93058 152.46 8.07639H152.445ZM156.645 3.53781H147.815V1.70749H156.645V3.53781ZM153.87 7.03475C154.167 7.86806 154.612 8.64185 155.191 9.34124C155.769 10.0406 156.496 10.5763 157.328 10.9632L156.081 12.7191C155.146 12.2876 154.345 11.6477 153.677 10.7995C153.009 9.95134 152.505 8.96923 152.163 7.88294C151.822 6.79666 151.644 5.66573 151.644 4.50505V2.64497H153.41V4.50505C153.41 5.35324 153.543 6.20143 153.84 7.03475H153.87ZM160.117 16.1417H157.877V0.159912H160.117V16.1566V16.1417ZM162.477 8.13591H159.628V6.26096H162.477V8.13591Z" fill="#8E4694"/>
<path d="M169.081 3.82054H165.371V11.5584H163.13V2.01999H169.081V3.82054ZM167.255 10.5763C168.086 10.5168 168.947 10.4126 169.823 10.2638L169.986 12.0793C169.096 12.2578 168.235 12.3769 167.374 12.4215C166.513 12.481 165.475 12.5108 164.258 12.5257H163.145V10.6507H164.258C165.43 10.6507 166.424 10.621 167.255 10.5763ZM172.82 15.3679H170.772V0.442643H172.82V15.3679ZM174.868 8.12103H172.167V6.33536H174.868V8.12103ZM176.456 16.1268H174.349V0.159912H176.456V16.1566V16.1268Z" fill="#8E4694"/>
<path d="M187.274 3.37406H177.807V1.60327H187.274V3.37406ZM184.588 4.25202C185.182 4.50499 185.642 4.84724 185.983 5.29366C186.325 5.74008 186.488 6.24602 186.488 6.82636C186.488 7.4067 186.325 7.91264 185.983 8.37394C185.657 8.82036 185.182 9.16261 184.588 9.41558C183.995 9.66855 183.312 9.7876 182.555 9.7876C181.798 9.7876 181.116 9.66855 180.507 9.41558C179.914 9.16261 179.439 8.82036 179.098 8.37394C178.756 7.92753 178.593 7.4067 178.593 6.82636C178.593 6.24602 178.756 5.74008 179.098 5.29366C179.439 4.84724 179.899 4.50499 180.493 4.25202C181.086 3.99905 181.769 3.88 182.54 3.88C183.312 3.88 183.98 3.99905 184.573 4.25202H184.588ZM190.465 16.1565H188.239V12.6596H179.751V10.8739H190.465V16.1565ZM181.62 5.71032C181.353 5.81448 181.145 5.94841 180.997 6.14185C180.849 6.3353 180.774 6.55851 180.774 6.82636C180.774 7.09421 180.849 7.31742 180.997 7.51087C181.145 7.68943 181.353 7.83824 181.62 7.92752C181.887 8.01681 182.199 8.06145 182.57 8.06145C182.941 8.06145 183.238 8.01681 183.505 7.92752C183.772 7.83824 183.995 7.68943 184.143 7.51087C184.292 7.3323 184.366 7.09421 184.366 6.82636C184.366 6.55851 184.292 6.3353 184.143 6.14185C183.995 5.94841 183.772 5.81448 183.505 5.71032C183.238 5.60615 182.926 5.56151 182.57 5.56151C182.214 5.56151 181.887 5.60615 181.62 5.71032ZM183.683 2.60027H181.457V0.0854492H183.683V2.60027ZM190.48 10.2043H188.254V0.159852H190.48V10.2043ZM192.632 6.14185H189.842V4.31154H192.632V6.14185Z" fill="#8E4694"/>
<path d="M207.486 14.1922H192.958V12.3768H207.486V14.1922ZM204.548 3.32938H194.383V1.55859H204.548V3.32938ZM198.271 12.972H196.045V7.36203H198.271V12.972ZM202.233 12.972H200.037V7.36203H202.233V12.972ZM206.166 3.21034C206.166 4.07341 206.166 4.83233 206.136 5.48707C206.121 6.14182 206.062 6.90073 205.973 7.74892C205.884 8.59712 205.75 9.51971 205.572 10.5018L203.376 10.2935C203.539 9.37091 203.672 8.50783 203.747 7.6894C203.821 6.87097 203.865 6.14182 203.895 5.51683C203.91 4.89185 203.925 4.13294 203.925 3.25498V1.55859H206.151V3.21034H206.166Z" fill="#8E4694"/>
<path d="M226.437 9.04363H211.879V7.24308H226.437V9.04363ZM223.795 2.8533H213.645V1.06763H223.795V2.8533ZM215.93 14.237H213.719V10.4424H215.93V14.237ZM225.175 15.8441H213.734V14.0435H225.175V15.8441ZM224.641 5.20443C224.582 6.02287 224.448 6.93058 224.226 7.95734L222 7.7639C222.148 7.07939 222.252 6.4544 222.326 5.85918C222.4 5.26396 222.445 4.72825 222.46 4.26696C222.475 3.80566 222.489 3.24019 222.489 2.58545V1.06763H224.715V2.43664C224.715 3.47828 224.686 4.40088 224.626 5.20443H224.641Z" fill="#8E4694"/>
<path d="M232.209 11.5584C233.768 11.5138 235.267 11.3799 236.706 11.1716L236.854 12.8084C235.816 13.0019 234.717 13.1507 233.59 13.24C232.462 13.3292 231.408 13.3888 230.429 13.4185C229.449 13.4483 228.336 13.4632 227.119 13.4632L226.823 11.6329C228.856 11.6329 230.651 11.6031 232.209 11.5584ZM236.572 3.70149H227.119V1.94558H236.572V3.70149ZM233.901 4.71337C234.495 4.96635 234.955 5.3086 235.296 5.7699C235.638 6.2312 235.801 6.75202 235.801 7.34724C235.801 7.94246 235.638 8.4484 235.296 8.9097C234.955 9.35612 234.495 9.71326 233.901 9.96623C233.308 10.2192 232.64 10.3382 231.883 10.3382C231.126 10.3382 230.444 10.2192 229.85 9.96623C229.256 9.71326 228.796 9.35612 228.455 8.9097C228.129 8.46329 227.965 7.94246 227.965 7.34724C227.965 6.75202 228.129 6.2312 228.455 5.7699C228.781 5.3086 229.256 4.96635 229.85 4.71337C230.444 4.4604 231.126 4.34136 231.883 4.34136C232.64 4.34136 233.308 4.4604 233.901 4.71337ZM230.933 6.18655C230.666 6.29072 230.458 6.43952 230.31 6.63297C230.162 6.82642 230.087 7.06451 230.087 7.33236C230.087 7.60021 230.147 7.8383 230.31 8.03175C230.473 8.2252 230.666 8.374 230.933 8.46329C231.2 8.56745 231.512 8.61209 231.883 8.61209C232.254 8.61209 232.536 8.56745 232.803 8.46329C233.07 8.35912 233.278 8.21032 233.426 8.03175C233.575 7.85318 233.649 7.61509 233.649 7.33236C233.649 7.04963 233.575 6.82642 233.426 6.63297C233.278 6.43952 233.07 6.27584 232.803 6.18655C232.536 6.08239 232.224 6.03775 231.883 6.03775C231.512 6.03775 231.2 6.08239 230.933 6.18655ZM232.996 3.2402H230.74V0.249196H232.996V3.22532V3.2402ZM232.996 12.2132H230.74V9.60909H232.996V12.2132ZM239.748 16.1417H237.493V0.159912H239.748V16.1566V16.1417ZM241.826 8.52281H238.976V6.67761H241.826V8.52281Z" fill="#8E4694"/>
<path d="M246.322 8.00199C246.07 9.11803 245.684 10.1299 245.15 11.0376C244.616 11.9453 243.948 12.6447 243.146 13.1358L241.796 11.484C242.538 11.0227 243.161 10.4126 243.636 9.66861C244.126 8.92458 244.467 8.10615 244.69 7.21332C244.912 6.32048 245.016 5.39788 245.016 4.43064V2.74914H246.708V4.43064C246.708 5.68061 246.574 6.85618 246.322 7.98711V8.00199ZM249.587 3.58245H242.404V1.79678H249.587V3.58245ZM247.48 7.12403C247.687 7.97223 248.029 8.73114 248.504 9.43052C248.979 10.1299 249.572 10.6954 250.314 11.1269L249.008 12.7638C248.192 12.2876 247.524 11.618 247.005 10.7698C246.485 9.92158 246.114 8.96923 245.877 7.89782C245.64 6.82642 245.521 5.68061 245.521 4.44552V2.76402H247.168V4.44552C247.168 5.383 247.272 6.27584 247.48 7.12403ZM251.13 7.4514H248.444V5.65085H251.13V7.4514ZM252.629 15.4125H250.537V0.442643H252.629V15.4274V15.4125ZM255.879 16.1417H253.772V0.159912H255.879V16.1566V16.1417Z" fill="#8E4694"/>
</svg>
